<svg xmlns="http://www.w3.org/2000/svg" data-author="squawk-7500" data-created-at="2026-09-24T03:49:50.634Z" data-model-version="2" viewBox="-22.51 -1.18 488.83 488.83" width="512" height="512" fill="currentColor" fill-rule="evenodd" stroke="currentColor" stroke-width="4.89" stroke-linejoin="round"><path d=" M285.86,197.88L286.05,197.88L286.05,180.98Z"/><path d=" M285.86,197.88L286.05,180.98L285.86,180.98Z"/><path d=" M286.05,197.88L286.62,197.88L286.62,180.98Z"/><path d=" M286.05,197.88L286.62,180.98L286.05,180.98Z"/><path d=" M286.62,197.88L287.47,197.88L287.47,180.98Z"/><path d=" M286.62,197.88L287.47,180.98L286.62,180.98Z"/><path d=" M287.47,197.88L288.47,197.88L288.47,180.98Z"/><path d=" M287.47,197.88L288.47,180.98L287.47,180.98Z"/><path d=" M288.47,197.88L289.47,197.88L289.47,180.98Z"/><path d=" M288.47,197.88L289.47,180.98L288.47,180.98Z"/><path d=" M289.47,197.88L290.32,197.88L290.32,180.98Z"/><path d=" M289.47,197.88L290.32,180.98L289.47,180.98Z"/><path d=" M290.32,197.88L290.89,197.88L290.89,180.98Z"/><path d=" M290.32,197.88L290.89,180.98L290.32,180.98Z"/><path d=" M290.89,197.88L291.09,197.88L291.09,180.98Z"/><path d=" M290.89,197.88L291.09,180.98L290.89,180.98Z"/><path d=" M291.09,197.88L290.89,197.88L290.89,180.98Z"/><path d=" M291.09,197.88L290.89,180.98L291.09,180.98Z"/><path d=" M290.89,197.88L290.32,197.88L290.32,180.98Z"/><path d=" M290.89,197.88L290.32,180.98L290.89,180.98Z"/><path d=" M290.32,197.88L289.47,197.88L289.47,180.98Z"/><path d=" M290.32,197.88L289.47,180.98L290.32,180.98Z"/><path d=" M289.47,197.88L288.47,197.88L288.47,180.98Z"/><path d=" M289.47,197.88L288.47,180.98L289.47,180.98Z"/><path d=" M288.47,197.88L287.47,197.88L287.47,180.98Z"/><path d=" M288.47,197.88L287.47,180.98L288.47,180.98Z"/><path d=" M287.47,197.88L286.62,197.88L286.62,180.98Z"/><path d=" M287.47,197.88L286.62,180.98L287.47,180.98Z"/><path d=" M286.62,197.88L286.05,197.88L286.05,180.98Z"/><path d=" M286.62,197.88L286.05,180.98L286.62,180.98Z"/><path d=" M286.05,197.88L285.86,197.88L285.86,180.98Z"/><path d=" M286.05,197.88L285.86,180.98L286.05,180.98Z"/><path d=" M288.47,197.88L286.05,197.88L285.86,197.88Z"/><path d=" M288.47,180.98L285.86,180.98L286.05,180.98Z"/><path d=" M288.47,197.88L286.62,197.88L286.05,197.88Z"/><path d=" M288.47,180.98L286.05,180.98L286.62,180.98Z"/><path d=" M288.47,197.88L287.47,197.88L286.62,197.88Z"/><path d=" M288.47,180.98L286.62,180.98L287.47,180.98Z"/><path d=" M288.47,197.88L288.47,197.88L287.47,197.88Z"/><path d=" M288.47,180.98L287.47,180.98L288.47,180.98Z"/><path d=" M288.47,197.88L289.47,197.88L288.47,197.88Z"/><path d=" M288.47,180.98L288.47,180.98L289.47,180.98Z"/><path d=" M288.47,197.88L290.32,197.88L289.47,197.88Z"/><path d=" M288.47,180.98L289.47,180.98L290.32,180.98Z"/><path d=" M288.47,197.88L290.89,197.88L290.32,197.88Z"/><path d=" M288.47,180.98L290.32,180.98L290.89,180.98Z"/><path d=" M288.47,197.88L291.09,197.88L290.89,197.88Z"/><path d=" M288.47,180.98L290.89,180.98L291.09,180.98Z"/><path d=" M288.47,197.88L290.89,197.88L291.09,197.88Z"/><path d=" M288.47,180.98L291.09,180.98L290.89,180.98Z"/><path d=" M288.47,197.88L290.32,197.88L290.89,197.88Z"/><path d=" M288.47,180.98L290.89,180.98L290.32,180.98Z"/><path d=" M288.47,197.88L289.47,197.88L290.32,197.88Z"/><path d=" M288.47,180.98L290.32,180.98L289.47,180.98Z"/><path d=" M288.47,197.88L288.47,197.88L289.47,197.88Z"/><path d=" M288.47,180.98L289.47,180.98L288.47,180.98Z"/><path d=" M288.47,197.88L287.47,197.88L288.47,197.88Z"/><path d=" M288.47,180.98L288.47,180.98L287.47,180.98Z"/><path d=" M288.47,197.88L286.62,197.88L287.47,197.88Z"/><path d=" M288.47,180.98L287.47,180.98L286.62,180.98Z"/><path d=" M288.47,197.88L286.05,197.88L286.62,197.88Z"/><path d=" M288.47,180.98L286.62,180.98L286.05,180.98Z"/><path d=" M288.47,197.88L285.86,197.88L286.05,197.88Z"/><path d=" M288.47,180.98L286.05,180.98L285.86,180.98Z"/><path d=" M286.3,180.98L286.47,180.98L286.34,180.07Z"/><path d=" M286.3,180.98L286.34,180.07L286.16,180.07Z"/><path d=" M286.47,180.98L286.94,180.98L286.84,180.07Z"/><path d=" M286.47,180.98L286.84,180.07L286.34,180.07Z"/><path d=" M286.94,180.98L287.64,180.98L287.59,180.07Z"/><path d=" M286.94,180.98L287.59,180.07L286.84,180.07Z"/><path d=" M287.64,180.98L288.47,180.98L288.47,180.07Z"/><path d=" M287.64,180.98L288.47,180.07L287.59,180.07Z"/><path d=" M288.47,180.98L289.3,180.98L289.35,180.07Z"/><path d=" M288.47,180.98L289.35,180.07L288.47,180.07Z"/><path d=" M289.3,180.98L290.01,180.98L290.1,180.07Z"/><path d=" M289.3,180.98L290.1,180.07L289.35,180.07Z"/><path d=" M290.01,180.98L290.48,180.98L290.6,180.07Z"/><path d=" M290.01,180.98L290.6,180.07L290.1,180.07Z"/><path d=" M290.48,180.98L290.64,180.98L290.78,180.07Z"/><path d=" M290.48,180.98L290.78,180.07L290.6,180.07Z"/><path d=" M290.64,180.98L290.48,180.98L290.6,180.07Z"/><path d=" M290.64,180.98L290.6,180.07L290.78,180.07Z"/><path d=" M290.48,180.98L290.01,180.98L290.1,180.07Z"/><path d=" M290.48,180.98L290.1,180.07L290.6,180.07Z"/><path d=" M290.01,180.98L289.3,180.98L289.35,180.07Z"/><path d=" M290.01,180.98L289.35,180.07L290.1,180.07Z"/><path d=" M289.3,180.98L288.47,180.98L288.47,180.07Z"/><path d=" M289.3,180.98L288.47,180.07L289.35,180.07Z"/><path d=" M288.47,180.98L287.64,180.98L287.59,180.07Z"/><path d=" M288.47,180.98L287.59,180.07L288.47,180.07Z"/><path d=" M287.64,180.98L286.94,180.98L286.84,180.07Z"/><path d=" M287.64,180.98L286.84,180.07L287.59,180.07Z"/><path d=" M286.94,180.98L286.47,180.98L286.34,180.07Z"/><path d=" M286.94,180.98L286.34,180.07L286.84,180.07Z"/><path d=" M286.47,180.98L286.3,180.98L286.16,180.07Z"/><path d=" M286.47,180.98L286.16,180.07L286.34,180.07Z"/><path d=" M286.16,180.07L286.34,180.07L286.27,179.17Z"/><path d=" M286.16,180.07L286.27,179.17L286.09,179.17Z"/><path d=" M286.34,180.07L286.84,180.07L286.78,179.17Z"/><path d=" M286.34,180.07L286.78,179.17L286.27,179.17Z"/><path d=" M286.84,180.07L287.59,180.07L287.56,179.17Z"/><path d=" M286.84,180.07L287.56,179.17L286.78,179.17Z"/><path d=" M287.59,180.07L288.47,180.07L288.47,179.17Z"/><path d=" M287.59,180.07L288.47,179.17L287.56,179.17Z"/><path d=" M288.47,180.07L289.35,180.07L289.38,179.17Z"/><path d=" M288.47,180.07L289.38,179.17L288.47,179.17Z"/><path d=" M289.35,180.07L290.1,180.07L290.16,179.17Z"/><path d=" M289.35,180.07L290.16,179.17L289.38,179.17Z"/><path d=" M290.1,180.07L290.6,180.07L290.68,179.17Z"/><path d=" M290.1,180.07L290.68,179.17L290.16,179.17Z"/><path d=" M290.6,180.07L290.78,180.07L290.86,179.17Z"/><path d=" M290.6,180.07L290.86,179.17L290.68,179.17Z"/><path d=" M290.78,180.07L290.6,180.07L290.68,179.17Z"/><path d=" M290.78,180.07L290.68,179.17L290.86,179.17Z"/><path d=" M290.6,180.07L290.1,180.07L290.16,179.17Z"/><path d=" M290.6,180.07L290.16,179.17L290.68,179.17Z"/><path d=" M290.1,180.07L289.35,180.07L289.38,179.17Z"/><path d=" M290.1,180.07L289.38,179.17L290.16,179.17Z"/><path d=" M289.35,180.07L288.47,180.07L288.47,179.17Z"/><path d=" M289.35,180.07L288.47,179.17L289.38,179.17Z"/><path d=" M288.47,180.07L287.59,180.07L287.56,179.17Z"/><path d=" M288.47,180.07L287.56,179.17L288.47,179.17Z"/><path d=" M287.59,180.07L286.84,180.07L286.78,179.17Z"/><path d=" M287.59,180.07L286.78,179.17L287.56,179.17Z"/><path d=" M286.84,180.07L286.34,180.07L286.27,179.17Z"/><path d=" M286.84,180.07L286.27,179.17L286.78,179.17Z"/><path d=" M286.34,180.07L286.16,180.07L286.09,179.17Z"/><path d=" M286.34,180.07L286.09,179.17L286.27,179.17Z"/><path d=" M286.09,179.17L286.27,179.17L286.3,178.27Z"/><path d=" M286.09,179.17L286.3,178.27L286.12,178.27Z"/><path d=" M286.27,179.17L286.78,179.17L286.81,178.27Z"/><path d=" M286.27,179.17L286.81,178.27L286.3,178.27Z"/><path d=" M286.78,179.17L287.56,179.17L287.57,178.27Z"/><path d=" M286.78,179.17L287.57,178.27L286.81,178.27Z"/><path d=" M287.56,179.17L288.47,179.17L288.47,178.27Z"/><path d=" M287.56,179.17L288.47,178.27L287.57,178.27Z"/><path d=" M288.47,179.17L289.38,179.17L289.37,178.27Z"/><path d=" M288.47,179.17L289.37,178.27L288.47,178.27Z"/><path d=" M289.38,179.17L290.16,179.17L290.13,178.27Z"/><path d=" M289.38,179.17L290.13,178.27L289.37,178.27Z"/><path d=" M290.16,179.17L290.68,179.17L290.64,178.27Z"/><path d=" M290.16,179.17L290.64,178.27L290.13,178.27Z"/><path d=" M290.68,179.17L290.86,179.17L290.82,178.27Z"/><path d=" M290.68,179.17L290.82,178.27L290.64,178.27Z"/><path d=" M290.86,179.17L290.68,179.17L290.64,178.27Z"/><path d=" M290.86,179.17L290.64,178.27L290.82,178.27Z"/><path d=" M290.68,179.17L290.16,179.17L290.13,178.27Z"/><path d=" M290.68,179.17L290.13,178.27L290.64,178.27Z"/><path d=" M290.16,179.17L289.38,179.17L289.37,178.27Z"/><path d=" M290.16,179.17L289.37,178.27L290.13,178.27Z"/><path d=" M289.38,179.17L288.47,179.17L288.47,178.27Z"/><path d=" M289.38,179.17L288.47,178.27L289.37,178.27Z"/><path d=" M288.47,179.17L287.56,179.17L287.57,178.27Z"/><path d=" M288.47,179.17L287.57,178.27L288.47,178.27Z"/><path d=" M287.56,179.17L286.78,179.17L286.81,178.27Z"/><path d=" M287.56,179.17L286.81,178.27L287.57,178.27Z"/><path d=" M286.78,179.17L286.27,179.17L286.3,178.27Z"/><path d=" M286.78,179.17L286.3,178.27L286.81,178.27Z"/><path d=" M286.27,179.17L286.09,179.17L286.12,178.27Z"/><path d=" M286.27,179.17L286.12,178.27L286.3,178.27Z"/><path d=" M286.12,178.27L286.3,178.27L286.47,177.36Z"/><path d=" M286.12,178.27L286.47,177.36L286.3,177.36Z"/><path d=" M286.3,178.27L286.81,178.27L286.94,177.36Z"/><path d=" M286.3,178.27L286.94,177.36L286.47,177.36Z"/><path d=" M286.81,178.27L287.57,178.27L287.64,177.36Z"/><path d=" M286.81,178.27L287.64,177.36L286.94,177.36Z"/><path d=" M287.57,178.27L288.47,178.27L288.47,177.36Z"/><path d=" M287.57,178.27L288.47,177.36L287.64,177.36Z"/><path d=" M288.47,178.27L289.37,178.27L289.3,177.36Z"/><path d=" M288.47,178.27L289.3,177.36L288.47,177.36Z"/><path d=" M289.37,178.27L290.13,178.27L290.01,177.36Z"/><path d=" M289.37,178.27L290.01,177.36L289.3,177.36Z"/><path d=" M290.13,178.27L290.64,178.27L290.48,177.36Z"/><path d=" M290.13,178.27L290.48,177.36L290.01,177.36Z"/><path d=" M290.64,178.27L290.82,178.27L290.64,177.36Z"/><path d=" M290.64,178.27L290.64,177.36L290.48,177.36Z"/><path d=" M290.82,178.27L290.64,178.27L290.48,177.36Z"/><path d=" M290.82,178.27L290.48,177.36L290.64,177.36Z"/><path d=" M290.64,178.27L290.13,178.27L290.01,177.36Z"/><path d=" M290.64,178.27L290.01,177.36L290.48,177.36Z"/><path d=" M290.13,178.27L289.37,178.27L289.3,177.36Z"/><path d=" M290.13,178.27L289.3,177.36L290.01,177.36Z"/><path d=" M289.37,178.27L288.47,178.27L288.47,177.36Z"/><path d=" M289.37,178.27L288.47,177.36L289.3,177.36Z"/><path d=" M288.47,178.27L287.57,178.27L287.64,177.36Z"/><path d=" M288.47,178.27L287.64,177.36L288.47,177.36Z"/><path d=" M287.57,178.27L286.81,178.27L286.94,177.36Z"/><path d=" M287.57,178.27L286.94,177.36L287.64,177.36Z"/><path d=" M286.81,178.27L286.3,178.27L286.47,177.36Z"/><path d=" M286.81,178.27L286.47,177.36L286.94,177.36Z"/><path d=" M286.3,178.27L286.12,178.27L286.3,177.36Z"/><path d=" M286.3,178.27L286.3,177.36L286.47,177.36Z"/><path d=" M286.3,177.36L286.47,177.36L286.78,176.46Z"/><path d=" M286.3,177.36L286.78,176.46L286.64,176.46Z"/><path d=" M286.47,177.36L286.94,177.36L287.18,176.46Z"/><path d=" M286.47,177.36L287.18,176.46L286.78,176.46Z"/><path d=" M286.94,177.36L287.64,177.36L287.77,176.46Z"/><path d=" M286.94,177.36L287.77,176.46L287.18,176.46Z"/><path d=" M287.64,177.36L288.47,177.36L288.47,176.46Z"/><path d=" M287.64,177.36L288.47,176.46L287.77,176.46Z"/><path d=" M288.47,177.36L289.3,177.36L289.17,176.46Z"/><path d=" M288.47,177.36L289.17,176.46L288.47,176.46Z"/><path d=" M289.3,177.36L290.01,177.36L289.76,176.46Z"/><path d=" M289.3,177.36L289.76,176.46L289.17,176.46Z"/><path d=" M290.01,177.36L290.48,177.36L290.16,176.46Z"/><path d=" M290.01,177.36L290.16,176.46L289.76,176.46Z"/><path d=" M290.48,177.36L290.64,177.36L290.3,176.46Z"/><path d=" M290.48,177.36L290.3,176.46L290.16,176.46Z"/><path d=" M290.64,177.36L290.48,177.36L290.16,176.46Z"/><path d=" M290.64,177.36L290.16,176.46L290.3,176.46Z"/><path d=" M290.48,177.36L290.01,177.36L289.76,176.46Z"/><path d=" M290.48,177.36L289.76,176.46L290.16,176.46Z"/><path d=" M290.01,177.36L289.3,177.36L289.17,176.46Z"/><path d=" M290.01,177.36L289.17,176.46L289.76,176.46Z"/><path d=" M289.3,177.36L288.47,177.36L288.47,176.46Z"/><path d=" M289.3,177.36L288.47,176.46L289.17,176.46Z"/><path d=" M288.47,177.36L287.64,177.36L287.77,176.46Z"/><path d=" M288.47,177.36L287.77,176.46L288.47,176.46Z"/><path d=" M287.64,177.36L286.94,177.36L287.18,176.46Z"/><path d=" M287.64,177.36L287.18,176.46L287.77,176.46Z"/><path d=" M286.94,177.36L286.47,177.36L286.78,176.46Z"/><path d=" M286.94,177.36L286.78,176.46L287.18,176.46Z"/><path d=" M286.47,177.36L286.3,177.36L286.64,176.46Z"/><path d=" M286.47,177.36L286.64,176.46L286.78,176.46Z"/><path d=" M286.64,176.46L286.78,176.46L287.24,175.55Z"/><path d=" M286.64,176.46L287.24,175.55L287.13,175.55Z"/><path d=" M286.78,176.46L287.18,176.46L287.53,175.55Z"/><path d=" M286.78,176.46L287.53,175.55L287.24,175.55Z"/><path d=" M287.18,176.46L287.77,176.46L287.96,175.55Z"/><path d=" M287.18,176.46L287.96,175.55L287.53,175.55Z"/><path d=" M287.77,176.46L288.47,176.46L288.47,175.55Z"/><path d=" M287.77,176.46L288.47,175.55L287.96,175.55Z"/><path d=" M288.47,176.46L289.17,176.46L288.98,175.55Z"/><path d=" M288.47,176.46L288.98,175.55L288.47,175.55Z"/><path d=" M289.17,176.46L289.76,176.46L289.42,175.55Z"/><path d=" M289.17,176.46L289.42,175.55L288.98,175.55Z"/><path d=" M289.76,176.46L290.16,176.46L289.71,175.55Z"/><path d=" M289.76,176.46L289.71,175.55L289.42,175.55Z"/><path d=" M290.16,176.46L290.3,176.46L289.81,175.55Z"/><path d=" M290.16,176.46L289.81,175.55L289.71,175.55Z"/><path d=" M290.3,176.46L290.16,176.46L289.71,175.55Z"/><path d=" M290.3,176.46L289.71,175.55L289.81,175.55Z"/><path d=" M290.16,176.46L289.76,176.46L289.42,175.55Z"/><path d=" M290.16,176.46L289.42,175.55L289.71,175.55Z"/><path d=" M289.76,176.46L289.17,176.46L288.98,175.55Z"/><path d=" M289.76,176.46L288.98,175.55L289.42,175.55Z"/><path d=" M289.17,176.46L288.47,176.46L288.47,175.55Z"/><path d=" M289.17,176.46L288.47,175.55L288.98,175.55Z"/><path d=" M288.47,176.46L287.77,176.46L287.96,175.55Z"/><path d=" M288.47,176.46L287.96,175.55L288.47,175.55Z"/><path d=" M287.77,176.46L287.18,176.46L287.53,175.55Z"/><path d=" M287.77,176.46L287.53,175.55L287.96,175.55Z"/><path d=" M287.18,176.46L286.78,176.46L287.24,175.55Z"/><path d=" M287.18,176.46L287.24,175.55L287.53,175.55Z"/><path d=" M286.78,176.46L286.64,176.46L287.13,175.55Z"/><path d=" M286.78,176.46L287.13,175.55L287.24,175.55Z"/><path d=" M287.13,175.55L287.24,175.55L287.79,174.65Z"/><path d=" M287.13,175.55L287.79,174.65L287.74,174.65Z"/><path d=" M287.24,175.55L287.53,175.55L287.95,174.65Z"/><path d=" M287.24,175.55L287.95,174.65L287.79,174.65Z"/><path d=" M287.53,175.55L287.96,175.55L288.19,174.65Z"/><path d=" M287.53,175.55L288.19,174.65L287.95,174.65Z"/><path d=" M287.96,175.55L288.47,175.55L288.47,174.65Z"/><path d=" M287.96,175.55L288.47,174.65L288.19,174.65Z"/><path d=" M288.47,175.55L288.98,175.55L288.75,174.65Z"/><path d=" M288.47,175.55L288.75,174.65L288.47,174.65Z"/><path d=" M288.98,175.55L289.42,175.55L288.99,174.65Z"/><path d=" M288.98,175.55L288.99,174.65L288.75,174.65Z"/><path d=" M289.42,175.55L289.71,175.55L289.15,174.65Z"/><path d=" M289.42,175.55L289.15,174.65L288.99,174.65Z"/><path d=" M289.71,175.55L289.81,175.55L289.21,174.65Z"/><path d=" M289.71,175.55L289.21,174.65L289.15,174.65Z"/><path d=" M289.81,175.55L289.71,175.55L289.15,174.65Z"/><path d=" M289.81,175.55L289.15,174.65L289.21,174.65Z"/><path d=" M289.71,175.55L289.42,175.55L288.99,174.65Z"/><path d=" M289.71,175.55L288.99,174.65L289.15,174.65Z"/><path d=" M289.42,175.55L288.98,175.55L288.75,174.65Z"/><path d=" M289.42,175.55L288.75,174.65L288.99,174.65Z"/><path d=" M288.98,175.55L288.47,175.55L288.47,174.65Z"/><path d=" M288.98,175.55L288.47,174.65L288.75,174.65Z"/><path d=" M288.47,175.55L287.96,175.55L288.19,174.65Z"/><path d=" M288.47,175.55L288.19,174.65L288.47,174.65Z"/><path d=" M287.96,175.55L287.53,175.55L287.95,174.65Z"/><path d=" M287.96,175.55L287.95,174.65L288.19,174.65Z"/><path d=" M287.53,175.55L287.24,175.55L287.79,174.65Z"/><path d=" M287.53,175.55L287.79,174.65L287.95,174.65Z"/><path d=" M287.24,175.55L287.13,175.55L287.74,174.65Z"/><path d=" M287.24,175.55L287.74,174.65L287.79,174.65Z"/><path d=" M287.74,174.65L287.79,174.65L288.4,173.75Z"/><path d=" M287.74,174.65L288.4,173.75L288.4,173.75Z"/><path d=" M287.79,174.65L287.95,174.65L288.42,173.75Z"/><path d=" M287.79,174.65L288.42,173.75L288.4,173.75Z"/><path d=" M287.95,174.65L288.19,174.65L288.44,173.75Z"/><path d=" M287.95,174.65L288.44,173.75L288.42,173.75Z"/><path d=" M288.19,174.65L288.47,174.65L288.47,173.75Z"/><path d=" M288.19,174.65L288.47,173.75L288.44,173.75Z"/><path d=" M288.47,174.65L288.75,174.65L288.5,173.75Z"/><path d=" M288.47,174.65L288.5,173.75L288.47,173.75Z"/><path d=" M288.75,174.65L288.99,174.65L288.52,173.75Z"/><path d=" M288.75,174.65L288.52,173.75L288.5,173.75Z"/><path d=" M288.99,174.65L289.15,174.65L288.54,173.75Z"/><path d=" M288.99,174.65L288.54,173.75L288.52,173.75Z"/><path d=" M289.15,174.65L289.21,174.65L288.54,173.75Z"/><path d=" M289.15,174.65L288.54,173.75L288.54,173.75Z"/><path d=" M289.21,174.65L289.15,174.65L288.54,173.75Z"/><path d=" M289.21,174.65L288.54,173.75L288.54,173.75Z"/><path d=" M289.15,174.65L288.99,174.65L288.52,173.75Z"/><path d=" M289.15,174.65L288.52,173.75L288.54,173.75Z"/><path d=" M288.99,174.65L288.75,174.65L288.5,173.75Z"/><path d=" M288.99,174.65L288.5,173.75L288.52,173.75Z"/><path d=" M288.75,174.65L288.47,174.65L288.47,173.75Z"/><path d=" M288.75,174.65L288.47,173.75L288.5,173.75Z"/><path d=" M288.47,174.65L288.19,174.65L288.44,173.75Z"/><path d=" M288.47,174.65L288.44,173.75L288.47,173.75Z"/><path d=" M288.19,174.65L287.95,174.65L288.42,173.75Z"/><path d=" M288.19,174.65L288.42,173.75L288.44,173.75Z"/><path d=" M287.95,174.65L287.79,174.65L288.4,173.75Z"/><path d=" M287.95,174.65L288.4,173.75L288.42,173.75Z"/><path d=" M287.79,174.65L287.74,174.65L288.4,173.75Z"/><path d=" M287.79,174.65L288.4,173.75L288.4,173.75Z"/><path d=" M288.47,180.98L286.47,180.98L286.3,180.98Z"/><path d=" M288.47,173.75L288.4,173.75L288.4,173.75Z"/><path d=" M288.47,180.98L286.94,180.98L286.47,180.98Z"/><path d=" M288.47,173.75L288.4,173.75L288.42,173.75Z"/><path d=" M288.47,180.98L287.64,180.98L286.94,180.98Z"/><path d=" M288.47,173.75L288.42,173.75L288.44,173.75Z"/><path d=" M288.47,180.98L288.47,180.98L287.64,180.98Z"/><path d=" M288.47,173.75L288.44,173.75L288.47,173.75Z"/><path d=" M288.47,180.98L289.3,180.98L288.47,180.98Z"/><path d=" M288.47,173.75L288.47,173.75L288.5,173.75Z"/><path d=" M288.47,180.98L290.01,180.98L289.3,180.98Z"/><path d=" M288.47,173.75L288.5,173.75L288.52,173.75Z"/><path d=" M288.47,180.98L290.48,180.98L290.01,180.98Z"/><path d=" M288.47,173.75L288.52,173.75L288.54,173.75Z"/><path d=" M288.47,180.98L290.64,180.98L290.48,180.98Z"/><path d=" M288.47,173.75L288.54,173.75L288.54,173.75Z"/><path d=" M288.47,180.98L290.48,180.98L290.64,180.98Z"/><path d=" M288.47,173.75L288.54,173.75L288.54,173.75Z"/><path d=" M288.47,180.98L290.01,180.98L290.48,180.98Z"/><path d=" M288.47,173.75L288.54,173.75L288.52,173.75Z"/><path d=" M288.47,180.98L289.3,180.98L290.01,180.98Z"/><path d=" M288.47,173.75L288.52,173.75L288.5,173.75Z"/><path d=" M288.47,180.98L288.47,180.98L289.3,180.98Z"/><path d=" M288.47,173.75L288.5,173.75L288.47,173.75Z"/><path d=" M288.47,180.98L287.64,180.98L288.47,180.98Z"/><path d=" M288.47,173.75L288.47,173.75L288.44,173.75Z"/><path d=" M288.47,180.98L286.94,180.98L287.64,180.98Z"/><path d=" M288.47,173.75L288.44,173.75L288.42,173.75Z"/><path d=" M288.47,180.98L286.47,180.98L286.94,180.98Z"/><path d=" M288.47,173.75L288.42,173.75L288.4,173.75Z"/><path d=" M288.47,180.98L286.3,180.98L286.47,180.98Z"/><path d=" M288.47,173.75L288.4,173.75L288.4,173.75Z"/><path d=" M288.62,180.16L288.6,180.97L280.45,180.84Z"/><path d=" M288.62,180.16L280.45,180.84L280.91,180.48Z"/><path d=" M288.6,180.97L288.59,182.28L279.73,181.66Z"/><path d=" M288.6,180.97L279.73,181.66L280.45,180.84Z"/><path d=" M288.59,182.28L288.59,183.41L279.11,182.46Z"/><path d=" M288.59,182.28L279.11,182.46L279.73,181.66Z"/><path d=" M288.59,183.41L288.62,182.28L279.75,181.89Z"/><path d=" M288.59,183.41L279.75,181.89L279.11,182.46Z"/><path d=" M288.62,182.28L288.63,180.98L280.47,181.12Z"/><path d=" M288.62,182.28L280.47,181.12L279.75,181.89Z"/><path d=" M288.63,180.98L288.62,180.16L280.91,180.48Z"/><path d=" M288.63,180.98L280.91,180.48L280.47,181.12Z"/><path d=" M288.62,180.16L288.59,182.28L288.6,180.97Z"/><path d=" M280.91,180.48L280.45,180.84L279.73,181.66Z"/><path d=" M288.62,180.16L288.59,183.41L288.59,182.28Z"/><path d=" M280.91,180.48L279.73,181.66L279.11,182.46Z"/><path d=" M288.62,180.16L288.62,182.28L288.59,183.41Z"/><path d=" M280.91,180.48L279.11,182.46L279.75,181.89Z"/><path d=" M288.62,180.16L288.63,180.98L288.62,182.28Z"/><path d=" M280.91,180.48L279.75,181.89L280.47,181.12Z"/><path d=" M289.08,180.16L289.01,180.97L284.32,180.84Z"/><path d=" M289.08,180.16L284.32,180.84L285.7,180.48Z"/><path d=" M289.01,180.97L288.99,182.28L282.17,181.66Z"/><path d=" M289.01,180.97L282.17,181.66L284.32,180.84Z"/><path d=" M288.99,182.28L289,183.41L280.3,182.46Z"/><path d=" M288.99,182.28L280.3,182.46L282.17,181.66Z"/><path d=" M289,183.41L289.07,182.28L282.22,181.89Z"/><path d=" M289,183.41L282.22,181.89L280.3,182.46Z"/><path d=" M289.07,182.28L289.11,180.98L284.38,181.12Z"/><path d=" M289.07,182.28L284.38,181.12L282.22,181.89Z"/><path d=" M289.11,180.98L289.08,180.16L285.7,180.48Z"/><path d=" M289.11,180.98L285.7,180.48L284.38,181.12Z"/><path d=" M289.08,180.16L288.99,182.28L289.01,180.97Z"/><path d=" M285.7,180.48L284.32,180.84L282.17,181.66Z"/><path d=" M289.08,180.16L289,183.41L288.99,182.28Z"/><path d=" M285.7,180.48L282.17,181.66L280.3,182.46Z"/><path d=" M289.08,180.16L289.07,182.28L289,183.41Z"/><path d=" M285.7,180.48L280.3,182.46L282.22,181.89Z"/><path d=" M289.08,180.16L289.11,180.98L289.07,182.28Z"/><path d=" M285.7,180.48L282.22,181.89L284.38,181.12Z"/><path d=" M289.3,180.16L289.21,180.97L289.78,180.84Z"/><path d=" M289.3,180.16L289.78,180.84L291.55,180.48Z"/><path d=" M289.21,180.97L289.19,182.28L287.01,181.66Z"/><path d=" M289.21,180.97L287.01,181.66L289.78,180.84Z"/><path d=" M289.19,182.28L289.21,183.41L284.61,182.46Z"/><path d=" M289.19,182.28L284.61,182.46L287.01,181.66Z"/><path d=" M289.21,183.41L289.3,182.28L287.07,181.89Z"/><path d=" M289.21,183.41L287.07,181.89L284.61,182.46Z"/><path d=" M289.3,182.28L289.34,180.98L289.86,181.12Z"/><path d=" M289.3,182.28L289.86,181.12L287.07,181.89Z"/><path d=" M289.34,180.98L289.3,180.16L291.55,180.48Z"/><path d=" M289.34,180.98L291.55,180.48L289.86,181.12Z"/><path d=" M289.3,180.16L289.19,182.28L289.21,180.97Z"/><path d=" M291.55,180.48L289.78,180.84L287.01,181.66Z"/><path d=" M289.3,180.16L289.21,183.41L289.19,182.28Z"/><path d=" M291.55,180.48L287.01,181.66L284.61,182.46Z"/><path d=" M289.3,180.16L289.3,182.28L289.21,183.41Z"/><path d=" M291.55,180.48L284.61,182.46L287.07,181.89Z"/><path d=" M289.3,180.16L289.34,180.98L289.3,182.28Z"/><path d=" M291.55,180.48L287.07,181.89L289.86,181.12Z"/><path d=" M289.21,180.16L289.14,180.97L294.73,180.84Z"/><path d=" M289.21,180.16L294.73,180.84L296.22,180.48Z"/><path d=" M289.14,180.97L289.12,182.28L292.41,181.66Z"/><path d=" M289.14,180.97L292.41,181.66L294.73,180.84Z"/><path d=" M289.12,182.28L289.13,183.41L290.39,182.46Z"/><path d=" M289.12,182.28L290.39,182.46L292.41,181.66Z"/><path d=" M289.13,183.41L289.21,182.28L292.46,181.89Z"/><path d=" M289.13,183.41L292.46,181.89L290.39,182.46Z"/><path d=" M289.21,182.28L289.25,180.98L294.8,181.12Z"/><path d=" M289.21,182.28L294.8,181.12L292.46,181.89Z"/><path d=" M289.25,180.98L289.21,180.16L296.22,180.48Z"/><path d=" M289.25,180.98L296.22,180.48L294.8,181.12Z"/><path d=" M289.21,180.16L289.12,182.28L289.14,180.97Z"/><path d=" M296.22,180.48L294.73,180.84L292.41,181.66Z"/><path d=" M289.21,180.16L289.13,183.41L289.12,182.28Z"/><path d=" M296.22,180.48L292.41,181.66L290.39,182.46Z"/><path d=" M289.21,180.16L289.21,182.28L289.13,183.41Z"/><path d=" M296.22,180.48L290.39,182.46L292.46,181.89Z"/><path d=" M289.21,180.16L289.25,180.98L289.21,182.28Z"/><path d=" M296.22,180.48L292.46,181.89L294.8,181.12Z"/><path d=" M288.84,180.16L288.81,180.97L297.3,180.84Z"/><path d=" M288.84,180.16L297.3,180.84L297.93,180.48Z"/><path d=" M288.81,180.97L288.8,182.28L296.3,181.66Z"/><path d=" M288.81,180.97L296.3,181.66L297.3,180.84Z"/><path d=" M288.8,182.28L288.8,183.41L295.44,182.46Z"/><path d=" M288.8,182.28L295.44,182.46L296.3,181.66Z"/><path d=" M288.8,183.41L288.84,182.28L296.33,181.89Z"/><path d=" M288.8,183.41L296.33,181.89L295.44,182.46Z"/><path d=" M288.84,182.28L288.85,180.98L297.33,181.12Z"/><path d=" M288.84,182.28L297.33,181.12L296.33,181.89Z"/><path d=" M288.85,180.98L288.84,180.16L297.93,180.48Z"/><path d=" M288.85,180.98L297.93,180.48L297.33,181.12Z"/><path d=" M288.84,180.16L288.8,182.28L288.81,180.97Z"/><path d=" M297.93,180.48L297.3,180.84L296.3,181.66Z"/><path d=" M288.84,180.16L288.8,183.41L288.8,182.28Z"/><path d=" M297.93,180.48L296.3,181.66L295.44,182.46Z"/><path d=" M288.84,180.16L288.84,182.28L288.8,183.41Z"/><path d=" M297.93,180.48L295.44,182.46L296.33,181.89Z"/><path d=" M288.84,180.16L288.85,180.98L288.84,182.28Z"/><path d=" M297.93,180.48L296.33,181.89L297.33,181.12Z"/><path d=" M288.32,180.16L288.35,180.97L296.49,180.84Z"/><path d=" M288.32,180.16L296.49,180.84L296.03,180.48Z"/><path d=" M288.35,180.97L288.35,182.28L297.21,181.66Z"/><path d=" M288.35,180.97L297.21,181.66L296.49,180.84Z"/><path d=" M288.35,182.28L288.35,183.41L297.83,182.46Z"/><path d=" M288.35,182.28L297.83,182.46L297.21,181.66Z"/><path d=" M288.35,183.41L288.33,182.28L297.19,181.89Z"/><path d=" M288.35,183.41L297.19,181.89L297.83,182.46Z"/><path d=" M288.33,182.28L288.31,180.98L296.47,181.12Z"/><path d=" M288.33,182.28L296.47,181.12L297.19,181.89Z"/><path d=" M288.31,180.98L288.32,180.16L296.03,180.48Z"/><path d=" M288.31,180.98L296.03,180.48L296.47,181.12Z"/><path d=" M288.32,180.16L288.35,182.28L288.35,180.97Z"/><path d=" M296.03,180.48L296.49,180.84L297.21,181.66Z"/><path d=" M288.32,180.16L288.35,183.41L288.35,182.28Z"/><path d=" M296.03,180.48L297.21,181.66L297.83,182.46Z"/><path d=" M288.32,180.16L288.33,182.28L288.35,183.41Z"/><path d=" M296.03,180.48L297.83,182.46L297.19,181.89Z"/><path d=" M288.32,180.16L288.31,180.98L288.33,182.28Z"/><path d=" M296.03,180.48L297.19,181.89L296.47,181.12Z"/><path d=" M287.87,180.16L287.94,180.97L292.62,180.84Z"/><path d=" M287.87,180.16L292.62,180.84L291.24,180.48Z"/><path d=" M287.94,180.97L287.96,182.28L294.78,181.66Z"/><path d=" M287.94,180.97L294.78,181.66L292.62,180.84Z"/><path d=" M287.96,182.28L287.94,183.41L296.64,182.46Z"/><path d=" M287.96,182.28L296.64,182.46L294.78,181.66Z"/><path d=" M287.94,183.41L287.87,182.28L294.72,181.89Z"/><path d=" M287.94,183.41L294.72,181.89L296.64,182.46Z"/><path d=" M287.87,182.28L287.83,180.98L292.56,181.12Z"/><path d=" M287.87,182.28L292.56,181.12L294.72,181.89Z"/><path d=" M287.83,180.98L287.87,180.16L291.24,180.48Z"/><path d=" M287.83,180.98L291.24,180.48L292.56,181.12Z"/><path d=" M287.87,180.16L287.96,182.28L287.94,180.97Z"/><path d=" M291.24,180.48L292.62,180.84L294.78,181.66Z"/><path d=" M287.87,180.16L287.94,183.41L287.96,182.28Z"/><path d=" M291.24,180.48L294.78,181.66L296.64,182.46Z"/><path d=" M287.87,180.16L287.87,182.28L287.94,183.41Z"/><path d=" M291.24,180.48L296.64,182.46L294.72,181.89Z"/><path d=" M287.87,180.16L287.83,180.98L287.87,182.28Z"/><path d=" M291.24,180.48L294.72,181.89L292.56,181.12Z"/><path d=" M287.64,180.16L287.73,180.97L287.17,180.84Z"/><path d=" M287.64,180.16L287.17,180.84L285.39,180.48Z"/><path d=" M287.73,180.97L287.75,182.28L289.94,181.66Z"/><path d=" M287.73,180.97L289.94,181.66L287.17,180.84Z"/><path d=" M287.75,182.28L287.74,183.41L292.33,182.46Z"/><path d=" M287.75,182.28L292.33,182.46L289.94,181.66Z"/><path d=" M287.74,183.41L287.65,182.28L289.87,181.89Z"/><path d=" M287.74,183.41L289.87,181.89L292.33,182.46Z"/><path d=" M287.65,182.28L287.6,180.98L287.09,181.12Z"/><path d=" M287.65,182.28L287.09,181.12L289.87,181.89Z"/><path d=" M287.6,180.98L287.64,180.16L285.39,180.48Z"/><path d=" M287.6,180.98L285.39,180.48L287.09,181.12Z"/><path d=" M287.64,180.16L287.75,182.28L287.73,180.97Z"/><path d=" M285.39,180.48L287.17,180.84L289.94,181.66Z"/><path d=" M287.64,180.16L287.74,183.41L287.75,182.28Z"/><path d=" M285.39,180.48L289.94,181.66L292.33,182.46Z"/><path d=" M287.64,180.16L287.65,182.28L287.74,183.41Z"/><path d=" M285.39,180.48L292.33,182.46L289.87,181.89Z"/><path d=" M287.64,180.16L287.6,180.98L287.65,182.28Z"/><path d=" M285.39,180.48L289.87,181.89L287.09,181.12Z"/><path d=" M287.73,180.16L287.8,180.97L282.21,180.84Z"/><path d=" M287.73,180.16L282.21,180.84L280.72,180.48Z"/><path d=" M287.8,180.97L287.83,182.28L284.54,181.66Z"/><path d=" M287.8,180.97L284.54,181.66L282.21,180.84Z"/><path d=" M287.83,182.28L287.81,183.41L286.55,182.46Z"/><path d=" M287.83,182.28L286.55,182.46L284.54,181.66Z"/><path d=" M287.81,183.41L287.74,182.28L284.48,181.89Z"/><path d=" M287.81,183.41L284.48,181.89L286.55,182.46Z"/><path d=" M287.74,182.28L287.7,180.98L282.14,181.12Z"/><path d=" M287.74,182.28L282.14,181.12L284.48,181.89Z"/><path d=" M287.7,180.98L287.73,180.16L280.72,180.48Z"/><path d=" M287.7,180.98L280.72,180.48L282.14,181.12Z"/><path d=" M287.73,180.16L287.83,182.28L287.8,180.97Z"/><path d=" M280.72,180.48L282.21,180.84L284.54,181.66Z"/><path d=" M287.73,180.16L287.81,183.41L287.83,182.28Z"/><path d=" M280.72,180.48L284.54,181.66L286.55,182.46Z"/><path d=" M287.73,180.16L287.74,182.28L287.81,183.41Z"/><path d=" M280.72,180.48L286.55,182.46L284.48,181.89Z"/><path d=" M287.73,180.16L287.7,180.98L287.74,182.28Z"/><path d=" M280.72,180.48L284.48,181.89L282.14,181.12Z"/><path d=" M288.1,180.16L288.14,180.97L279.65,180.84Z"/><path d=" M288.1,180.16L279.65,180.84L279.01,180.48Z"/><path d=" M288.14,180.97L288.15,182.28L280.64,181.66Z"/><path d=" M288.14,180.97L280.64,181.66L279.65,180.84Z"/><path d=" M288.15,182.28L288.14,183.41L281.5,182.46Z"/><path d=" M288.15,182.28L281.5,182.46L280.64,181.66Z"/><path d=" M288.14,183.41L288.11,182.28L280.62,181.89Z"/><path d=" M288.14,183.41L280.62,181.89L281.5,182.46Z"/><path d=" M288.11,182.28L288.09,180.98L279.62,181.12Z"/><path d=" M288.11,182.28L279.62,181.12L280.62,181.89Z"/><path d=" M288.09,180.98L288.1,180.16L279.01,180.48Z"/><path d=" M288.09,180.98L279.01,180.48L279.62,181.12Z"/><path d=" M288.1,180.16L288.15,182.28L288.14,180.97Z"/><path d=" M279.01,180.48L279.65,180.84L280.64,181.66Z"/><path d=" M288.1,180.16L288.14,183.41L288.15,182.28Z"/><path d=" M279.01,180.48L280.64,181.66L281.5,182.46Z"/><path d=" M288.1,180.16L288.11,182.28L288.14,183.41Z"/><path d=" M279.01,180.48L281.5,182.46L280.62,181.89Z"/><path d=" M288.1,180.16L288.09,180.98L288.11,182.28Z"/><path d=" M279.01,180.48L280.62,181.89L279.62,181.12Z"/><path d=" M157.97,197.88L157.77,197.88L157.77,180.98Z"/><path d=" M157.97,197.88L157.77,180.98L157.97,180.98Z"/><path d=" M157.77,197.88L157.2,197.88L157.2,180.98Z"/><path d=" M157.77,197.88L157.2,180.98L157.77,180.98Z"/><path d=" M157.2,197.88L156.35,197.88L156.35,180.98Z"/><path d=" M157.2,197.88L156.35,180.98L157.2,180.98Z"/><path d=" M156.35,197.88L155.35,197.88L155.35,180.98Z"/><path d=" M156.35,197.88L155.35,180.98L156.35,180.98Z"/><path d=" M155.35,197.88L154.35,197.88L154.35,180.98Z"/><path d=" M155.35,197.88L154.35,180.98L155.35,180.98Z"/><path d=" M154.35,197.88L153.5,197.88L153.5,180.98Z"/><path d=" M154.35,197.88L153.5,180.98L154.35,180.98Z"/><path d=" M153.5,197.88L152.93,197.88L152.93,180.98Z"/><path d=" M153.5,197.88L152.93,180.98L153.5,180.98Z"/><path d=" M152.93,197.88L152.73,197.88L152.73,180.98Z"/><path d=" M152.93,197.88L152.73,180.98L152.93,180.98Z"/><path d=" M152.73,197.88L152.93,197.88L152.93,180.98Z"/><path d=" M152.73,197.88L152.93,180.98L152.73,180.98Z"/><path d=" M152.93,197.88L153.5,197.88L153.5,180.98Z"/><path d=" M152.93,197.88L153.5,180.98L152.93,180.98Z"/><path d=" M153.5,197.88L154.35,197.88L154.35,180.98Z"/><path d=" M153.5,197.88L154.35,180.98L153.5,180.98Z"/><path d=" M154.35,197.88L155.35,197.88L155.35,180.98Z"/><path d=" M154.35,197.88L155.35,180.98L154.35,180.98Z"/><path d=" M155.35,197.88L156.35,197.88L156.35,180.98Z"/><path d=" M155.35,197.88L156.35,180.98L155.35,180.98Z"/><path d=" M156.35,197.88L157.2,197.88L157.2,180.98Z"/><path d=" M156.35,197.88L157.2,180.98L156.35,180.98Z"/><path d=" M157.2,197.88L157.77,197.88L157.77,180.98Z"/><path d=" M157.2,197.88L157.77,180.98L157.2,180.98Z"/><path d=" M157.77,197.88L157.97,197.88L157.97,180.98Z"/><path d=" M157.77,197.88L157.97,180.98L157.77,180.98Z"/><path d=" M155.35,197.88L157.77,197.88L157.97,197.88Z"/><path d=" M155.35,180.98L157.97,180.98L157.77,180.98Z"/><path d=" M155.35,197.88L157.2,197.88L157.77,197.88Z"/><path d=" M155.35,180.98L157.77,180.98L157.2,180.98Z"/><path d=" M155.35,197.88L156.35,197.88L157.2,197.88Z"/><path d=" M155.35,180.98L157.2,180.98L156.35,180.98Z"/><path d=" M155.35,197.88L155.35,197.88L156.35,197.88Z"/><path d=" M155.35,180.98L156.35,180.98L155.35,180.98Z"/><path d=" M155.35,197.88L154.35,197.88L155.35,197.88Z"/><path d=" M155.35,180.98L155.35,180.98L154.35,180.98Z"/><path d=" M155.35,197.88L153.5,197.88L154.35,197.88Z"/><path d=" M155.35,180.98L154.35,180.98L153.5,180.98Z"/><path d=" M155.35,197.88L152.93,197.88L153.5,197.88Z"/><path d=" M155.35,180.98L153.5,180.98L152.93,180.98Z"/><path d=" M155.35,197.88L152.73,197.88L152.93,197.88Z"/><path d=" M155.35,180.98L152.93,180.98L152.73,180.98Z"/><path d=" M155.35,197.88L152.93,197.88L152.73,197.88Z"/><path d=" M155.35,180.98L152.73,180.98L152.93,180.98Z"/><path d=" M155.35,197.88L153.5,197.88L152.93,197.88Z"/><path d=" M155.35,180.98L152.93,180.98L153.5,180.98Z"/><path d=" M155.35,197.88L154.35,197.88L153.5,197.88Z"/><path d=" M155.35,180.98L153.5,180.98L154.35,180.98Z"/><path d=" M155.35,197.88L155.35,197.88L154.35,197.88Z"/><path d=" M155.35,180.98L154.35,180.98L155.35,180.98Z"/><path d=" M155.35,197.88L156.35,197.88L155.35,197.88Z"/><path d=" M155.35,180.98L155.35,180.98L156.35,180.98Z"/><path d=" M155.35,197.88L157.2,197.88L156.35,197.88Z"/><path d=" M155.35,180.98L156.35,180.98L157.2,180.98Z"/><path d=" M155.35,197.88L157.77,197.88L157.2,197.88Z"/><path d=" M155.35,180.98L157.2,180.98L157.77,180.98Z"/><path d=" M155.35,197.88L157.97,197.88L157.77,197.88Z"/><path d=" M155.35,180.98L157.77,180.98L157.97,180.98Z"/><path d=" M157.52,180.98L157.35,180.98L157.48,180.07Z"/><path d=" M157.52,180.98L157.48,180.07L157.66,180.07Z"/><path d=" M157.35,180.98L156.88,180.98L156.98,180.07Z"/><path d=" M157.35,180.98L156.98,180.07L157.48,180.07Z"/><path d=" M156.88,180.98L156.18,180.98L156.23,180.07Z"/><path d=" M156.88,180.98L156.23,180.07L156.98,180.07Z"/><path d=" M156.18,180.98L155.35,180.98L155.35,180.07Z"/><path d=" M156.18,180.98L155.35,180.07L156.23,180.07Z"/><path d=" M155.35,180.98L154.52,180.98L154.47,180.07Z"/><path d=" M155.35,180.98L154.47,180.07L155.35,180.07Z"/><path d=" M154.52,180.98L153.82,180.98L153.72,180.07Z"/><path d=" M154.52,180.98L153.72,180.07L154.47,180.07Z"/><path d=" M153.82,180.98L153.35,180.98L153.22,180.07Z"/><path d=" M153.82,180.98L153.22,180.07L153.72,180.07Z"/><path d=" M153.35,180.98L153.18,180.98L153.04,180.07Z"/><path d=" M153.35,180.98L153.04,180.07L153.22,180.07Z"/><path d=" M153.18,180.98L153.35,180.98L153.22,180.07Z"/><path d=" M153.18,180.98L153.22,180.07L153.04,180.07Z"/><path d=" M153.35,180.98L153.82,180.98L153.72,180.07Z"/><path d=" M153.35,180.98L153.72,180.07L153.22,180.07Z"/><path d=" M153.82,180.98L154.52,180.98L154.47,180.07Z"/><path d=" M153.82,180.98L154.47,180.07L153.72,180.07Z"/><path d=" M154.52,180.98L155.35,180.98L155.35,180.07Z"/><path d=" M154.52,180.98L155.35,180.07L154.47,180.07Z"/><path d=" M155.35,180.98L156.18,180.98L156.23,180.07Z"/><path d=" M155.35,180.98L156.23,180.07L155.35,180.07Z"/><path d=" M156.18,180.98L156.88,180.98L156.98,180.07Z"/><path d=" M156.18,180.98L156.98,180.07L156.23,180.07Z"/><path d=" M156.88,180.98L157.35,180.98L157.48,180.07Z"/><path d=" M156.88,180.98L157.48,180.07L156.98,180.07Z"/><path d=" M157.35,180.98L157.52,180.98L157.66,180.07Z"/><path d=" M157.35,180.98L157.66,180.07L157.48,180.07Z"/><path d=" M157.66,180.07L157.48,180.07L157.55,179.17Z"/><path d=" M157.66,180.07L157.55,179.17L157.74,179.17Z"/><path d=" M157.48,180.07L156.98,180.07L157.04,179.17Z"/><path d=" M157.48,180.07L157.04,179.17L157.55,179.17Z"/><path d=" M156.98,180.07L156.23,180.07L156.26,179.17Z"/><path d=" M156.98,180.07L156.26,179.17L157.04,179.17Z"/><path d=" M156.23,180.07L155.35,180.07L155.35,179.17Z"/><path d=" M156.23,180.07L155.35,179.17L156.26,179.17Z"/><path d=" M155.35,180.07L154.47,180.07L154.44,179.17Z"/><path d=" M155.35,180.07L154.44,179.17L155.35,179.17Z"/><path d=" M154.47,180.07L153.72,180.07L153.66,179.17Z"/><path d=" M154.47,180.07L153.66,179.17L154.44,179.17Z"/><path d=" M153.72,180.07L153.22,180.07L153.15,179.17Z"/><path d=" M153.72,180.07L153.15,179.17L153.66,179.17Z"/><path d=" M153.22,180.07L153.04,180.07L152.96,179.17Z"/><path d=" M153.22,180.07L152.96,179.17L153.15,179.17Z"/><path d=" M153.04,180.07L153.22,180.07L153.15,179.17Z"/><path d=" M153.04,180.07L153.15,179.17L152.96,179.17Z"/><path d=" M153.22,180.07L153.72,180.07L153.66,179.17Z"/><path d=" M153.22,180.07L153.66,179.17L153.15,179.17Z"/><path d=" M153.72,180.07L154.47,180.07L154.44,179.17Z"/><path d=" M153.72,180.07L154.44,179.17L153.66,179.17Z"/><path d=" M154.47,180.07L155.35,180.07L155.35,179.17Z"/><path d=" M154.47,180.07L155.35,179.17L154.44,179.17Z"/><path d=" M155.35,180.07L156.23,180.07L156.26,179.17Z"/><path d=" M155.35,180.07L156.26,179.17L155.35,179.17Z"/><path d=" M156.23,180.07L156.98,180.07L157.04,179.17Z"/><path d=" M156.23,180.07L157.04,179.17L156.26,179.17Z"/><path d=" M156.98,180.07L157.48,180.07L157.55,179.17Z"/><path d=" M156.98,180.07L157.55,179.17L157.04,179.17Z"/><path d=" M157.48,180.07L157.66,180.07L157.74,179.17Z"/><path d=" M157.48,180.07L157.74,179.17L157.55,179.17Z"/><path d=" M157.74,179.17L157.55,179.17L157.52,178.27Z"/><path d=" M157.74,179.17L157.52,178.27L157.7,178.27Z"/><path d=" M157.55,179.17L157.04,179.17L157.01,178.27Z"/><path d=" M157.55,179.17L157.01,178.27L157.52,178.27Z"/><path d=" M157.04,179.17L156.26,179.17L156.25,178.27Z"/><path d=" M157.04,179.17L156.25,178.27L157.01,178.27Z"/><path d=" M156.26,179.17L155.35,179.17L155.35,178.27Z"/><path d=" M156.26,179.17L155.35,178.27L156.25,178.27Z"/><path d=" M155.35,179.17L154.44,179.17L154.45,178.27Z"/><path d=" M155.35,179.17L154.45,178.27L155.35,178.27Z"/><path d=" M154.44,179.17L153.66,179.17L153.69,178.27Z"/><path d=" M154.44,179.17L153.69,178.27L154.45,178.27Z"/><path d=" M153.66,179.17L153.15,179.17L153.18,178.27Z"/><path d=" M153.66,179.17L153.18,178.27L153.69,178.27Z"/><path d=" M153.15,179.17L152.96,179.17L153,178.27Z"/><path d=" M153.15,179.17L153,178.27L153.18,178.27Z"/><path d=" M152.96,179.17L153.15,179.17L153.18,178.27Z"/><path d=" M152.96,179.17L153.18,178.27L153,178.27Z"/><path d=" M153.15,179.17L153.66,179.17L153.69,178.27Z"/><path d=" M153.15,179.17L153.69,178.27L153.18,178.27Z"/><path d=" M153.66,179.17L154.44,179.17L154.45,178.27Z"/><path d=" M153.66,179.17L154.45,178.27L153.69,178.27Z"/><path d=" M154.44,179.17L155.35,179.17L155.35,178.27Z"/><path d=" M154.44,179.17L155.35,178.27L154.45,178.27Z"/><path d=" M155.35,179.17L156.26,179.17L156.25,178.27Z"/><path d=" M155.35,179.17L156.25,178.27L155.35,178.27Z"/><path d=" M156.26,179.17L157.04,179.17L157.01,178.27Z"/><path d=" M156.26,179.17L157.01,178.27L156.25,178.27Z"/><path d=" M157.04,179.17L157.55,179.17L157.52,178.27Z"/><path d=" M157.04,179.17L157.52,178.27L157.01,178.27Z"/><path d=" M157.55,179.17L157.74,179.17L157.7,178.27Z"/><path d=" M157.55,179.17L157.7,178.27L157.52,178.27Z"/><path d=" M157.7,178.27L157.52,178.27L157.35,177.36Z"/><path d=" M157.7,178.27L157.35,177.36L157.52,177.36Z"/><path d=" M157.52,178.27L157.01,178.27L156.88,177.36Z"/><path d=" M157.52,178.27L156.88,177.36L157.35,177.36Z"/><path d=" M157.01,178.27L156.25,178.27L156.18,177.36Z"/><path d=" M157.01,178.27L156.18,177.36L156.88,177.36Z"/><path d=" M156.25,178.27L155.35,178.27L155.35,177.36Z"/><path d=" M156.25,178.27L155.35,177.36L156.18,177.36Z"/><path d=" M155.35,178.27L154.45,178.27L154.52,177.36Z"/><path d=" M155.35,178.27L154.52,177.36L155.35,177.36Z"/><path d=" M154.45,178.27L153.69,178.27L153.82,177.36Z"/><path d=" M154.45,178.27L153.82,177.36L154.52,177.36Z"/><path d=" M153.69,178.27L153.18,178.27L153.35,177.36Z"/><path d=" M153.69,178.27L153.35,177.36L153.82,177.36Z"/><path d=" M153.18,178.27L153,178.27L153.18,177.36Z"/><path d=" M153.18,178.27L153.18,177.36L153.35,177.36Z"/><path d=" M153,178.27L153.18,178.27L153.35,177.36Z"/><path d=" M153,178.27L153.35,177.36L153.18,177.36Z"/><path d=" M153.18,178.27L153.69,178.27L153.82,177.36Z"/><path d=" M153.18,178.27L153.82,177.36L153.35,177.36Z"/><path d=" M153.69,178.27L154.45,178.27L154.52,177.36Z"/><path d=" M153.69,178.27L154.52,177.36L153.82,177.36Z"/><path d=" M154.45,178.27L155.35,178.27L155.35,177.36Z"/><path d=" M154.45,178.27L155.35,177.36L154.52,177.36Z"/><path d=" M155.35,178.27L156.25,178.27L156.18,177.36Z"/><path d=" M155.35,178.27L156.18,177.36L155.35,177.36Z"/><path d=" M156.25,178.27L157.01,178.27L156.88,177.36Z"/><path d=" M156.25,178.27L156.88,177.36L156.18,177.36Z"/><path d=" M157.01,178.27L157.52,178.27L157.35,177.36Z"/><path d=" M157.01,178.27L157.35,177.36L156.88,177.36Z"/><path d=" M157.52,178.27L157.7,178.27L157.52,177.36Z"/><path d=" M157.52,178.27L157.52,177.36L157.35,177.36Z"/><path d=" M157.52,177.36L157.35,177.36L157.04,176.46Z"/><path d=" M157.52,177.36L157.04,176.46L157.18,176.46Z"/><path d=" M157.35,177.36L156.88,177.36L156.64,176.46Z"/><path d=" M157.35,177.36L156.64,176.46L157.04,176.46Z"/><path d=" M156.88,177.36L156.18,177.36L156.05,176.46Z"/><path d=" M156.88,177.36L156.05,176.46L156.64,176.46Z"/><path d=" M156.18,177.36L155.35,177.36L155.35,176.46Z"/><path d=" M156.18,177.36L155.35,176.46L156.05,176.46Z"/><path d=" M155.35,177.36L154.52,177.36L154.65,176.46Z"/><path d=" M155.35,177.36L154.65,176.46L155.35,176.46Z"/><path d=" M154.52,177.36L153.82,177.36L154.06,176.46Z"/><path d=" M154.52,177.36L154.06,176.46L154.65,176.46Z"/><path d=" M153.82,177.36L153.35,177.36L153.66,176.46Z"/><path d=" M153.82,177.36L153.66,176.46L154.06,176.46Z"/><path d=" M153.35,177.36L153.18,177.36L153.52,176.46Z"/><path d=" M153.35,177.36L153.52,176.46L153.66,176.46Z"/><path d=" M153.18,177.36L153.35,177.36L153.66,176.46Z"/><path d=" M153.18,177.36L153.66,176.46L153.52,176.46Z"/><path d=" M153.35,177.36L153.82,177.36L154.06,176.46Z"/><path d=" M153.35,177.36L154.06,176.46L153.66,176.46Z"/><path d=" M153.82,177.36L154.52,177.36L154.65,176.46Z"/><path d=" M153.82,177.36L154.65,176.46L154.06,176.46Z"/><path d=" M154.52,177.36L155.35,177.36L155.35,176.46Z"/><path d=" M154.52,177.36L155.35,176.46L154.65,176.46Z"/><path d=" M155.35,177.36L156.18,177.36L156.05,176.46Z"/><path d=" M155.35,177.36L156.05,176.46L155.35,176.46Z"/><path d=" M156.18,177.36L156.88,177.36L156.64,176.46Z"/><path d=" M156.18,177.36L156.64,176.46L156.05,176.46Z"/><path d=" M156.88,177.36L157.35,177.36L157.04,176.46Z"/><path d=" M156.88,177.36L157.04,176.46L156.64,176.46Z"/><path d=" M157.35,177.36L157.52,177.36L157.18,176.46Z"/><path d=" M157.35,177.36L157.18,176.46L157.04,176.46Z"/><path d=" M157.18,176.46L157.04,176.46L156.59,175.55Z"/><path d=" M157.18,176.46L156.59,175.55L156.69,175.55Z"/><path d=" M157.04,176.46L156.64,176.46L156.3,175.55Z"/><path d=" M157.04,176.46L156.3,175.55L156.59,175.55Z"/><path d=" M156.64,176.46L156.05,176.46L155.86,175.55Z"/><path d=" M156.64,176.46L155.86,175.55L156.3,175.55Z"/><path d=" M156.05,176.46L155.35,176.46L155.35,175.55Z"/><path d=" M156.05,176.46L155.35,175.55L155.86,175.55Z"/><path d=" M155.35,176.46L154.65,176.46L154.84,175.55Z"/><path d=" M155.35,176.46L154.84,175.55L155.35,175.55Z"/><path d=" M154.65,176.46L154.06,176.46L154.4,175.55Z"/><path d=" M154.65,176.46L154.4,175.55L154.84,175.55Z"/><path d=" M154.06,176.46L153.66,176.46L154.11,175.55Z"/><path d=" M154.06,176.46L154.11,175.55L154.4,175.55Z"/><path d=" M153.66,176.46L153.52,176.46L154.01,175.55Z"/><path d=" M153.66,176.46L154.01,175.55L154.11,175.55Z"/><path d=" M153.52,176.46L153.66,176.46L154.11,175.55Z"/><path d=" M153.52,176.46L154.11,175.55L154.01,175.55Z"/><path d=" M153.66,176.46L154.06,176.46L154.4,175.55Z"/><path d=" M153.66,176.46L154.4,175.55L154.11,175.55Z"/><path d=" M154.06,176.46L154.65,176.46L154.84,175.55Z"/><path d=" M154.06,176.46L154.84,175.55L154.4,175.55Z"/><path d=" M154.65,176.46L155.35,176.46L155.35,175.55Z"/><path d=" M154.65,176.46L155.35,175.55L154.84,175.55Z"/><path d=" M155.35,176.46L156.05,176.46L155.86,175.55Z"/><path d=" M155.35,176.46L155.86,175.55L155.35,175.55Z"/><path d=" M156.05,176.46L156.64,176.46L156.3,175.55Z"/><path d=" M156.05,176.46L156.3,175.55L155.86,175.55Z"/><path d=" M156.64,176.46L157.04,176.46L156.59,175.55Z"/><path d=" M156.64,176.46L156.59,175.55L156.3,175.55Z"/><path d=" M157.04,176.46L157.18,176.46L156.69,175.55Z"/><path d=" M157.04,176.46L156.69,175.55L156.59,175.55Z"/><path d=" M156.69,175.55L156.59,175.55L156.03,174.65Z"/><path d=" M156.69,175.55L156.03,174.65L156.09,174.65Z"/><path d=" M156.59,175.55L156.3,175.55L155.87,174.65Z"/><path d=" M156.59,175.55L155.87,174.65L156.03,174.65Z"/><path d=" M156.3,175.55L155.86,175.55L155.63,174.65Z"/><path d=" M156.3,175.55L155.63,174.65L155.87,174.65Z"/><path d=" M155.86,175.55L155.35,175.55L155.35,174.65Z"/><path d=" M155.86,175.55L155.35,174.65L155.63,174.65Z"/><path d=" M155.35,175.55L154.84,175.55L155.07,174.65Z"/><path d=" M155.35,175.55L155.07,174.65L155.35,174.65Z"/><path d=" M154.84,175.55L154.4,175.55L154.83,174.65Z"/><path d=" M154.84,175.55L154.83,174.65L155.07,174.65Z"/><path d=" M154.4,175.55L154.11,175.55L154.67,174.65Z"/><path d=" M154.4,175.55L154.67,174.65L154.83,174.65Z"/><path d=" M154.11,175.55L154.01,175.55L154.61,174.65Z"/><path d=" M154.11,175.55L154.61,174.65L154.67,174.65Z"/><path d=" M154.01,175.55L154.11,175.55L154.67,174.65Z"/><path d=" M154.01,175.55L154.67,174.65L154.61,174.65Z"/><path d=" M154.11,175.55L154.4,175.55L154.83,174.65Z"/><path d=" M154.11,175.55L154.83,174.65L154.67,174.65Z"/><path d=" M154.4,175.55L154.84,175.55L155.07,174.65Z"/><path d=" M154.4,175.55L155.07,174.65L154.83,174.65Z"/><path d=" M154.84,175.55L155.35,175.55L155.35,174.65Z"/><path d=" M154.84,175.55L155.35,174.65L155.07,174.65Z"/><path d=" M155.35,175.55L155.86,175.55L155.63,174.65Z"/><path d=" M155.35,175.55L155.63,174.65L155.35,174.65Z"/><path d=" M155.86,175.55L156.3,175.55L155.87,174.65Z"/><path d=" M155.86,175.55L155.87,174.65L155.63,174.65Z"/><path d=" M156.3,175.55L156.59,175.55L156.03,174.65Z"/><path d=" M156.3,175.55L156.03,174.65L155.87,174.65Z"/><path d=" M156.59,175.55L156.69,175.55L156.09,174.65Z"/><path d=" M156.59,175.55L156.09,174.65L156.03,174.65Z"/><path d=" M156.09,174.65L156.03,174.65L155.42,173.75Z"/><path d=" M156.09,174.65L155.42,173.75L155.42,173.75Z"/><path d=" M156.03,174.65L155.87,174.65L155.4,173.75Z"/><path d=" M156.03,174.65L155.4,173.75L155.42,173.75Z"/><path d=" M155.87,174.65L155.63,174.65L155.38,173.75Z"/><path d=" M155.87,174.65L155.38,173.75L155.4,173.75Z"/><path d=" M155.63,174.65L155.35,174.65L155.35,173.75Z"/><path d=" M155.63,174.65L155.35,173.75L155.38,173.75Z"/><path d=" M155.35,174.65L155.07,174.65L155.32,173.75Z"/><path d=" M155.35,174.65L155.32,173.75L155.35,173.75Z"/><path d=" M155.07,174.65L154.83,174.65L155.3,173.75Z"/><path d=" M155.07,174.65L155.3,173.75L155.32,173.75Z"/><path d=" M154.83,174.65L154.67,174.65L155.28,173.75Z"/><path d=" M154.83,174.65L155.28,173.75L155.3,173.75Z"/><path d=" M154.67,174.65L154.61,174.65L155.28,173.75Z"/><path d=" M154.67,174.65L155.28,173.75L155.28,173.75Z"/><path d=" M154.61,174.65L154.67,174.65L155.28,173.75Z"/><path d=" M154.61,174.65L155.28,173.75L155.28,173.75Z"/><path d=" M154.67,174.65L154.83,174.65L155.3,173.75Z"/><path d=" M154.67,174.65L155.3,173.75L155.28,173.75Z"/><path d=" M154.83,174.65L155.07,174.65L155.32,173.75Z"/><path d=" M154.83,174.65L155.32,173.75L155.3,173.75Z"/><path d=" M155.07,174.65L155.35,174.65L155.35,173.75Z"/><path d=" M155.07,174.65L155.35,173.75L155.32,173.75Z"/><path d=" M155.35,174.65L155.63,174.65L155.38,173.75Z"/><path d=" M155.35,174.65L155.38,173.75L155.35,173.75Z"/><path d=" M155.63,174.65L155.87,174.65L155.4,173.75Z"/><path d=" M155.63,174.65L155.4,173.75L155.38,173.75Z"/><path d=" M155.87,174.65L156.03,174.65L155.42,173.75Z"/><path d=" M155.87,174.65L155.42,173.75L155.4,173.75Z"/><path d=" M156.03,174.65L156.09,174.65L155.42,173.75Z"/><path d=" M156.03,174.65L155.42,173.75L155.42,173.75Z"/><path d=" M155.35,180.98L157.35,180.98L157.52,180.98Z"/><path d=" M155.35,173.75L155.42,173.75L155.42,173.75Z"/><path d=" M155.35,180.98L156.88,180.98L157.35,180.98Z"/><path d=" M155.35,173.75L155.42,173.75L155.4,173.75Z"/><path d=" M155.35,180.98L156.18,180.98L156.88,180.98Z"/><path d=" M155.35,173.75L155.4,173.75L155.38,173.75Z"/><path d=" M155.35,180.98L155.35,180.98L156.18,180.98Z"/><path d=" M155.35,173.75L155.38,173.75L155.35,173.75Z"/><path d=" M155.35,180.98L154.52,180.98L155.35,180.98Z"/><path d=" M155.35,173.75L155.35,173.75L155.32,173.75Z"/><path d=" M155.35,180.98L153.82,180.98L154.52,180.98Z"/><path d=" M155.35,173.75L155.32,173.75L155.3,173.75Z"/><path d=" M155.35,180.98L153.35,180.98L153.82,180.98Z"/><path d=" M155.35,173.75L155.3,173.75L155.28,173.75Z"/><path d=" M155.35,180.98L153.18,180.98L153.35,180.98Z"/><path d=" M155.35,173.75L155.28,173.75L155.28,173.75Z"/><path d=" M155.35,180.98L153.35,180.98L153.18,180.98Z"/><path d=" M155.35,173.75L155.28,173.75L155.28,173.75Z"/><path d=" M155.35,180.98L153.82,180.98L153.35,180.98Z"/><path d=" M155.35,173.75L155.28,173.75L155.3,173.75Z"/><path d=" M155.35,180.98L154.52,180.98L153.82,180.98Z"/><path d=" M155.35,173.75L155.3,173.75L155.32,173.75Z"/><path d=" M155.35,180.98L155.35,180.98L154.52,180.98Z"/><path d=" M155.35,173.75L155.32,173.75L155.35,173.75Z"/><path d=" M155.35,180.98L156.18,180.98L155.35,180.98Z"/><path d=" M155.35,173.75L155.35,173.75L155.38,173.75Z"/><path d=" M155.35,180.98L156.88,180.98L156.18,180.98Z"/><path d=" M155.35,173.75L155.38,173.75L155.4,173.75Z"/><path d=" M155.35,180.98L157.35,180.98L156.88,180.98Z"/><path d=" M155.35,173.75L155.4,173.75L155.42,173.75Z"/><path d=" M155.35,180.98L157.52,180.98L157.35,180.98Z"/><path d=" M155.35,173.75L155.42,173.75L155.42,173.75Z"/><path d=" M155.2,180.16L155.23,180.97L163.37,180.84Z"/><path d=" M155.2,180.16L163.37,180.84L162.91,180.48Z"/><path d=" M155.23,180.97L155.23,182.28L164.09,181.66Z"/><path d=" M155.23,180.97L164.09,181.66L163.37,180.84Z"/><path d=" M155.23,182.28L155.23,183.41L164.71,182.46Z"/><path d=" M155.23,182.28L164.71,182.46L164.09,181.66Z"/><path d=" M155.23,183.41L155.2,182.28L164.07,181.89Z"/><path d=" M155.23,183.41L164.07,181.89L164.71,182.46Z"/><path d=" M155.2,182.28L155.19,180.98L163.35,181.12Z"/><path d=" M155.2,182.28L163.35,181.12L164.07,181.89Z"/><path d=" M155.19,180.98L155.2,180.16L162.91,180.48Z"/><path d=" M155.19,180.98L162.91,180.48L163.35,181.12Z"/><path d=" M155.2,180.16L155.23,182.28L155.23,180.97Z"/><path d=" M162.91,180.48L163.37,180.84L164.09,181.66Z"/><path d=" M155.2,180.16L155.23,183.41L155.23,182.28Z"/><path d=" M162.91,180.48L164.09,181.66L164.71,182.46Z"/><path d=" M155.2,180.16L155.2,182.28L155.23,183.41Z"/><path d=" M162.91,180.48L164.71,182.46L164.07,181.89Z"/><path d=" M155.2,180.16L155.19,180.98L155.2,182.28Z"/><path d=" M162.91,180.48L164.07,181.89L163.35,181.12Z"/><path d=" M154.74,180.16L154.81,180.97L159.5,180.84Z"/><path d=" M154.74,180.16L159.5,180.84L158.12,180.48Z"/><path d=" M154.81,180.97L154.83,182.28L161.65,181.66Z"/><path d=" M154.81,180.97L161.65,181.66L159.5,180.84Z"/><path d=" M154.83,182.28L154.82,183.41L163.52,182.46Z"/><path d=" M154.83,182.28L163.52,182.46L161.65,181.66Z"/><path d=" M154.82,183.41L154.75,182.28L161.6,181.89Z"/><path d=" M154.82,183.41L161.6,181.89L163.52,182.46Z"/><path d=" M154.75,182.28L154.71,180.98L159.44,181.12Z"/><path d=" M154.75,182.28L159.44,181.12L161.6,181.89Z"/><path d=" M154.71,180.98L154.74,180.16L158.12,180.48Z"/><path d=" M154.71,180.98L158.12,180.48L159.44,181.12Z"/><path d=" M154.74,180.16L154.83,182.28L154.81,180.97Z"/><path d=" M158.12,180.48L159.5,180.84L161.65,181.66Z"/><path d=" M154.74,180.16L154.82,183.41L154.83,182.28Z"/><path d=" M158.12,180.48L161.65,181.66L163.52,182.46Z"/><path d=" M154.74,180.16L154.75,182.28L154.82,183.41Z"/><path d=" M158.12,180.48L163.52,182.46L161.6,181.89Z"/><path d=" M154.74,180.16L154.71,180.98L154.75,182.28Z"/><path d=" M158.12,180.48L161.6,181.89L159.44,181.12Z"/><path d=" M154.52,180.16L154.61,180.97L154.04,180.84Z"/><path d=" M154.52,180.16L154.04,180.84L152.27,180.48Z"/><path d=" M154.61,180.97L154.63,182.28L156.81,181.66Z"/><path d=" M154.61,180.97L156.81,181.66L154.04,180.84Z"/><path d=" M154.63,182.28L154.62,183.41L159.21,182.46Z"/><path d=" M154.63,182.28L159.21,182.46L156.81,181.66Z"/><path d=" M154.62,183.41L154.52,182.28L156.75,181.89Z"/><path d=" M154.62,183.41L156.75,181.89L159.21,182.46Z"/><path d=" M154.52,182.28L154.48,180.98L153.96,181.12Z"/><path d=" M154.52,182.28L153.96,181.12L156.75,181.89Z"/><path d=" M154.48,180.98L154.52,180.16L152.27,180.48Z"/><path d=" M154.48,180.98L152.27,180.48L153.96,181.12Z"/><path d=" M154.52,180.16L154.63,182.28L154.61,180.97Z"/><path d=" M152.27,180.48L154.04,180.84L156.81,181.66Z"/><path d=" M154.52,180.16L154.62,183.41L154.63,182.28Z"/><path d=" M152.27,180.48L156.81,181.66L159.21,182.46Z"/><path d=" M154.52,180.16L154.52,182.28L154.62,183.41Z"/><path d=" M152.27,180.48L159.21,182.46L156.75,181.89Z"/><path d=" M154.52,180.16L154.48,180.98L154.52,182.28Z"/><path d=" M152.27,180.48L156.75,181.89L153.96,181.12Z"/><path d=" M154.61,180.16L154.68,180.97L149.09,180.84Z"/><path d=" M154.61,180.16L149.09,180.84L147.6,180.48Z"/><path d=" M154.68,180.97L154.71,182.28L151.41,181.66Z"/><path d=" M154.68,180.97L151.41,181.66L149.09,180.84Z"/><path d=" M154.71,182.28L154.69,183.41L153.43,182.46Z"/><path d=" M154.71,182.28L153.43,182.46L151.41,181.66Z"/><path d=" M154.69,183.41L154.61,182.28L151.36,181.89Z"/><path d=" M154.69,183.41L151.36,181.89L153.43,182.46Z"/><path d=" M154.61,182.28L154.57,180.98L149.02,181.12Z"/><path d=" M154.61,182.28L149.02,181.12L151.36,181.89Z"/><path d=" M154.57,180.98L154.61,180.16L147.6,180.48Z"/><path d=" M154.57,180.98L147.6,180.48L149.02,181.12Z"/><path d=" M154.61,180.16L154.71,182.28L154.68,180.97Z"/><path d=" M147.6,180.48L149.09,180.84L151.41,181.66Z"/><path d=" M154.61,180.16L154.69,183.41L154.71,182.28Z"/><path d=" M147.6,180.48L151.41,181.66L153.43,182.46Z"/><path d=" M154.61,180.16L154.61,182.28L154.69,183.41Z"/><path d=" M147.6,180.48L153.43,182.46L151.36,181.89Z"/><path d=" M154.61,180.16L154.57,180.98L154.61,182.28Z"/><path d=" M147.6,180.48L151.36,181.89L149.02,181.12Z"/><path d=" M154.98,180.16L155.01,180.97L146.52,180.84Z"/><path d=" M154.98,180.16L146.52,180.84L145.89,180.48Z"/><path d=" M155.01,180.97L155.02,182.28L147.52,181.66Z"/><path d=" M155.01,180.97L147.52,181.66L146.52,180.84Z"/><path d=" M155.02,182.28L155.02,183.41L148.38,182.46Z"/><path d=" M155.02,182.28L148.38,182.46L147.52,181.66Z"/><path d=" M155.02,183.41L154.98,182.28L147.49,181.89Z"/><path d=" M155.02,183.41L147.49,181.89L148.38,182.46Z"/><path d=" M154.98,182.28L154.97,180.98L146.5,181.12Z"/><path d=" M154.98,182.28L146.5,181.12L147.49,181.89Z"/><path d=" M154.97,180.98L154.98,180.16L145.89,180.48Z"/><path d=" M154.97,180.98L145.89,180.48L146.5,181.12Z"/><path d=" M154.98,180.16L155.02,182.28L155.01,180.97Z"/><path d=" M145.89,180.48L146.52,180.84L147.52,181.66Z"/><path d=" M154.98,180.16L155.02,183.41L155.02,182.28Z"/><path d=" M145.89,180.48L147.52,181.66L148.38,182.46Z"/><path d=" M154.98,180.16L154.98,182.28L155.02,183.41Z"/><path d=" M145.89,180.48L148.38,182.46L147.49,181.89Z"/><path d=" M154.98,180.16L154.97,180.98L154.98,182.28Z"/><path d=" M145.89,180.48L147.49,181.89L146.5,181.12Z"/><path d=" M155.5,180.16L155.47,180.97L147.33,180.84Z"/><path d=" M155.5,180.16L147.33,180.84L147.79,180.48Z"/><path d=" M155.47,180.97L155.47,182.28L146.61,181.66Z"/><path d=" M155.47,180.97L146.61,181.66L147.33,180.84Z"/><path d=" M155.47,182.28L155.47,183.41L145.99,182.46Z"/><path d=" M155.47,182.28L145.99,182.46L146.61,181.66Z"/><path d=" M155.47,183.41L155.49,182.28L146.63,181.89Z"/><path d=" M155.47,183.41L146.63,181.89L145.99,182.46Z"/><path d=" M155.49,182.28L155.51,180.98L147.35,181.12Z"/><path d=" M155.49,182.28L147.35,181.12L146.63,181.89Z"/><path d=" M155.51,180.98L155.5,180.16L147.79,180.48Z"/><path d=" M155.51,180.98L147.79,180.48L147.35,181.12Z"/><path d=" M155.5,180.16L155.47,182.28L155.47,180.97Z"/><path d=" M147.79,180.48L147.33,180.84L146.61,181.66Z"/><path d=" M155.5,180.16L155.47,183.41L155.47,182.28Z"/><path d=" M147.79,180.48L146.61,181.66L145.99,182.46Z"/><path d=" M155.5,180.16L155.49,182.28L155.47,183.41Z"/><path d=" M147.79,180.48L145.99,182.46L146.63,181.89Z"/><path d=" M155.5,180.16L155.51,180.98L155.49,182.28Z"/><path d=" M147.79,180.48L146.63,181.89L147.35,181.12Z"/><path d=" M155.95,180.16L155.89,180.97L151.2,180.84Z"/><path d=" M155.95,180.16L151.2,180.84L152.58,180.48Z"/><path d=" M155.89,180.97L155.86,182.28L149.05,181.66Z"/><path d=" M155.89,180.97L149.05,181.66L151.2,180.84Z"/><path d=" M155.86,182.28L155.88,183.41L147.18,182.46Z"/><path d=" M155.86,182.28L147.18,182.46L149.05,181.66Z"/><path d=" M155.88,183.41L155.95,182.28L149.1,181.89Z"/><path d=" M155.88,183.41L149.1,181.89L147.18,182.46Z"/><path d=" M155.95,182.28L155.99,180.98L151.26,181.12Z"/><path d=" M155.95,182.28L151.26,181.12L149.1,181.89Z"/><path d=" M155.99,180.98L155.95,180.16L152.58,180.48Z"/><path d=" M155.99,180.98L152.58,180.48L151.26,181.12Z"/><path d=" M155.95,180.16L155.86,182.28L155.89,180.97Z"/><path d=" M152.58,180.48L151.2,180.84L149.05,181.66Z"/><path d=" M155.95,180.16L155.88,183.41L155.86,182.28Z"/><path d=" M152.58,180.48L149.05,181.66L147.18,182.46Z"/><path d=" M155.95,180.16L155.95,182.28L155.88,183.41Z"/><path d=" M152.58,180.48L147.18,182.46L149.1,181.89Z"/><path d=" M155.95,180.16L155.99,180.98L155.95,182.28Z"/><path d=" M152.58,180.48L149.1,181.89L151.26,181.12Z"/><path d=" M156.18,180.16L156.09,180.97L156.66,180.84Z"/><path d=" M156.18,180.16L156.66,180.84L158.43,180.48Z"/><path d=" M156.09,180.97L156.07,182.28L153.89,181.66Z"/><path d=" M156.09,180.97L153.89,181.66L156.66,180.84Z"/><path d=" M156.07,182.28L156.08,183.41L151.49,182.46Z"/><path d=" M156.07,182.28L151.49,182.46L153.89,181.66Z"/><path d=" M156.08,183.41L156.18,182.28L153.95,181.89Z"/><path d=" M156.08,183.41L153.95,181.89L151.49,182.46Z"/><path d=" M156.18,182.28L156.22,180.98L156.74,181.12Z"/><path d=" M156.18,182.28L156.74,181.12L153.95,181.89Z"/><path d=" M156.22,180.98L156.18,180.16L158.43,180.48Z"/><path d=" M156.22,180.98L158.43,180.48L156.74,181.12Z"/><path d=" M156.18,180.16L156.07,182.28L156.09,180.97Z"/><path d=" M158.43,180.48L156.66,180.84L153.89,181.66Z"/><path d=" M156.18,180.16L156.08,183.41L156.07,182.28Z"/><path d=" M158.43,180.48L153.89,181.66L151.49,182.46Z"/><path d=" M156.18,180.16L156.18,182.28L156.08,183.41Z"/><path d=" M158.43,180.48L151.49,182.46L153.95,181.89Z"/><path d=" M156.18,180.16L156.22,180.98L156.18,182.28Z"/><path d=" M158.43,180.48L153.95,181.89L156.74,181.12Z"/><path d=" M156.09,180.16L156.02,180.97L161.61,180.84Z"/><path d=" M156.09,180.16L161.61,180.84L163.1,180.48Z"/><path d=" M156.02,180.97L155.99,182.28L159.29,181.66Z"/><path d=" M156.02,180.97L159.29,181.66L161.61,180.84Z"/><path d=" M155.99,182.28L156.01,183.41L157.27,182.46Z"/><path d=" M155.99,182.28L157.27,182.46L159.29,181.66Z"/><path d=" M156.01,183.41L156.09,182.28L159.34,181.89Z"/><path d=" M156.01,183.41L159.34,181.89L157.27,182.46Z"/><path d=" M156.09,182.28L156.13,180.98L161.68,181.12Z"/><path d=" M156.09,182.28L161.68,181.12L159.34,181.89Z"/><path d=" M156.13,180.98L156.09,180.16L163.1,180.48Z"/><path d=" M156.13,180.98L163.1,180.48L161.68,181.12Z"/><path d=" M156.09,180.16L155.99,182.28L156.02,180.97Z"/><path d=" M163.1,180.48L161.61,180.84L159.29,181.66Z"/><path d=" M156.09,180.16L156.01,183.41L155.99,182.28Z"/><path d=" M163.1,180.48L159.29,181.66L157.27,182.46Z"/><path d=" M156.09,180.16L156.09,182.28L156.01,183.41Z"/><path d=" M163.1,180.48L157.27,182.46L159.34,181.89Z"/><path d=" M156.09,180.16L156.13,180.98L156.09,182.28Z"/><path d=" M163.1,180.48L159.34,181.89L161.68,181.12Z"/><path d=" M155.72,180.16L155.69,180.97L164.18,180.84Z"/><path d=" M155.72,180.16L164.18,180.84L164.81,180.48Z"/><path d=" M155.69,180.97L155.68,182.28L163.18,181.66Z"/><path d=" M155.69,180.97L163.18,181.66L164.18,180.84Z"/><path d=" M155.68,182.28L155.68,183.41L162.32,182.46Z"/><path d=" M155.68,182.28L162.32,182.46L163.18,181.66Z"/><path d=" M155.68,183.41L155.71,182.28L163.21,181.89Z"/><path d=" M155.68,183.41L163.21,181.89L162.32,182.46Z"/><path d=" M155.71,182.28L155.73,180.98L164.2,181.12Z"/><path d=" M155.71,182.28L164.2,181.12L163.21,181.89Z"/><path d=" M155.73,180.98L155.72,180.16L164.81,180.48Z"/><path d=" M155.73,180.98L164.81,180.48L164.2,181.12Z"/><path d=" M155.72,180.16L155.68,182.28L155.69,180.97Z"/><path d=" M164.81,180.48L164.18,180.84L163.18,181.66Z"/><path d=" M155.72,180.16L155.68,183.41L155.68,182.28Z"/><path d=" M164.81,180.48L163.18,181.66L162.32,182.46Z"/><path d=" M155.72,180.16L155.71,182.28L155.68,183.41Z"/><path d=" M164.81,180.48L162.32,182.46L163.21,181.89Z"/><path d=" M155.72,180.16L155.73,180.98L155.71,182.28Z"/><path d=" M164.81,180.48L163.21,181.89L164.2,181.12Z"/><path d=" M216.69,14.59L216.36,15.39L218.33,12.65L224,18L227,22L230,28L232.65,34.17L235,42L238,57L239.04,63.55L240,74L240.43,85.43L242.06,351.91L239.3,384.23L236.47,405.55L232.51,427.85L227,466L225,468L221.28,467.99L219,465L206.24,385.45L201.94,351.87L198,75L199,75L200,55L201,55L202,45L203,45L203,38L205,37L206,31L208,29L208,26L209,26L212,18Z"/><path d=" M235.43,168.36L434,289L436,291L438,294L440,306L440,317L438,317L437,312L434.14,309.48L429.75,307.77L395.99,294.16L363,281L363,279L351.23,275.14L349.89,280.73L347.13,280.06L346,273L327.19,266.91L326,272L323.88,271.87L323,266L302.64,259.32L301,266L299,266L297,258L295,258L287.82,255.12L277.94,252.3L276.15,258.7L273.95,258.81L273.03,254.68L273.05,251.1L234.51,248.32Z"/><path d=" M208.39,168.36L9.82,289L7.82,291L5.82,294L3.82,306L3.82,317L5.82,317L6.82,312L9.69,309.48L14.08,307.77L47.83,294.16L80.82,281L80.82,279L92.59,275.14L93.93,280.73L96.69,280.06L97.82,273L116.64,266.91L117.82,272L119.94,271.87L120.82,266L141.18,259.32L142.82,266L144.82,266L146.82,258L148.82,258L156,255.12L165.88,252.3L167.67,258.7L169.87,258.81L170.79,254.68L170.77,251.1L209.31,248.32Z"/><path d=" M278.86,166.9L294.54,167.1L297.24,169.56L297.84,174.71L297.71,192.17L297,200L294,201L294,204L291.75,203.9L292.23,231.17L285.09,231.99L284.54,203.82L281.41,203.89L281.41,199.3L278.85,198.84L278.2,197.31L277,170Z"/><path d=" M164.97,166.9L149.28,167.1L146.58,169.56L145.98,174.71L146.11,192.17L146.82,200L149.82,201L149.82,204L152.07,203.9L151.6,231.17L158.73,231.99L159.28,203.82L162.42,203.89L162.41,199.3L164.97,198.84L165.62,197.31L166.82,170Z"/><path d=" M220.73,371.29L223.55,370.84L225.83,414.33L224.93,473.73L222.17,473.81L219.68,414.35Z"/><path d=" M232.06,413.55L289.6,451.16L293,454L295,471L227.15,451.4Z"/><path d=" M211.76,413.55L154.22,451.16L150.82,454L148.82,471L216.67,451.4Z"/></svg>