<svg xmlns="http://www.w3.org/2000/svg" data-author="squawk-7500" data-created-at="2026-09-29T02:16:39.700Z" data-model-version="13" data-variant="PONTOON" viewBox="31.54 -52.95 438.78 438.78" width="512" height="512" fill="currentColor" fill-rule="evenodd" stroke="currentColor" stroke-width="4.39" stroke-linejoin="round"><path d=" M245.97,53.3L246.33,53.4L246.33,42.4Z"/><path d=" M245.97,53.3L246.33,42.4L245.97,42.31Z"/><path d=" M246.33,53.4L247.36,53.48L247.36,42.49Z"/><path d=" M246.33,53.4L247.36,42.49L246.33,42.4Z"/><path d=" M247.36,53.48L248.91,53.54L248.91,42.54Z"/><path d=" M247.36,53.48L248.91,42.54L247.36,42.49Z"/><path d=" M248.91,53.54L250.72,53.56L250.72,42.56Z"/><path d=" M248.91,53.54L250.72,42.56L248.91,42.54Z"/><path d=" M250.72,53.56L252.54,53.54L252.54,42.54Z"/><path d=" M250.72,53.56L252.54,42.54L250.72,42.56Z"/><path d=" M252.54,53.54L254.09,53.48L254.09,42.49Z"/><path d=" M252.54,53.54L254.09,42.49L252.54,42.54Z"/><path d=" M254.09,53.48L255.12,53.4L255.12,42.4Z"/><path d=" M254.09,53.48L255.12,42.4L254.09,42.49Z"/><path d=" M255.12,53.4L255.48,53.3L255.48,42.31Z"/><path d=" M255.12,53.4L255.48,42.31L255.12,42.4Z"/><path d=" M255.48,53.3L255.12,53.21L255.12,42.21Z"/><path d=" M255.48,53.3L255.12,42.21L255.48,42.31Z"/><path d=" M255.12,53.21L254.09,53.13L254.09,42.13Z"/><path d=" M255.12,53.21L254.09,42.13L255.12,42.21Z"/><path d=" M254.09,53.13L252.54,53.07L252.54,42.08Z"/><path d=" M254.09,53.13L252.54,42.08L254.09,42.13Z"/><path d=" M252.54,53.07L250.72,53.05L250.72,42.06Z"/><path d=" M252.54,53.07L250.72,42.06L252.54,42.08Z"/><path d=" M250.72,53.05L248.91,53.07L248.91,42.08Z"/><path d=" M250.72,53.05L248.91,42.08L250.72,42.06Z"/><path d=" M248.91,53.07L247.36,53.13L247.36,42.13Z"/><path d=" M248.91,53.07L247.36,42.13L248.91,42.08Z"/><path d=" M247.36,53.13L246.33,53.21L246.33,42.21Z"/><path d=" M247.36,53.13L246.33,42.21L247.36,42.13Z"/><path d=" M246.33,53.21L245.97,53.3L245.97,42.31Z"/><path d=" M246.33,53.21L245.97,42.31L246.33,42.21Z"/><path d=" M250.72,53.3L246.33,53.4L245.97,53.3Z"/><path d=" M250.72,42.31L245.97,42.31L246.33,42.4Z"/><path d=" M250.72,53.3L247.36,53.48L246.33,53.4Z"/><path d=" M250.72,42.31L246.33,42.4L247.36,42.49Z"/><path d=" M250.72,53.3L248.91,53.54L247.36,53.48Z"/><path d=" M250.72,42.31L247.36,42.49L248.91,42.54Z"/><path d=" M250.72,53.3L250.72,53.56L248.91,53.54Z"/><path d=" M250.72,42.31L248.91,42.54L250.72,42.56Z"/><path d=" M250.72,53.3L252.54,53.54L250.72,53.56Z"/><path d=" M250.72,42.31L250.72,42.56L252.54,42.54Z"/><path d=" M250.72,53.3L254.09,53.48L252.54,53.54Z"/><path d=" M250.72,42.31L252.54,42.54L254.09,42.49Z"/><path d=" M250.72,53.3L255.12,53.4L254.09,53.48Z"/><path d=" M250.72,42.31L254.09,42.49L255.12,42.4Z"/><path d=" M250.72,53.3L255.48,53.3L255.12,53.4Z"/><path d=" M250.72,42.31L255.12,42.4L255.48,42.31Z"/><path d=" M250.72,53.3L255.12,53.21L255.48,53.3Z"/><path d=" M250.72,42.31L255.48,42.31L255.12,42.21Z"/><path d=" M250.72,53.3L254.09,53.13L255.12,53.21Z"/><path d=" M250.72,42.31L255.12,42.21L254.09,42.13Z"/><path d=" M250.72,53.3L252.54,53.07L254.09,53.13Z"/><path d=" M250.72,42.31L254.09,42.13L252.54,42.08Z"/><path d=" M250.72,53.3L250.72,53.05L252.54,53.07Z"/><path d=" M250.72,42.31L252.54,42.08L250.72,42.06Z"/><path d=" M250.72,53.3L248.91,53.07L250.72,53.05Z"/><path d=" M250.72,42.31L250.72,42.06L248.91,42.08Z"/><path d=" M250.72,53.3L247.36,53.13L248.91,53.07Z"/><path d=" M250.72,42.31L248.91,42.08L247.36,42.13Z"/><path d=" M250.72,53.3L246.33,53.21L247.36,53.13Z"/><path d=" M250.72,42.31L247.36,42.13L246.33,42.21Z"/><path d=" M250.72,53.3L245.97,53.3L246.33,53.21Z"/><path d=" M250.72,42.31L246.33,42.21L245.97,42.31Z"/><path d=" M246.42,42.31L246.75,42.4L250.72,33.5Z"/><path d=" M246.42,42.31L250.72,33.5L250.72,33.5Z"/><path d=" M246.75,42.4L247.68,42.47L250.72,33.5Z"/><path d=" M246.75,42.4L250.72,33.5L250.72,33.5Z"/><path d=" M247.68,42.47L249.08,42.52L250.72,33.5Z"/><path d=" M247.68,42.47L250.72,33.5L250.72,33.5Z"/><path d=" M249.08,42.52L250.72,42.54L250.72,33.5Z"/><path d=" M249.08,42.52L250.72,33.5L250.72,33.5Z"/><path d=" M250.72,42.54L252.37,42.52L250.73,33.5Z"/><path d=" M250.72,42.54L250.73,33.5L250.72,33.5Z"/><path d=" M252.37,42.52L253.77,42.47L250.73,33.5Z"/><path d=" M252.37,42.52L250.73,33.5L250.73,33.5Z"/><path d=" M253.77,42.47L254.7,42.4L250.73,33.5Z"/><path d=" M253.77,42.47L250.73,33.5L250.73,33.5Z"/><path d=" M254.7,42.4L255.03,42.31L250.73,33.5Z"/><path d=" M254.7,42.4L250.73,33.5L250.73,33.5Z"/><path d=" M255.03,42.31L254.7,42.22L250.73,33.5Z"/><path d=" M255.03,42.31L250.73,33.5L250.73,33.5Z"/><path d=" M254.7,42.22L253.77,42.15L250.73,33.5Z"/><path d=" M254.7,42.22L250.73,33.5L250.73,33.5Z"/><path d=" M253.77,42.15L252.37,42.1L250.73,33.5Z"/><path d=" M253.77,42.15L250.73,33.5L250.73,33.5Z"/><path d=" M252.37,42.1L250.72,42.08L250.72,33.5Z"/><path d=" M252.37,42.1L250.72,33.5L250.73,33.5Z"/><path d=" M250.72,42.08L249.08,42.1L250.72,33.5Z"/><path d=" M250.72,42.08L250.72,33.5L250.72,33.5Z"/><path d=" M249.08,42.1L247.68,42.15L250.72,33.5Z"/><path d=" M249.08,42.1L250.72,33.5L250.72,33.5Z"/><path d=" M247.68,42.15L246.75,42.22L250.72,33.5Z"/><path d=" M247.68,42.15L250.72,33.5L250.72,33.5Z"/><path d=" M246.75,42.22L246.42,42.31L250.72,33.5Z"/><path d=" M246.75,42.22L250.72,33.5L250.72,33.5Z"/><path d=" M250.72,42.31L246.75,42.4L246.42,42.31Z"/><path d=" M250.72,42.31L247.68,42.47L246.75,42.4Z"/><path d=" M250.72,42.31L249.08,42.52L247.68,42.47Z"/><path d=" M250.72,42.31L250.72,42.54L249.08,42.52Z"/><path d=" M250.72,42.31L252.37,42.52L250.72,42.54Z"/><path d=" M250.72,42.31L253.77,42.47L252.37,42.52Z"/><path d=" M250.72,42.31L254.7,42.4L253.77,42.47Z"/><path d=" M250.72,42.31L255.03,42.31L254.7,42.4Z"/><path d=" M250.72,42.31L254.7,42.22L255.03,42.31Z"/><path d=" M250.72,42.31L253.77,42.15L254.7,42.22Z"/><path d=" M250.72,42.31L252.37,42.1L253.77,42.15Z"/><path d=" M250.72,42.31L250.72,42.08L252.37,42.1Z"/><path d=" M250.72,42.31L249.08,42.1L250.72,42.08Z"/><path d=" M250.72,42.31L247.68,42.15L249.08,42.1Z"/><path d=" M250.72,42.31L246.75,42.22L247.68,42.15Z"/><path d=" M250.72,42.31L246.42,42.31L246.75,42.22Z"/><path d=" M252.59,41.69L252.58,42.31L243.8,42.43Z"/><path d=" M252.59,41.69L243.8,42.43L244.13,41.23Z"/><path d=" M252.58,42.31L252.58,43.32L243.32,44.48Z"/><path d=" M252.58,42.31L243.32,44.48L243.8,42.43Z"/><path d=" M252.58,43.32L252.59,44.2L242.9,46.32Z"/><path d=" M252.58,43.32L242.9,46.32L243.32,44.48Z"/><path d=" M252.59,44.2L252.6,43.32L243.35,44.6Z"/><path d=" M252.59,44.2L243.35,44.6L242.9,46.32Z"/><path d=" M252.6,43.32L252.6,42.32L243.85,42.58Z"/><path d=" M252.6,43.32L243.85,42.58L243.35,44.6Z"/><path d=" M252.6,42.32L252.59,41.69L244.13,41.23Z"/><path d=" M252.6,42.32L244.13,41.23L243.85,42.58Z"/><path d=" M244.13,41.23L243.8,42.43L227.16,42.64Z"/><path d=" M244.13,41.23L227.16,42.64L227.56,42.29Z"/><path d=" M243.8,42.43L243.32,44.48L226.53,43.36Z"/><path d=" M243.8,42.43L226.53,43.36L227.16,42.64Z"/><path d=" M243.32,44.48L242.9,46.32L225.99,44.06Z"/><path d=" M243.32,44.48L225.99,44.06L226.53,43.36Z"/><path d=" M242.9,46.32L243.35,44.6L226.55,43.52Z"/><path d=" M242.9,46.32L226.55,43.52L225.99,44.06Z"/><path d=" M243.35,44.6L243.85,42.58L227.18,42.82Z"/><path d=" M243.35,44.6L227.18,42.82L226.55,43.52Z"/><path d=" M243.85,42.58L244.13,41.23L227.56,42.29Z"/><path d=" M243.85,42.58L227.56,42.29L227.18,42.82Z"/><path d=" M227.56,42.29L227.16,42.64L222.28,42.71Z"/><path d=" M227.56,42.29L222.28,42.71L222.33,42.67Z"/><path d=" M227.16,42.64L226.53,43.36L222.19,42.79Z"/><path d=" M227.16,42.64L222.19,42.79L222.28,42.71Z"/><path d=" M226.53,43.36L225.99,44.06L222.12,42.87Z"/><path d=" M226.53,43.36L222.12,42.87L222.19,42.79Z"/><path d=" M225.99,44.06L226.55,43.52L222.19,42.81Z"/><path d=" M225.99,44.06L222.19,42.81L222.12,42.87Z"/><path d=" M226.55,43.52L227.18,42.82L222.28,42.74Z"/><path d=" M226.55,43.52L222.28,42.74L222.19,42.81Z"/><path d=" M227.18,42.82L227.56,42.29L222.33,42.67Z"/><path d=" M227.18,42.82L222.33,42.67L222.28,42.74Z"/><path d=" M252.59,41.69L252.58,43.32L252.58,42.31Z"/><path d=" M222.33,42.67L222.28,42.71L222.19,42.79Z"/><path d=" M252.59,41.69L252.59,44.2L252.58,43.32Z"/><path d=" M222.33,42.67L222.19,42.79L222.12,42.87Z"/><path d=" M252.59,41.69L252.6,43.32L252.59,44.2Z"/><path d=" M222.33,42.67L222.12,42.87L222.19,42.81Z"/><path d=" M252.59,41.69L252.6,42.32L252.6,43.32Z"/><path d=" M222.33,42.67L222.19,42.81L222.28,42.74Z"/><path d=" M248.86,41.67L248.87,42.3L257.64,42.04Z"/><path d=" M248.86,41.67L257.64,42.04L257.32,40.72Z"/><path d=" M248.87,42.3L248.87,43.31L258.13,44.29Z"/><path d=" M248.87,42.3L258.13,44.29L257.64,42.04Z"/><path d=" M248.87,43.31L248.86,44.19L258.55,46.29Z"/><path d=" M248.87,43.31L258.55,46.29L258.13,44.29Z"/><path d=" M248.86,44.19L248.85,43.3L258.1,44.4Z"/><path d=" M248.86,44.19L258.1,44.4L258.55,46.29Z"/><path d=" M248.85,43.3L248.85,42.3L257.6,42.18Z"/><path d=" M248.85,43.3L257.6,42.18L258.1,44.4Z"/><path d=" M248.85,42.3L248.86,41.67L257.32,40.72Z"/><path d=" M248.85,42.3L257.32,40.72L257.6,42.18Z"/><path d=" M257.32,40.72L257.64,42.04L274.29,41.8Z"/><path d=" M257.32,40.72L274.29,41.8L273.89,41.29Z"/><path d=" M257.64,42.04L258.13,44.29L274.91,42.77Z"/><path d=" M257.64,42.04L274.91,42.77L274.29,41.8Z"/><path d=" M258.13,44.29L258.55,46.29L275.46,43.68Z"/><path d=" M258.13,44.29L275.46,43.68L274.91,42.77Z"/><path d=" M258.55,46.29L258.1,44.4L274.9,42.92Z"/><path d=" M258.55,46.29L274.9,42.92L275.46,43.68Z"/><path d=" M258.1,44.4L257.6,42.18L274.27,41.98Z"/><path d=" M258.1,44.4L274.27,41.98L274.9,42.92Z"/><path d=" M257.6,42.18L257.32,40.72L273.89,41.29Z"/><path d=" M257.6,42.18L273.89,41.29L274.27,41.98Z"/><path d=" M273.89,41.29L274.29,41.8L279.17,41.88Z"/><path d=" M273.89,41.29L279.17,41.88L279.12,41.82Z"/><path d=" M274.29,41.8L274.91,42.77L279.26,41.99Z"/><path d=" M274.29,41.8L279.26,41.99L279.17,41.88Z"/><path d=" M274.91,42.77L275.46,43.68L279.33,42.1Z"/><path d=" M274.91,42.77L279.33,42.1L279.26,41.99Z"/><path d=" M275.46,43.68L274.9,42.92L279.26,42.01Z"/><path d=" M275.46,43.68L279.26,42.01L279.33,42.1Z"/><path d=" M274.9,42.92L274.27,41.98L279.17,41.9Z"/><path d=" M274.9,42.92L279.17,41.9L279.26,42.01Z"/><path d=" M274.27,41.98L273.89,41.29L279.12,41.82Z"/><path d=" M274.27,41.98L279.12,41.82L279.17,41.9Z"/><path d=" M248.86,41.67L248.87,43.31L248.87,42.3Z"/><path d=" M279.12,41.82L279.17,41.88L279.26,41.99Z"/><path d=" M248.86,41.67L248.86,44.19L248.87,43.31Z"/><path d=" M279.12,41.82L279.26,41.99L279.33,42.1Z"/><path d=" M248.86,41.67L248.85,43.3L248.86,44.19Z"/><path d=" M279.12,41.82L279.33,42.1L279.26,42.01Z"/><path d=" M248.86,41.67L248.85,42.3L248.85,43.3Z"/><path d=" M279.12,41.82L279.26,42.01L279.17,41.9Z"/><path d=" M255.61,48.28L263,49L266.19,53.1L267,59L268,66L269.89,97.91L269,167L258.51,270.75L252.6,315.83L249.75,315.99L242.49,271.68L231,167L229,98L230,74L231,53L232,50L234.43,48.87L243.33,48.39Z"/><path d=" M246.24,48.28L238.85,49L235.66,53.1L234.85,59L233.85,66L231.96,97.91L232.85,167L243.34,270.75L249.25,315.83L252.1,315.99L259.36,271.68L270.85,167L272.85,98L271.85,74L270.85,53L269.85,50L267.42,48.87L258.52,48.39Z"/><path d=" M245.27,108.98L269.82,108.68L270.48,100.67L365.38,101.54L420,103L448.09,103.24L452,104.77L456,107L457,114L457.9,116.38L456.02,118.23L455,129L454,134L453,139L452.03,144.67L347.03,162.01L269.24,162.94L269.5,138.77L245.32,138.79Z"/><path d=" M256.58,108.98L232.03,108.68L231.37,100.67L136.47,101.54L81.85,103L53.76,103.24L49.85,104.77L45.85,107L44.85,114L43.95,116.38L45.83,118.23L46.85,129L47.85,134L48.85,139L49.82,144.67L154.82,162.01L232.61,162.94L232.35,138.77L256.53,138.79Z"/><path d=" M249.6,217.21L252.85,217.29L253.54,223.72L254.97,275.68L254.21,316.04L250.03,316.67L247.9,274.89L248.66,222.81Z"/><path d=" M252.25,217.21L249,217.29L248.31,223.72L246.88,275.68L247.64,316.04L251.82,316.67L253.95,274.89L253.19,222.81Z"/><path d=" M250.77,302.43L252.4,266.86L257.4,267.86L307.66,273.19L312.4,275.86L312.59,291.06L308.4,305.86L258.69,314.68Z"/><path d=" M251.08,302.43L249.45,266.86L244.45,267.86L194.19,273.19L189.45,275.86L189.26,291.06L193.45,305.86L243.16,314.68Z"/><path d=" M296.45,16.2L302.71,19.99L306,26L307.9,29.86L309,39L310,49L311,66L312,100L310,164L305.64,245.04L299.45,245.2L297.19,245.26L297,260L295,260L294.79,245.65L292.05,245.37L287.7,245.61L285,221L283,164L280.35,87.19L282,52L283,43L284.99,29.71L286,26L289,21L292,18Z"/><path d=" M205.4,16.2L199.14,19.99L195.85,26L193.95,29.86L192.85,39L191.85,49L190.85,66L189.85,100L191.85,164L196.21,245.04L202.4,245.2L204.66,245.26L204.85,260L206.85,260L207.06,245.65L209.81,245.37L214.15,245.61L216.85,221L218.85,164L221.5,87.19L219.85,52L218.85,43L216.86,29.71L215.85,26L212.85,21L209.85,18Z"/></svg>