<svg xmlns="http://www.w3.org/2000/svg" data-author="squawk-7500" data-created-at="2026-10-01T19:06:33.667Z" data-model-version="3" viewBox="-5.8 -23.82 460.84 460.84" width="512" height="512" fill="currentColor" fill-rule="evenodd" stroke="currentColor" stroke-width="4.61" stroke-linejoin="round"><path d=" M221.89,42.57L227.14,42.39L229.44,45.43L231,49L232.9,55.32L234,60L237,74L238,78L239,87L240,118L237.78,129.02L231.17,154.66L234,247L233.02,302.71L231.79,319.53L231,327L216,327L214,247L215.89,154.45L210.52,129.35L208.12,108.11L208,96L209,84L211,76L213.66,67.95L216,57L217,52Z"/><path d=" M227.36,42.57L222.1,42.39L219.81,45.43L218.24,49L216.35,55.32L215.24,60L212.24,74L211.24,78L210.24,87L209.24,118L211.47,129.02L218.08,154.66L215.24,247L216.23,302.71L217.46,319.53L218.24,327L233.24,327L235.24,247L233.35,154.45L238.73,129.35L241.12,108.11L241.24,96L240.24,84L238.24,76L235.59,67.95L233.24,57L232.24,52Z"/><path d=" M228.18,264.71L284.75,265.27L385.36,272.26L437.52,274.45L441.84,275.76L442,284L440.06,285.66L386.99,289L338.58,293.17L285.51,296.34L228.62,295.72Z"/><path d=" M221.06,264.71L164.49,265.27L63.88,272.26L11.72,274.45L7.4,275.76L7.24,284L9.19,285.66L62.26,289L110.66,293.17L163.74,296.34L220.62,295.72Z"/><path d=" M288.02,249.97L290,252L292,257L292.82,265.97L291.93,274.22L292.04,285.53L292.39,290.51L293,295L293,302L290.4,331.3L288.81,352.57L286.93,367.48L283.16,364.24L282,347L281,333L280.36,310.85L279.73,305.74L279.28,297.03L280.92,286.7L280.65,272.54L279.26,268.81L278.91,264.28L280,260L281,255L283.56,250.6L286.18,249.22Z"/><path d=" M161.22,249.97L159.24,252L157.24,257L156.42,265.97L157.32,274.22L157.21,285.53L156.86,290.51L156.24,295L156.24,302L158.84,331.3L160.44,352.57L162.31,367.48L166.08,364.24L167.24,347L168.24,333L168.89,310.85L169.51,305.74L169.96,297.03L168.32,286.7L168.6,272.54L169.98,268.81L170.33,264.28L169.24,260L168.24,255L165.69,250.6L163.07,249.22Z"/><path d=" M290,351L292,355L294.74,359.43L295.37,370.82L273.57,369.88L274.01,355.46L284.2,350.1Z"/><path d=" M159.24,351L157.24,355L154.5,359.43L153.88,370.82L175.67,369.88L175.24,355.46L165.04,350.1Z"/><path d=" M239,129L328.51,129.65L369.89,131.86L371.82,133.59L372,146L371,147L329.59,151.61L234,152L225.18,150.82L226.01,130.16Z"/><path d=" M210.24,129L120.74,129.65L79.35,131.86L77.42,133.59L77.24,146L78.24,147L119.65,151.61L215.24,152L224.06,150.82L223.23,130.16Z"/><path d=" M246.69,249.13L234.52,249.64L233.37,258.44L232.28,274.91L234.43,294.08L245.7,295.21L248.96,274.23Z"/><path d=" M202.55,249.13L214.73,249.64L215.88,258.44L216.97,274.91L214.82,294.08L203.54,295.21L200.28,274.23Z"/></svg>