<svg xmlns="http://www.w3.org/2000/svg" viewBox="-470.35 -216.83 1228.7 1228.7" width="512" height="512" fill="currentColor" fill-rule="evenodd" stroke="currentColor" stroke-width="12.29" stroke-linejoin="round"><path d=" M144,302.01L146.17,301.58L146.17,299.09Z"/><path d=" M144,302.01L146.17,299.09L144,299.53Z"/><path d=" M146.17,301.58L148.01,300.35L148.01,297.87Z"/><path d=" M146.17,301.58L148.01,297.87L146.17,299.09Z"/><path d=" M148.01,300.35L149.23,298.52L149.23,296.03Z"/><path d=" M148.01,300.35L149.23,296.03L148.01,297.87Z"/><path d=" M149.23,298.52L149.67,296.35L149.67,293.87Z"/><path d=" M149.23,298.52L149.67,293.87L149.23,296.03Z"/><path d=" M149.67,296.35L149.23,294.19L149.23,291.71Z"/><path d=" M149.67,296.35L149.23,291.71L149.67,293.87Z"/><path d=" M149.23,294.19L148.01,292.35L148.01,289.87Z"/><path d=" M149.23,294.19L148.01,289.87L149.23,291.71Z"/><path d=" M148.01,292.35L146.17,291.13L146.17,288.64Z"/><path d=" M148.01,292.35L146.17,288.64L148.01,289.87Z"/><path d=" M146.17,291.13L144,290.7L144,288.21Z"/><path d=" M146.17,291.13L144,288.21L146.17,288.64Z"/><path d=" M144,290.7L141.83,291.13L141.83,288.64Z"/><path d=" M144,290.7L141.83,288.64L144,288.21Z"/><path d=" M141.83,291.13L139.99,292.35L139.99,289.87Z"/><path d=" M141.83,291.13L139.99,289.87L141.83,288.64Z"/><path d=" M139.99,292.35L138.76,294.19L138.76,291.71Z"/><path d=" M139.99,292.35L138.76,291.71L139.99,289.87Z"/><path d=" M138.76,294.19L138.33,296.35L138.33,293.87Z"/><path d=" M138.76,294.19L138.33,293.87L138.76,291.71Z"/><path d=" M138.33,296.35L138.76,298.52L138.76,296.03Z"/><path d=" M138.33,296.35L138.76,296.03L138.33,293.87Z"/><path d=" M138.76,298.52L139.99,300.35L139.99,297.87Z"/><path d=" M138.76,298.52L139.99,297.87L138.76,296.03Z"/><path d=" M139.99,300.35L141.83,301.58L141.83,299.09Z"/><path d=" M139.99,300.35L141.83,299.09L139.99,297.87Z"/><path d=" M141.83,301.58L144,302.01L144,299.53Z"/><path d=" M141.83,301.58L144,299.53L141.83,299.09Z"/><path d=" M144,296.35L146.17,301.58L144,302.01Z"/><path d=" M144,293.87L144,299.53L146.17,299.09Z"/><path d=" M144,296.35L148.01,300.35L146.17,301.58Z"/><path d=" M144,293.87L146.17,299.09L148.01,297.87Z"/><path d=" M144,296.35L149.23,298.52L148.01,300.35Z"/><path d=" M144,293.87L148.01,297.87L149.23,296.03Z"/><path d=" M144,296.35L149.67,296.35L149.23,298.52Z"/><path d=" M144,293.87L149.23,296.03L149.67,293.87Z"/><path d=" M144,296.35L149.23,294.19L149.67,296.35Z"/><path d=" M144,293.87L149.67,293.87L149.23,291.71Z"/><path d=" M144,296.35L148.01,292.35L149.23,294.19Z"/><path d=" M144,293.87L149.23,291.71L148.01,289.87Z"/><path d=" M144,296.35L146.17,291.13L148.01,292.35Z"/><path d=" M144,293.87L148.01,289.87L146.17,288.64Z"/><path d=" M144,296.35L144,290.7L146.17,291.13Z"/><path d=" M144,293.87L146.17,288.64L144,288.21Z"/><path d=" M144,296.35L141.83,291.13L144,290.7Z"/><path d=" M144,293.87L144,288.21L141.83,288.64Z"/><path d=" M144,296.35L139.99,292.35L141.83,291.13Z"/><path d=" M144,293.87L141.83,288.64L139.99,289.87Z"/><path d=" M144,296.35L138.76,294.19L139.99,292.35Z"/><path d=" M144,293.87L139.99,289.87L138.76,291.71Z"/><path d=" M144,296.35L138.33,296.35L138.76,294.19Z"/><path d=" M144,293.87L138.76,291.71L138.33,293.87Z"/><path d=" M144,296.35L138.76,298.52L138.33,296.35Z"/><path d=" M144,293.87L138.33,293.87L138.76,296.03Z"/><path d=" M144,296.35L139.99,300.35L138.76,298.52Z"/><path d=" M144,293.87L138.76,296.03L139.99,297.87Z"/><path d=" M144,296.35L141.83,301.58L139.99,300.35Z"/><path d=" M144,293.87L139.99,297.87L141.83,299.09Z"/><path d=" M144,296.35L144,302.01L141.83,301.58Z"/><path d=" M144,293.87L141.83,299.09L144,299.53Z"/><path d=" M144,308.01L149.42,306.93L149.42,305.52Z"/><path d=" M144,308.01L149.42,305.52L144,306.59Z"/><path d=" M149.42,306.93L154.02,303.87L154.02,302.45Z"/><path d=" M149.42,306.93L154.02,302.45L149.42,305.52Z"/><path d=" M154.02,303.87L157.09,299.28L157.09,297.86Z"/><path d=" M154.02,303.87L157.09,297.86L154.02,302.45Z"/><path d=" M157.09,299.28L158.16,293.87L158.16,292.45Z"/><path d=" M157.09,299.28L158.16,292.45L157.09,297.86Z"/><path d=" M158.16,293.87L157.09,288.46L157.09,287.04Z"/><path d=" M158.16,293.87L157.09,287.04L158.16,292.45Z"/><path d=" M157.09,288.46L154.02,283.87L154.02,282.45Z"/><path d=" M157.09,288.46L154.02,282.45L157.09,287.04Z"/><path d=" M154.02,283.87L149.42,280.81L149.42,279.39Z"/><path d=" M154.02,283.87L149.42,279.39L154.02,282.45Z"/><path d=" M149.42,280.81L144,279.73L144,278.31Z"/><path d=" M149.42,280.81L144,278.31L149.42,279.39Z"/><path d=" M144,279.73L138.58,280.81L138.58,279.39Z"/><path d=" M144,279.73L138.58,279.39L144,278.31Z"/><path d=" M138.58,280.81L133.98,283.87L133.98,282.45Z"/><path d=" M138.58,280.81L133.98,282.45L138.58,279.39Z"/><path d=" M133.98,283.87L130.91,288.46L130.91,287.04Z"/><path d=" M133.98,283.87L130.91,287.04L133.98,282.45Z"/><path d=" M130.91,288.46L129.83,293.87L129.83,292.45Z"/><path d=" M130.91,288.46L129.83,292.45L130.91,287.04Z"/><path d=" M129.83,293.87L130.91,299.28L130.91,297.86Z"/><path d=" M129.83,293.87L130.91,297.86L129.83,292.45Z"/><path d=" M130.91,299.28L133.98,303.87L133.98,302.45Z"/><path d=" M130.91,299.28L133.98,302.45L130.91,297.86Z"/><path d=" M133.98,303.87L138.58,306.93L138.58,305.52Z"/><path d=" M133.98,303.87L138.58,305.52L133.98,302.45Z"/><path d=" M138.58,306.93L144,308.01L144,306.59Z"/><path d=" M138.58,306.93L144,306.59L138.58,305.52Z"/><path d=" M144,293.87L149.42,306.93L144,308.01Z"/><path d=" M144,292.45L144,306.59L149.42,305.52Z"/><path d=" M144,293.87L154.02,303.87L149.42,306.93Z"/><path d=" M144,292.45L149.42,305.52L154.02,302.45Z"/><path d=" M144,293.87L157.09,299.28L154.02,303.87Z"/><path d=" M144,292.45L154.02,302.45L157.09,297.86Z"/><path d=" M144,293.87L158.16,293.87L157.09,299.28Z"/><path d=" M144,292.45L157.09,297.86L158.16,292.45Z"/><path d=" M144,293.87L157.09,288.46L158.16,293.87Z"/><path d=" M144,292.45L158.16,292.45L157.09,287.04Z"/><path d=" M144,293.87L154.02,283.87L157.09,288.46Z"/><path d=" M144,292.45L157.09,287.04L154.02,282.45Z"/><path d=" M144,293.87L149.42,280.81L154.02,283.87Z"/><path d=" M144,292.45L154.02,282.45L149.42,279.39Z"/><path d=" M144,293.87L144,279.73L149.42,280.81Z"/><path d=" M144,292.45L149.42,279.39L144,278.31Z"/><path d=" M144,293.87L138.58,280.81L144,279.73Z"/><path d=" M144,292.45L144,278.31L138.58,279.39Z"/><path d=" M144,293.87L133.98,283.87L138.58,280.81Z"/><path d=" M144,292.45L138.58,279.39L133.98,282.45Z"/><path d=" M144,293.87L130.91,288.46L133.98,283.87Z"/><path d=" M144,292.45L133.98,282.45L130.91,287.04Z"/><path d=" M144,293.87L129.83,293.87L130.91,288.46Z"/><path d=" M144,292.45L130.91,287.04L129.83,292.45Z"/><path d=" M144,293.87L130.91,299.28L129.83,293.87Z"/><path d=" M144,292.45L129.83,292.45L130.91,297.86Z"/><path d=" M144,293.87L133.98,303.87L130.91,299.28Z"/><path d=" M144,292.45L130.91,297.86L133.98,302.45Z"/><path d=" M144,293.87L138.58,306.93L133.98,303.87Z"/><path d=" M144,292.45L133.98,302.45L138.58,305.52Z"/><path d=" M144,293.87L144,308.01L138.58,306.93Z"/><path d=" M144,292.45L138.58,305.52L144,306.59Z"/><path d=" M152.81,306.89L149.98,307.62L156.9,331.66Z"/><path d=" M152.81,306.89L156.9,331.66L159.48,331Z"/><path d=" M149.98,307.62L145.45,308.83L152.77,332.77Z"/><path d=" M149.98,307.62L152.77,332.77L156.9,331.66Z"/><path d=" M145.45,308.83L141.49,309.92L149.15,333.76Z"/><path d=" M145.45,308.83L149.15,333.76L152.77,332.77Z"/><path d=" M141.49,309.92L145.45,308.89L152.77,332.82Z"/><path d=" M141.49,309.92L152.77,332.82L149.15,333.76Z"/><path d=" M145.45,308.89L149.98,307.68L156.9,331.72Z"/><path d=" M145.45,308.89L156.9,331.72L152.77,332.82Z"/><path d=" M149.98,307.68L152.81,306.89L159.48,331Z"/><path d=" M149.98,307.68L159.48,331L156.9,331.72Z"/><path d=" M159.48,331L156.9,331.66L166.74,354.88Z"/><path d=" M159.48,331L166.74,354.88L172.73,353.34Z"/><path d=" M156.9,331.66L152.77,332.77L157.14,357.45Z"/><path d=" M156.9,331.66L157.14,357.45L166.74,354.88Z"/><path d=" M152.77,332.77L149.15,333.76L148.75,359.75Z"/><path d=" M152.77,332.77L148.75,359.75L157.14,357.45Z"/><path d=" M149.15,333.76L152.77,332.82L157.14,357.57Z"/><path d=" M149.15,333.76L157.14,357.57L148.75,359.75Z"/><path d=" M152.77,332.82L156.9,331.72L166.74,355.01Z"/><path d=" M152.77,332.82L166.74,355.01L157.14,357.57Z"/><path d=" M156.9,331.72L159.48,331L172.73,353.34Z"/><path d=" M156.9,331.72L172.73,353.34L166.74,355.01Z"/><path d=" M172.73,353.34L166.74,354.88L173.32,379Z"/><path d=" M172.73,353.34L173.32,379L179.42,377.44Z"/><path d=" M166.74,354.88L157.14,357.45L163.57,381.62Z"/><path d=" M166.74,354.88L163.57,381.62L173.32,379Z"/><path d=" M157.14,357.45L148.75,359.75L155.03,383.96Z"/><path d=" M157.14,357.45L155.03,383.96L163.57,381.62Z"/><path d=" M148.75,359.75L157.14,357.57L163.57,381.74Z"/><path d=" M148.75,359.75L163.57,381.74L155.03,383.96Z"/><path d=" M157.14,357.57L166.74,355.01L173.32,379.14Z"/><path d=" M157.14,357.57L173.32,379.14L163.57,381.74Z"/><path d=" M166.74,355.01L172.73,353.34L179.42,377.44Z"/><path d=" M166.74,355.01L179.42,377.44L173.32,379.14Z"/><path d=" M179.42,377.44L173.32,379L179.91,403.12Z"/><path d=" M179.42,377.44L179.91,403.12L186.11,401.54Z"/><path d=" M173.32,379L163.57,381.62L169.99,405.79Z"/><path d=" M173.32,379L169.99,405.79L179.91,403.12Z"/><path d=" M163.57,381.62L155.03,383.96L161.31,408.16Z"/><path d=" M163.57,381.62L161.31,408.16L169.99,405.79Z"/><path d=" M155.03,383.96L163.57,381.74L169.99,405.91Z"/><path d=" M155.03,383.96L169.99,405.91L161.31,408.16Z"/><path d=" M163.57,381.74L173.32,379.14L179.91,403.26Z"/><path d=" M163.57,381.74L179.91,403.26L169.99,405.91Z"/><path d=" M173.32,379.14L179.42,377.44L186.11,401.54Z"/><path d=" M173.32,379.14L186.11,401.54L179.91,403.26Z"/><path d=" M186.11,401.54L179.91,403.12L186.5,427.25Z"/><path d=" M186.11,401.54L186.5,427.25L192.8,425.63Z"/><path d=" M179.91,403.12L169.99,405.79L176.42,429.96Z"/><path d=" M179.91,403.12L176.42,429.96L186.5,427.25Z"/><path d=" M169.99,405.79L161.31,408.16L167.6,432.37Z"/><path d=" M169.99,405.79L167.6,432.37L176.42,429.96Z"/><path d=" M161.31,408.16L169.99,405.91L176.42,430.08Z"/><path d=" M161.31,408.16L176.42,430.08L167.6,432.37Z"/><path d=" M169.99,405.91L179.91,403.26L186.5,427.39Z"/><path d=" M169.99,405.91L186.5,427.39L176.42,430.08Z"/><path d=" M179.91,403.26L186.11,401.54L192.8,425.63Z"/><path d=" M179.91,403.26L192.8,425.63L186.5,427.39Z"/><path d=" M192.8,425.63L186.5,427.25L193.09,451.37Z"/><path d=" M192.8,425.63L193.09,451.37L199.49,449.73Z"/><path d=" M186.5,427.25L176.42,429.96L182.85,454.12Z"/><path d=" M186.5,427.25L182.85,454.12L193.09,451.37Z"/><path d=" M176.42,429.96L167.6,432.37L173.88,456.58Z"/><path d=" M176.42,429.96L173.88,456.58L182.85,454.12Z"/><path d=" M167.6,432.37L176.42,430.08L182.85,454.25Z"/><path d=" M167.6,432.37L182.85,454.25L173.88,456.58Z"/><path d=" M176.42,430.08L186.5,427.39L193.09,451.52Z"/><path d=" M176.42,430.08L193.09,451.52L182.85,454.25Z"/><path d=" M186.5,427.39L192.8,425.63L199.49,449.73Z"/><path d=" M186.5,427.39L199.49,449.73L193.09,451.52Z"/><path d=" M199.49,449.73L193.09,451.37L199.68,475.5Z"/><path d=" M199.49,449.73L199.68,475.5L206.19,473.83Z"/><path d=" M193.09,451.37L182.85,454.12L189.27,478.29Z"/><path d=" M193.09,451.37L189.27,478.29L199.68,475.5Z"/><path d=" M182.85,454.12L173.88,456.58L180.17,480.79Z"/><path d=" M182.85,454.12L180.17,480.79L189.27,478.29Z"/><path d=" M173.88,456.58L182.85,454.25L189.27,478.42Z"/><path d=" M173.88,456.58L189.27,478.42L180.17,480.79Z"/><path d=" M182.85,454.25L193.09,451.52L199.68,475.64Z"/><path d=" M182.85,454.25L199.68,475.64L189.27,478.42Z"/><path d=" M193.09,451.52L199.49,449.73L206.19,473.83Z"/><path d=" M193.09,451.52L206.19,473.83L199.68,475.64Z"/><path d=" M206.19,473.83L199.68,475.5L206.27,499.62Z"/><path d=" M206.19,473.83L206.27,499.62L212.88,497.93Z"/><path d=" M199.68,475.5L189.27,478.29L195.7,502.46Z"/><path d=" M199.68,475.5L195.7,502.46L206.27,499.62Z"/><path d=" M189.27,478.29L180.17,480.79L186.45,504.99Z"/><path d=" M189.27,478.29L186.45,504.99L195.7,502.46Z"/><path d=" M180.17,480.79L189.27,478.42L195.7,502.59Z"/><path d=" M180.17,480.79L195.7,502.59L186.45,504.99Z"/><path d=" M189.27,478.42L199.68,475.64L206.27,499.77Z"/><path d=" M189.27,478.42L206.27,499.77L195.7,502.59Z"/><path d=" M199.68,475.64L206.19,473.83L212.88,497.93Z"/><path d=" M199.68,475.64L212.88,497.93L206.27,499.77Z"/><path d=" M212.88,497.93L206.27,499.62L212.86,523.75Z"/><path d=" M212.88,497.93L212.86,523.75L219.57,522.03Z"/><path d=" M206.27,499.62L195.7,502.46L202.13,526.63Z"/><path d=" M206.27,499.62L202.13,526.63L212.86,523.75Z"/><path d=" M195.7,502.46L186.45,504.99L192.74,529.2Z"/><path d=" M195.7,502.46L192.74,529.2L202.13,526.63Z"/><path d=" M186.45,504.99L195.7,502.59L202.13,526.76Z"/><path d=" M186.45,504.99L202.13,526.76L192.74,529.2Z"/><path d=" M195.7,502.59L206.27,499.77L212.86,523.9Z"/><path d=" M195.7,502.59L212.86,523.9L202.13,526.76Z"/><path d=" M206.27,499.77L212.88,497.93L219.57,522.03Z"/><path d=" M206.27,499.77L219.57,522.03L212.86,523.9Z"/><path d=" M219.57,522.03L212.86,523.75L219.45,547.87Z"/><path d=" M219.57,522.03L219.45,547.87L226.26,546.13Z"/><path d=" M212.86,523.75L202.13,526.63L208.55,550.8Z"/><path d=" M212.86,523.75L208.55,550.8L219.45,547.87Z"/><path d=" M202.13,526.63L192.74,529.2L199.02,553.41Z"/><path d=" M202.13,526.63L199.02,553.41L208.55,550.8Z"/><path d=" M192.74,529.2L202.13,526.76L208.55,550.93Z"/><path d=" M192.74,529.2L208.55,550.93L199.02,553.41Z"/><path d=" M202.13,526.76L212.86,523.9L219.45,548.02Z"/><path d=" M202.13,526.76L219.45,548.02L208.55,550.93Z"/><path d=" M212.86,523.9L219.57,522.03L226.26,546.13Z"/><path d=" M212.86,523.9L226.26,546.13L219.45,548.02Z"/><path d=" M226.26,546.13L219.45,547.87L226.04,572Z"/><path d=" M226.26,546.13L226.04,572L232.95,570.22Z"/><path d=" M219.45,547.87L208.55,550.8L214.98,574.97Z"/><path d=" M219.45,547.87L214.98,574.97L226.04,572Z"/><path d=" M208.55,550.8L199.02,553.41L205.3,577.61Z"/><path d=" M208.55,550.8L205.3,577.61L214.98,574.97Z"/><path d=" M199.02,553.41L208.55,550.93L214.98,575.1Z"/><path d=" M199.02,553.41L214.98,575.1L205.3,577.61Z"/><path d=" M208.55,550.93L219.45,548.02L226.04,572.15Z"/><path d=" M208.55,550.93L226.04,572.15L214.98,575.1Z"/><path d=" M219.45,548.02L226.26,546.13L232.95,570.22Z"/><path d=" M219.45,548.02L232.95,570.22L226.04,572.15Z"/><path d=" M232.95,570.22L226.04,572L232.63,596.12Z"/><path d=" M232.95,570.22L232.63,596.12L239.64,594.32Z"/><path d=" M226.04,572L214.98,574.97L221.41,599.13Z"/><path d=" M226.04,572L221.41,599.13L232.63,596.12Z"/><path d=" M214.98,574.97L205.3,577.61L211.59,601.82Z"/><path d=" M214.98,574.97L211.59,601.82L221.41,599.13Z"/><path d=" M205.3,577.61L214.98,575.1L221.41,599.27Z"/><path d=" M205.3,577.61L221.41,599.27L211.59,601.82Z"/><path d=" M214.98,575.1L226.04,572.15L232.63,596.28Z"/><path d=" M214.98,575.1L232.63,596.28L221.41,599.27Z"/><path d=" M226.04,572.15L232.95,570.22L239.64,594.32Z"/><path d=" M226.04,572.15L239.64,594.32L232.63,596.28Z"/><path d=" M239.64,594.32L232.63,596.12L239.22,620.24Z"/><path d=" M239.64,594.32L239.22,620.24L246.33,618.42Z"/><path d=" M232.63,596.12L221.41,599.13L227.83,623.3Z"/><path d=" M232.63,596.12L227.83,623.3L239.22,620.24Z"/><path d=" M221.41,599.13L211.59,601.82L217.87,626.03Z"/><path d=" M221.41,599.13L217.87,626.03L227.83,623.3Z"/><path d=" M211.59,601.82L221.41,599.27L227.83,623.44Z"/><path d=" M211.59,601.82L227.83,623.44L217.87,626.03Z"/><path d=" M221.41,599.27L232.63,596.28L239.22,620.4Z"/><path d=" M221.41,599.27L239.22,620.4L227.83,623.44Z"/><path d=" M232.63,596.28L239.64,594.32L246.33,618.42Z"/><path d=" M232.63,596.28L246.33,618.42L239.22,620.4Z"/><path d=" M246.33,618.42L239.22,620.24L245.8,644.37Z"/><path d=" M246.33,618.42L245.8,644.37L253.02,642.52Z"/><path d=" M239.22,620.24L227.83,623.3L234.26,647.47Z"/><path d=" M239.22,620.24L234.26,647.47L245.8,644.37Z"/><path d=" M227.83,623.3L217.87,626.03L224.16,650.23Z"/><path d=" M227.83,623.3L224.16,650.23L234.26,647.47Z"/><path d=" M217.87,626.03L227.83,623.44L234.26,647.61Z"/><path d=" M217.87,626.03L234.26,647.61L224.16,650.23Z"/><path d=" M227.83,623.44L239.22,620.4L245.8,644.53Z"/><path d=" M227.83,623.44L245.8,644.53L234.26,647.61Z"/><path d=" M239.22,620.4L246.33,618.42L253.02,642.52Z"/><path d=" M239.22,620.4L253.02,642.52L245.8,644.53Z"/><path d=" M253.02,642.52L245.8,644.37L252.39,668.49Z"/><path d=" M253.02,642.52L252.39,668.49L259.71,666.62Z"/><path d=" M245.8,644.37L234.26,647.47L240.68,671.64Z"/><path d=" M245.8,644.37L240.68,671.64L252.39,668.49Z"/><path d=" M234.26,647.47L224.16,650.23L230.44,674.44Z"/><path d=" M234.26,647.47L230.44,674.44L240.68,671.64Z"/><path d=" M224.16,650.23L234.26,647.61L240.68,671.78Z"/><path d=" M224.16,650.23L240.68,671.78L230.44,674.44Z"/><path d=" M234.26,647.61L245.8,644.53L252.39,668.66Z"/><path d=" M234.26,647.61L252.39,668.66L240.68,671.78Z"/><path d=" M245.8,644.53L253.02,642.52L259.71,666.62Z"/><path d=" M245.8,644.53L259.71,666.62L252.39,668.66Z"/><path d=" M259.71,666.62L252.39,668.49L258.98,692.62Z"/><path d=" M259.71,666.62L258.98,692.62L266.4,690.72Z"/><path d=" M252.39,668.49L240.68,671.64L247.11,695.81Z"/><path d=" M252.39,668.49L247.11,695.81L258.98,692.62Z"/><path d=" M240.68,671.64L230.44,674.44L236.72,698.65Z"/><path d=" M240.68,671.64L236.72,698.65L247.11,695.81Z"/><path d=" M230.44,674.44L240.68,671.78L247.11,695.95Z"/><path d=" M230.44,674.44L247.11,695.95L236.72,698.65Z"/><path d=" M240.68,671.78L252.39,668.66L258.98,692.78Z"/><path d=" M240.68,671.78L258.98,692.78L247.11,695.95Z"/><path d=" M252.39,668.66L259.71,666.62L266.4,690.72Z"/><path d=" M252.39,668.66L266.4,690.72L258.98,692.78Z"/><path d=" M266.4,690.72L258.98,692.62L265.57,716.74Z"/><path d=" M266.4,690.72L265.57,716.74L273.09,714.81Z"/><path d=" M258.98,692.62L247.11,695.81L253.54,719.97Z"/><path d=" M258.98,692.62L253.54,719.97L265.57,716.74Z"/><path d=" M247.11,695.81L236.72,698.65L243.01,722.86Z"/><path d=" M247.11,695.81L243.01,722.86L253.54,719.97Z"/><path d=" M236.72,698.65L247.11,695.95L253.54,720.12Z"/><path d=" M236.72,698.65L253.54,720.12L243.01,722.86Z"/><path d=" M247.11,695.95L258.98,692.78L265.57,716.91Z"/><path d=" M247.11,695.95L265.57,716.91L253.54,720.12Z"/><path d=" M258.98,692.78L266.4,690.72L273.09,714.81Z"/><path d=" M258.98,692.78L273.09,714.81L265.57,716.91Z"/><path d=" M273.09,714.81L265.57,716.74L272.16,740.87Z"/><path d=" M273.09,714.81L272.16,740.87L279.78,738.91Z"/><path d=" M265.57,716.74L253.54,719.97L259.96,744.14Z"/><path d=" M265.57,716.74L259.96,744.14L272.16,740.87Z"/><path d=" M253.54,719.97L243.01,722.86L249.29,747.06Z"/><path d=" M253.54,719.97L249.29,747.06L259.96,744.14Z"/><path d=" M243.01,722.86L253.54,720.12L259.96,744.29Z"/><path d=" M243.01,722.86L259.96,744.29L249.29,747.06Z"/><path d=" M253.54,720.12L265.57,716.91L272.16,741.04Z"/><path d=" M253.54,720.12L272.16,741.04L259.96,744.29Z"/><path d=" M265.57,716.91L273.09,714.81L279.78,738.91Z"/><path d=" M265.57,716.91L279.78,738.91L272.16,741.04Z"/><path d=" M279.78,738.91L272.16,740.87L280.13,764.64Z"/><path d=" M279.78,738.91L280.13,764.64L286.47,763.01Z"/><path d=" M272.16,740.87L259.96,744.14L269.99,767.36Z"/><path d=" M272.16,740.87L269.99,767.36L280.13,764.64Z"/><path d=" M259.96,744.14L249.29,747.06L261.11,769.79Z"/><path d=" M259.96,744.14L261.11,769.79L269.99,767.36Z"/><path d=" M249.29,747.06L259.96,744.29L269.99,767.48Z"/><path d=" M249.29,747.06L269.99,767.48L261.11,769.79Z"/><path d=" M259.96,744.29L272.16,741.04L280.13,764.78Z"/><path d=" M259.96,744.29L280.13,764.78L269.99,767.48Z"/><path d=" M272.16,741.04L279.78,738.91L286.47,763.01Z"/><path d=" M272.16,741.04L286.47,763.01L280.13,764.78Z"/><path d=" M152.81,306.89L145.45,308.83L149.98,307.62Z"/><path d=" M286.47,763.01L280.13,764.64L269.99,767.36Z"/><path d=" M152.81,306.89L141.49,309.92L145.45,308.83Z"/><path d=" M286.47,763.01L269.99,767.36L261.11,769.79Z"/><path d=" M152.81,306.89L145.45,308.89L141.49,309.92Z"/><path d=" M286.47,763.01L261.11,769.79L269.99,767.48Z"/><path d=" M152.81,306.89L149.98,307.68L145.45,308.89Z"/><path d=" M286.47,763.01L269.99,767.48L280.13,764.78Z"/><path d=" M135.19,280.85L138.02,280.06L131.1,256.02Z"/><path d=" M135.19,280.85L131.1,256.02L128.52,256.74Z"/><path d=" M138.02,280.06L142.55,278.85L135.23,254.92Z"/><path d=" M138.02,280.06L135.23,254.92L131.1,256.02Z"/><path d=" M142.55,278.85L146.51,277.82L138.85,253.98Z"/><path d=" M142.55,278.85L138.85,253.98L135.23,254.92Z"/><path d=" M146.51,277.82L142.55,278.91L135.23,254.97Z"/><path d=" M146.51,277.82L135.23,254.97L138.85,253.98Z"/><path d=" M142.55,278.91L138.02,280.12L131.1,256.08Z"/><path d=" M142.55,278.91L131.1,256.08L135.23,254.97Z"/><path d=" M138.02,280.12L135.19,280.85L128.52,256.74Z"/><path d=" M138.02,280.12L128.52,256.74L131.1,256.08Z"/><path d=" M128.52,256.74L131.1,256.02L121.26,232.73Z"/><path d=" M128.52,256.74L121.26,232.73L115.27,234.4Z"/><path d=" M131.1,256.02L135.23,254.92L130.86,230.17Z"/><path d=" M131.1,256.02L130.86,230.17L121.26,232.73Z"/><path d=" M135.23,254.92L138.85,253.98L139.25,227.98Z"/><path d=" M135.23,254.92L139.25,227.98L130.86,230.17Z"/><path d=" M138.85,253.98L135.23,254.97L130.86,230.29Z"/><path d=" M138.85,253.98L130.86,230.29L139.25,227.98Z"/><path d=" M135.23,254.97L131.1,256.08L121.26,232.86Z"/><path d=" M135.23,254.97L121.26,232.86L130.86,230.29Z"/><path d=" M131.1,256.08L128.52,256.74L115.27,234.4Z"/><path d=" M131.1,256.08L115.27,234.4L121.26,232.86Z"/><path d=" M115.27,234.4L121.26,232.73L114.67,208.6Z"/><path d=" M115.27,234.4L114.67,208.6L108.58,210.3Z"/><path d=" M121.26,232.73L130.86,230.17L124.43,206Z"/><path d=" M121.26,232.73L124.43,206L114.67,208.6Z"/><path d=" M130.86,230.17L139.25,227.98L132.97,203.77Z"/><path d=" M130.86,230.17L132.97,203.77L124.43,206Z"/><path d=" M139.25,227.98L130.86,230.29L124.43,206.12Z"/><path d=" M139.25,227.98L124.43,206.12L132.97,203.77Z"/><path d=" M130.86,230.29L121.26,232.86L114.67,208.74Z"/><path d=" M130.86,230.29L114.67,208.74L124.43,206.12Z"/><path d=" M121.26,232.86L115.27,234.4L108.58,210.3Z"/><path d=" M121.26,232.86L108.58,210.3L114.67,208.74Z"/><path d=" M108.58,210.3L114.67,208.6L108.09,184.48Z"/><path d=" M108.58,210.3L108.09,184.48L101.89,186.2Z"/><path d=" M114.67,208.6L124.43,206L118.01,181.83Z"/><path d=" M114.67,208.6L118.01,181.83L108.09,184.48Z"/><path d=" M124.43,206L132.97,203.77L126.68,179.57Z"/><path d=" M124.43,206L126.68,179.57L118.01,181.83Z"/><path d=" M132.97,203.77L124.43,206.12L118.01,181.95Z"/><path d=" M132.97,203.77L118.01,181.95L126.68,179.57Z"/><path d=" M124.43,206.12L114.67,208.74L108.09,184.61Z"/><path d=" M124.43,206.12L108.09,184.61L118.01,181.95Z"/><path d=" M114.67,208.74L108.58,210.3L101.89,186.2Z"/><path d=" M114.67,208.74L101.89,186.2L108.09,184.61Z"/><path d=" M101.89,186.2L108.09,184.48L101.5,160.35Z"/><path d=" M101.89,186.2L101.5,160.35L95.2,162.11Z"/><path d=" M108.09,184.48L118.01,181.83L111.58,157.66Z"/><path d=" M108.09,184.48L111.58,157.66L101.5,160.35Z"/><path d=" M118.01,181.83L126.68,179.57L120.4,155.36Z"/><path d=" M118.01,181.83L120.4,155.36L111.58,157.66Z"/><path d=" M126.68,179.57L118.01,181.95L111.58,157.78Z"/><path d=" M126.68,179.57L111.58,157.78L120.4,155.36Z"/><path d=" M118.01,181.95L108.09,184.61L101.5,160.49Z"/><path d=" M118.01,181.95L101.5,160.49L111.58,157.78Z"/><path d=" M108.09,184.61L101.89,186.2L95.2,162.11Z"/><path d=" M108.09,184.61L95.2,162.11L101.5,160.49Z"/><path d=" M95.2,162.11L101.5,160.35L94.91,136.22Z"/><path d=" M95.2,162.11L94.91,136.22L88.5,138.01Z"/><path d=" M101.5,160.35L111.58,157.66L105.15,133.49Z"/><path d=" M101.5,160.35L105.15,133.49L94.91,136.22Z"/><path d=" M111.58,157.66L120.4,155.36L114.12,131.15Z"/><path d=" M111.58,157.66L114.12,131.15L105.15,133.49Z"/><path d=" M120.4,155.36L111.58,157.78L105.15,133.61Z"/><path d=" M120.4,155.36L105.15,133.61L114.12,131.15Z"/><path d=" M111.58,157.78L101.5,160.49L94.91,136.37Z"/><path d=" M111.58,157.78L94.91,136.37L105.15,133.61Z"/><path d=" M101.5,160.49L95.2,162.11L88.5,138.01Z"/><path d=" M101.5,160.49L88.5,138.01L94.91,136.37Z"/><path d=" M88.5,138.01L94.91,136.22L88.32,112.1Z"/><path d=" M88.5,138.01L88.32,112.1L81.81,113.91Z"/><path d=" M94.91,136.22L105.15,133.49L98.73,109.32Z"/><path d=" M94.91,136.22L98.73,109.32L88.32,112.1Z"/><path d=" M105.15,133.49L114.12,131.15L107.83,106.94Z"/><path d=" M105.15,133.49L107.83,106.94L98.73,109.32Z"/><path d=" M114.12,131.15L105.15,133.61L98.73,109.45Z"/><path d=" M114.12,131.15L98.73,109.45L107.83,106.94Z"/><path d=" M105.15,133.61L94.91,136.37L88.32,112.24Z"/><path d=" M105.15,133.61L88.32,112.24L98.73,109.45Z"/><path d=" M94.91,136.37L88.5,138.01L81.81,113.91Z"/><path d=" M94.91,136.37L81.81,113.91L88.32,112.24Z"/><path d=" M81.81,113.91L88.32,112.1L81.73,87.97Z"/><path d=" M81.81,113.91L81.73,87.97L75.12,89.81Z"/><path d=" M88.32,112.1L98.73,109.32L92.3,85.15Z"/><path d=" M88.32,112.1L92.3,85.15L81.73,87.97Z"/><path d=" M98.73,109.32L107.83,106.94L101.55,82.74Z"/><path d=" M98.73,109.32L101.55,82.74L92.3,85.15Z"/><path d=" M107.83,106.94L98.73,109.45L92.3,85.28Z"/><path d=" M107.83,106.94L92.3,85.28L101.55,82.74Z"/><path d=" M98.73,109.45L88.32,112.24L81.73,88.12Z"/><path d=" M98.73,109.45L81.73,88.12L92.3,85.28Z"/><path d=" M88.32,112.24L81.81,113.91L75.12,89.81Z"/><path d=" M88.32,112.24L75.12,89.81L81.73,88.12Z"/><path d=" M75.12,89.81L81.73,87.97L75.14,63.84Z"/><path d=" M75.12,89.81L75.14,63.84L68.43,65.71Z"/><path d=" M81.73,87.97L92.3,85.15L85.87,60.98Z"/><path d=" M81.73,87.97L85.87,60.98L75.14,63.84Z"/><path d=" M92.3,85.15L101.55,82.74L95.26,58.53Z"/><path d=" M92.3,85.15L95.26,58.53L85.87,60.98Z"/><path d=" M101.55,82.74L92.3,85.28L85.87,61.11Z"/><path d=" M101.55,82.74L85.87,61.11L95.26,58.53Z"/><path d=" M92.3,85.28L81.73,88.12L75.14,63.99Z"/><path d=" M92.3,85.28L75.14,63.99L85.87,61.11Z"/><path d=" M81.73,88.12L75.12,89.81L68.43,65.71Z"/><path d=" M81.73,88.12L68.43,65.71L75.14,63.99Z"/><path d=" M68.43,65.71L75.14,63.84L68.55,39.72Z"/><path d=" M68.43,65.71L68.55,39.72L61.74,41.61Z"/><path d=" M75.14,63.84L85.87,60.98L79.45,36.81Z"/><path d=" M75.14,63.84L79.45,36.81L68.55,39.72Z"/><path d=" M85.87,60.98L95.26,58.53L88.98,34.32Z"/><path d=" M85.87,60.98L88.98,34.32L79.45,36.81Z"/><path d=" M95.26,58.53L85.87,61.11L79.45,36.94Z"/><path d=" M95.26,58.53L79.45,36.94L88.98,34.32Z"/><path d=" M85.87,61.11L75.14,63.99L68.55,39.87Z"/><path d=" M85.87,61.11L68.55,39.87L79.45,36.94Z"/><path d=" M75.14,63.99L68.43,65.71L61.74,41.61Z"/><path d=" M75.14,63.99L61.74,41.61L68.55,39.87Z"/><path d=" M61.74,41.61L68.55,39.72L61.96,15.59Z"/><path d=" M61.74,41.61L61.96,15.59L55.05,17.51Z"/><path d=" M68.55,39.72L79.45,36.81L73.02,12.64Z"/><path d=" M68.55,39.72L73.02,12.64L61.96,15.59Z"/><path d=" M79.45,36.81L88.98,34.32L82.7,10.12Z"/><path d=" M79.45,36.81L82.7,10.12L73.02,12.64Z"/><path d=" M88.98,34.32L79.45,36.94L73.02,12.77Z"/><path d=" M88.98,34.32L73.02,12.77L82.7,10.12Z"/><path d=" M79.45,36.94L68.55,39.87L61.96,15.74Z"/><path d=" M79.45,36.94L61.96,15.74L73.02,12.77Z"/><path d=" M68.55,39.87L61.74,41.61L55.05,17.51Z"/><path d=" M68.55,39.87L55.05,17.51L61.96,15.74Z"/><path d=" M55.05,17.51L61.96,15.59L55.37,-8.54Z"/><path d=" M55.05,17.51L55.37,-8.54L48.36,-6.58Z"/><path d=" M61.96,15.59L73.02,12.64L66.59,-11.53Z"/><path d=" M61.96,15.59L66.59,-11.53L55.37,-8.54Z"/><path d=" M73.02,12.64L82.7,10.12L76.41,-14.09Z"/><path d=" M73.02,12.64L76.41,-14.09L66.59,-11.53Z"/><path d=" M82.7,10.12L73.02,12.77L66.59,-11.39Z"/><path d=" M82.7,10.12L66.59,-11.39L76.41,-14.09Z"/><path d=" M73.02,12.77L61.96,15.74L55.37,-8.38Z"/><path d=" M73.02,12.77L55.37,-8.38L66.59,-11.39Z"/><path d=" M61.96,15.74L55.05,17.51L48.36,-6.58Z"/><path d=" M61.96,15.74L48.36,-6.58L55.37,-8.38Z"/><path d=" M48.36,-6.58L55.37,-8.54L48.78,-32.66Z"/><path d=" M48.36,-6.58L48.78,-32.66L41.67,-30.68Z"/><path d=" M55.37,-8.54L66.59,-11.53L60.17,-35.7Z"/><path d=" M55.37,-8.54L60.17,-35.7L48.78,-32.66Z"/><path d=" M66.59,-11.53L76.41,-14.09L70.13,-38.3Z"/><path d=" M66.59,-11.53L70.13,-38.3L60.17,-35.7Z"/><path d=" M76.41,-14.09L66.59,-11.39L60.17,-35.56Z"/><path d=" M76.41,-14.09L60.17,-35.56L70.13,-38.3Z"/><path d=" M66.59,-11.39L55.37,-8.38L48.78,-32.51Z"/><path d=" M66.59,-11.39L48.78,-32.51L60.17,-35.56Z"/><path d=" M55.37,-8.38L48.36,-6.58L41.67,-30.68Z"/><path d=" M55.37,-8.38L41.67,-30.68L48.78,-32.51Z"/><path d=" M41.67,-30.68L48.78,-32.66L42.2,-56.79Z"/><path d=" M41.67,-30.68L42.2,-56.79L34.98,-54.78Z"/><path d=" M48.78,-32.66L60.17,-35.7L53.74,-59.87Z"/><path d=" M48.78,-32.66L53.74,-59.87L42.2,-56.79Z"/><path d=" M60.17,-35.7L70.13,-38.3L63.84,-62.51Z"/><path d=" M60.17,-35.7L63.84,-62.51L53.74,-59.87Z"/><path d=" M70.13,-38.3L60.17,-35.56L53.74,-59.73Z"/><path d=" M70.13,-38.3L53.74,-59.73L63.84,-62.51Z"/><path d=" M60.17,-35.56L48.78,-32.51L42.2,-56.63Z"/><path d=" M60.17,-35.56L42.2,-56.63L53.74,-59.73Z"/><path d=" M48.78,-32.51L41.67,-30.68L34.98,-54.78Z"/><path d=" M48.78,-32.51L34.98,-54.78L42.2,-56.63Z"/><path d=" M34.98,-54.78L42.2,-56.79L35.61,-80.92Z"/><path d=" M34.98,-54.78L35.61,-80.92L28.29,-78.88Z"/><path d=" M42.2,-56.79L53.74,-59.87L47.31,-84.04Z"/><path d=" M42.2,-56.79L47.31,-84.04L35.61,-80.92Z"/><path d=" M53.74,-59.87L63.84,-62.51L57.56,-86.71Z"/><path d=" M53.74,-59.87L57.56,-86.71L47.31,-84.04Z"/><path d=" M63.84,-62.51L53.74,-59.73L47.31,-83.9Z"/><path d=" M63.84,-62.51L47.31,-83.9L57.56,-86.71Z"/><path d=" M53.74,-59.73L42.2,-56.63L35.61,-80.75Z"/><path d=" M53.74,-59.73L35.61,-80.75L47.31,-83.9Z"/><path d=" M42.2,-56.63L34.98,-54.78L28.29,-78.88Z"/><path d=" M42.2,-56.63L28.29,-78.88L35.61,-80.75Z"/><path d=" M28.29,-78.88L35.61,-80.92L29.02,-105.04Z"/><path d=" M28.29,-78.88L29.02,-105.04L21.6,-102.98Z"/><path d=" M35.61,-80.92L47.31,-84.04L40.89,-108.21Z"/><path d=" M35.61,-80.92L40.89,-108.21L29.02,-105.04Z"/><path d=" M47.31,-84.04L57.56,-86.71L51.28,-110.92Z"/><path d=" M47.31,-84.04L51.28,-110.92L40.89,-108.21Z"/><path d=" M57.56,-86.71L47.31,-83.9L40.89,-108.07Z"/><path d=" M57.56,-86.71L40.89,-108.07L51.28,-110.92Z"/><path d=" M47.31,-83.9L35.61,-80.75L29.02,-104.88Z"/><path d=" M47.31,-83.9L29.02,-104.88L40.89,-108.07Z"/><path d=" M35.61,-80.75L28.29,-78.88L21.6,-102.98Z"/><path d=" M35.61,-80.75L21.6,-102.98L29.02,-104.88Z"/><path d=" M21.6,-102.98L29.02,-105.04L22.43,-129.17Z"/><path d=" M21.6,-102.98L22.43,-129.17L14.91,-127.08Z"/><path d=" M29.02,-105.04L40.89,-108.21L34.46,-132.38Z"/><path d=" M29.02,-105.04L34.46,-132.38L22.43,-129.17Z"/><path d=" M40.89,-108.21L51.28,-110.92L44.99,-135.13Z"/><path d=" M40.89,-108.21L44.99,-135.13L34.46,-132.38Z"/><path d=" M51.28,-110.92L40.89,-108.07L34.46,-132.24Z"/><path d=" M51.28,-110.92L34.46,-132.24L44.99,-135.13Z"/><path d=" M40.89,-108.07L29.02,-104.88L22.43,-129Z"/><path d=" M40.89,-108.07L22.43,-129L34.46,-132.24Z"/><path d=" M29.02,-104.88L21.6,-102.98L14.91,-127.08Z"/><path d=" M29.02,-104.88L14.91,-127.08L22.43,-129Z"/><path d=" M14.91,-127.08L22.43,-129.17L15.84,-153.3Z"/><path d=" M14.91,-127.08L15.84,-153.3L8.22,-151.17Z"/><path d=" M22.43,-129.17L34.46,-132.38L28.04,-156.55Z"/><path d=" M22.43,-129.17L28.04,-156.55L15.84,-153.3Z"/><path d=" M34.46,-132.38L44.99,-135.13L38.71,-159.33Z"/><path d=" M34.46,-132.38L38.71,-159.33L28.04,-156.55Z"/><path d=" M44.99,-135.13L34.46,-132.24L28.04,-156.4Z"/><path d=" M44.99,-135.13L28.04,-156.4L38.71,-159.33Z"/><path d=" M34.46,-132.24L22.43,-129L15.84,-153.13Z"/><path d=" M34.46,-132.24L15.84,-153.13L28.04,-156.4Z"/><path d=" M22.43,-129L14.91,-127.08L8.22,-151.17Z"/><path d=" M22.43,-129L8.22,-151.17L15.84,-153.13Z"/><path d=" M8.22,-151.17L15.84,-153.3L7.86,-177.04Z"/><path d=" M8.22,-151.17L7.86,-177.04L1.53,-175.27Z"/><path d=" M15.84,-153.3L28.04,-156.55L18.01,-179.74Z"/><path d=" M15.84,-153.3L18.01,-179.74L7.86,-177.04Z"/><path d=" M28.04,-156.55L38.71,-159.33L26.88,-182.06Z"/><path d=" M28.04,-156.55L26.88,-182.06L18.01,-179.74Z"/><path d=" M38.71,-159.33L28.04,-156.4L18.01,-179.62Z"/><path d=" M38.71,-159.33L18.01,-179.62L26.88,-182.06Z"/><path d=" M28.04,-156.4L15.84,-153.13L7.86,-176.9Z"/><path d=" M28.04,-156.4L7.86,-176.9L18.01,-179.62Z"/><path d=" M15.84,-153.13L8.22,-151.17L1.53,-175.27Z"/><path d=" M15.84,-153.13L1.53,-175.27L7.86,-176.9Z"/><path d=" M135.19,280.85L142.55,278.85L138.02,280.06Z"/><path d=" M1.53,-175.27L7.86,-177.04L18.01,-179.74Z"/><path d=" M135.19,280.85L146.51,277.82L142.55,278.85Z"/><path d=" M1.53,-175.27L18.01,-179.74L26.88,-182.06Z"/><path d=" M135.19,280.85L142.55,278.91L146.51,277.82Z"/><path d=" M1.53,-175.27L26.88,-182.06L18.01,-179.62Z"/><path d=" M135.19,280.85L138.02,280.12L142.55,278.91Z"/><path d=" M1.53,-175.27L18.01,-179.62L7.86,-176.9Z"/><path d=" M145.93,867.99L145.93,867.55L127.05,867.55Z"/><path d=" M145.93,867.99L127.05,867.55L127.05,867.99Z"/><path d=" M145.93,867.55L145.93,866.33L127.05,866.33Z"/><path d=" M145.93,867.55L127.05,866.33L127.05,867.55Z"/><path d=" M145.93,866.33L145.93,864.49L127.05,864.49Z"/><path d=" M145.93,866.33L127.05,864.49L127.05,866.33Z"/><path d=" M145.93,864.49L145.93,862.32L127.05,862.32Z"/><path d=" M145.93,864.49L127.05,862.32L127.05,864.49Z"/><path d=" M145.93,862.32L145.93,860.15L127.05,860.15Z"/><path d=" M145.93,862.32L127.05,860.15L127.05,862.32Z"/><path d=" M145.93,860.15L145.93,858.31L127.05,858.31Z"/><path d=" M145.93,860.15L127.05,858.31L127.05,860.15Z"/><path d=" M145.93,858.31L145.93,857.08L127.05,857.08Z"/><path d=" M145.93,858.31L127.05,857.08L127.05,858.31Z"/><path d=" M145.93,857.08L145.93,856.65L127.05,856.65Z"/><path d=" M145.93,857.08L127.05,856.65L127.05,857.08Z"/><path d=" M145.93,856.65L145.93,857.08L127.05,857.08Z"/><path d=" M145.93,856.65L127.05,857.08L127.05,856.65Z"/><path d=" M145.93,857.08L145.93,858.31L127.05,858.31Z"/><path d=" M145.93,857.08L127.05,858.31L127.05,857.08Z"/><path d=" M145.93,858.31L145.93,860.15L127.05,860.15Z"/><path d=" M145.93,858.31L127.05,860.15L127.05,858.31Z"/><path d=" M145.93,860.15L145.93,862.32L127.05,862.32Z"/><path d=" M145.93,860.15L127.05,862.32L127.05,860.15Z"/><path d=" M145.93,862.32L145.93,864.49L127.05,864.49Z"/><path d=" M145.93,862.32L127.05,864.49L127.05,862.32Z"/><path d=" M145.93,864.49L145.93,866.33L127.05,866.33Z"/><path d=" M145.93,864.49L127.05,866.33L127.05,864.49Z"/><path d=" M145.93,866.33L145.93,867.55L127.05,867.55Z"/><path d=" M145.93,866.33L127.05,867.55L127.05,866.33Z"/><path d=" M145.93,867.55L145.93,867.99L127.05,867.99Z"/><path d=" M145.93,867.55L127.05,867.99L127.05,867.55Z"/><path d=" M145.93,862.32L145.93,867.55L145.93,867.99Z"/><path d=" M127.05,862.32L127.05,867.99L127.05,867.55Z"/><path d=" M145.93,862.32L145.93,866.33L145.93,867.55Z"/><path d=" M127.05,862.32L127.05,867.55L127.05,866.33Z"/><path d=" M145.93,862.32L145.93,864.49L145.93,866.33Z"/><path d=" M127.05,862.32L127.05,866.33L127.05,864.49Z"/><path d=" M145.93,862.32L145.93,862.32L145.93,864.49Z"/><path d=" M127.05,862.32L127.05,864.49L127.05,862.32Z"/><path d=" M145.93,862.32L145.93,860.15L145.93,862.32Z"/><path d=" M127.05,862.32L127.05,862.32L127.05,860.15Z"/><path d=" M145.93,862.32L145.93,858.31L145.93,860.15Z"/><path d=" M127.05,862.32L127.05,860.15L127.05,858.31Z"/><path d=" M145.93,862.32L145.93,857.08L145.93,858.31Z"/><path d=" M127.05,862.32L127.05,858.31L127.05,857.08Z"/><path d=" M145.93,862.32L145.93,856.65L145.93,857.08Z"/><path d=" M127.05,862.32L127.05,857.08L127.05,856.65Z"/><path d=" M145.93,862.32L145.93,857.08L145.93,856.65Z"/><path d=" M127.05,862.32L127.05,856.65L127.05,857.08Z"/><path d=" M145.93,862.32L145.93,858.31L145.93,857.08Z"/><path d=" M127.05,862.32L127.05,857.08L127.05,858.31Z"/><path d=" M145.93,862.32L145.93,860.15L145.93,858.31Z"/><path d=" M127.05,862.32L127.05,858.31L127.05,860.15Z"/><path d=" M145.93,862.32L145.93,862.32L145.93,860.15Z"/><path d=" M127.05,862.32L127.05,860.15L127.05,862.32Z"/><path d=" M145.93,862.32L145.93,864.49L145.93,862.32Z"/><path d=" M127.05,862.32L127.05,862.32L127.05,864.49Z"/><path d=" M145.93,862.32L145.93,866.33L145.93,864.49Z"/><path d=" M127.05,862.32L127.05,864.49L127.05,866.33Z"/><path d=" M145.93,862.32L145.93,867.55L145.93,866.33Z"/><path d=" M127.05,862.32L127.05,866.33L127.05,867.55Z"/><path d=" M145.93,862.32L145.93,867.99L145.93,867.55Z"/><path d=" M127.05,862.32L127.05,867.55L127.05,867.99Z"/><path d=" M127.05,876.48L127.05,875.41L117.6,875.41Z"/><path d=" M127.05,876.48L117.6,875.41L117.6,876.48Z"/><path d=" M127.05,875.41L127.05,872.34L117.6,872.34Z"/><path d=" M127.05,875.41L117.6,872.34L117.6,875.41Z"/><path d=" M127.05,872.34L127.05,867.74L117.6,867.74Z"/><path d=" M127.05,872.34L117.6,867.74L117.6,872.34Z"/><path d=" M127.05,867.74L127.05,862.32L117.6,862.32Z"/><path d=" M127.05,867.74L117.6,862.32L117.6,867.74Z"/><path d=" M127.05,862.32L127.05,856.9L117.6,856.9Z"/><path d=" M127.05,862.32L117.6,856.9L117.6,862.32Z"/><path d=" M127.05,856.9L127.05,852.3L117.6,852.3Z"/><path d=" M127.05,856.9L117.6,852.3L117.6,856.9Z"/><path d=" M127.05,852.3L127.05,849.23L117.6,849.23Z"/><path d=" M127.05,852.3L117.6,849.23L117.6,852.3Z"/><path d=" M127.05,849.23L127.05,848.15L117.6,848.15Z"/><path d=" M127.05,849.23L117.6,848.15L117.6,849.23Z"/><path d=" M127.05,848.15L127.05,849.23L117.6,849.23Z"/><path d=" M127.05,848.15L117.6,849.23L117.6,848.15Z"/><path d=" M127.05,849.23L127.05,852.3L117.6,852.3Z"/><path d=" M127.05,849.23L117.6,852.3L117.6,849.23Z"/><path d=" M127.05,852.3L127.05,856.9L117.6,856.9Z"/><path d=" M127.05,852.3L117.6,856.9L117.6,852.3Z"/><path d=" M127.05,856.9L127.05,862.32L117.6,862.32Z"/><path d=" M127.05,856.9L117.6,862.32L117.6,856.9Z"/><path d=" M127.05,862.32L127.05,867.74L117.6,867.74Z"/><path d=" M127.05,862.32L117.6,867.74L117.6,862.32Z"/><path d=" M127.05,867.74L127.05,872.34L117.6,872.34Z"/><path d=" M127.05,867.74L117.6,872.34L117.6,867.74Z"/><path d=" M127.05,872.34L127.05,875.41L117.6,875.41Z"/><path d=" M127.05,872.34L117.6,875.41L117.6,872.34Z"/><path d=" M127.05,875.41L127.05,876.48L117.6,876.48Z"/><path d=" M127.05,875.41L117.6,876.48L117.6,875.41Z"/><path d=" M127.05,862.32L127.05,875.41L127.05,876.48Z"/><path d=" M117.6,862.32L117.6,876.48L117.6,875.41Z"/><path d=" M127.05,862.32L127.05,872.34L127.05,875.41Z"/><path d=" M117.6,862.32L117.6,875.41L117.6,872.34Z"/><path d=" M127.05,862.32L127.05,867.74L127.05,872.34Z"/><path d=" M117.6,862.32L117.6,872.34L117.6,867.74Z"/><path d=" M127.05,862.32L127.05,862.32L127.05,867.74Z"/><path d=" M117.6,862.32L117.6,867.74L117.6,862.32Z"/><path d=" M127.05,862.32L127.05,856.9L127.05,862.32Z"/><path d=" M117.6,862.32L117.6,862.32L117.6,856.9Z"/><path d=" M127.05,862.32L127.05,852.3L127.05,856.9Z"/><path d=" M117.6,862.32L117.6,856.9L117.6,852.3Z"/><path d=" M127.05,862.32L127.05,849.23L127.05,852.3Z"/><path d=" M117.6,862.32L117.6,852.3L117.6,849.23Z"/><path d=" M127.05,862.32L127.05,848.15L127.05,849.23Z"/><path d=" M117.6,862.32L117.6,849.23L117.6,848.15Z"/><path d=" M127.05,862.32L127.05,849.23L127.05,848.15Z"/><path d=" M117.6,862.32L117.6,848.15L117.6,849.23Z"/><path d=" M127.05,862.32L127.05,852.3L127.05,849.23Z"/><path d=" M117.6,862.32L117.6,849.23L117.6,852.3Z"/><path d=" M127.05,862.32L127.05,856.9L127.05,852.3Z"/><path d=" M117.6,862.32L117.6,852.3L117.6,856.9Z"/><path d=" M127.05,862.32L127.05,862.32L127.05,856.9Z"/><path d=" M117.6,862.32L117.6,856.9L117.6,862.32Z"/><path d=" M127.05,862.32L127.05,867.74L127.05,862.32Z"/><path d=" M117.6,862.32L117.6,862.32L117.6,867.74Z"/><path d=" M127.05,862.32L127.05,872.34L127.05,867.74Z"/><path d=" M117.6,862.32L117.6,867.74L117.6,872.34Z"/><path d=" M127.05,862.32L127.05,875.41L127.05,872.34Z"/><path d=" M117.6,862.32L117.6,872.34L117.6,875.41Z"/><path d=" M127.05,862.32L127.05,876.48L127.05,875.41Z"/><path d=" M117.6,862.32L117.6,875.41L117.6,876.48Z"/><path d=" M127.05,875.14L126.71,875.62L126.54,877.95Z"/><path d=" M127.05,875.14L126.54,877.95L127.05,877.22Z"/><path d=" M126.71,875.62L126.76,876.4L126.62,879.12Z"/><path d=" M126.71,875.62L126.62,879.12L126.54,877.95Z"/><path d=" M126.76,876.4L127.03,877.08L127.02,880.15Z"/><path d=" M126.76,876.4L127.02,880.15L126.62,879.12Z"/><path d=" M127.03,877.08L127.33,876.4L127.47,879.12Z"/><path d=" M127.03,877.08L127.47,879.12L127.02,880.15Z"/><path d=" M127.33,876.4L127.38,875.62L127.55,877.95Z"/><path d=" M127.33,876.4L127.55,877.95L127.47,879.12Z"/><path d=" M127.38,875.62L127.05,875.14L127.05,877.22Z"/><path d=" M127.38,875.62L127.05,877.22L127.55,877.95Z"/><path d=" M127.05,877.22L126.54,877.95L126.47,880.76Z"/><path d=" M127.05,877.22L126.47,880.76L127.05,879.92Z"/><path d=" M126.54,877.95L126.62,879.12L126.56,882.09Z"/><path d=" M126.54,877.95L126.56,882.09L126.47,880.76Z"/><path d=" M126.62,879.12L127.02,880.15L127.01,883.26Z"/><path d=" M126.62,879.12L127.01,883.26L126.56,882.09Z"/><path d=" M127.02,880.15L127.47,879.12L127.53,882.09Z"/><path d=" M127.02,880.15L127.53,882.09L127.01,883.26Z"/><path d=" M127.47,879.12L127.55,877.95L127.63,880.76Z"/><path d=" M127.47,879.12L127.63,880.76L127.53,882.09Z"/><path d=" M127.55,877.95L127.05,877.22L127.05,879.92Z"/><path d=" M127.55,877.95L127.05,879.92L127.63,880.76Z"/><path d=" M127.05,879.92L126.47,880.76L126.4,883.58Z"/><path d=" M127.05,879.92L126.4,883.58L127.05,882.65Z"/><path d=" M126.47,880.76L126.56,882.09L126.5,885.07Z"/><path d=" M126.47,880.76L126.5,885.07L126.4,883.58Z"/><path d=" M126.56,882.09L127.01,883.26L127.01,886.37Z"/><path d=" M126.56,882.09L127.01,886.37L126.5,885.07Z"/><path d=" M127.01,883.26L127.53,882.09L127.59,885.07Z"/><path d=" M127.01,883.26L127.59,885.07L127.01,886.37Z"/><path d=" M127.53,882.09L127.63,880.76L127.69,883.58Z"/><path d=" M127.53,882.09L127.69,883.58L127.59,885.07Z"/><path d=" M127.63,880.76L127.05,879.92L127.05,882.65Z"/><path d=" M127.63,880.76L127.05,882.65L127.69,883.58Z"/><path d=" M127.05,882.65L126.4,883.58L126.38,886.33Z"/><path d=" M127.05,882.65L126.38,886.33L127.05,885.38Z"/><path d=" M126.4,883.58L126.5,885.07L126.49,887.86Z"/><path d=" M126.4,883.58L126.49,887.86L126.38,886.33Z"/><path d=" M126.5,885.07L127.01,886.37L127.01,889.19Z"/><path d=" M126.5,885.07L127.01,889.19L126.49,887.86Z"/><path d=" M127.01,886.37L127.59,885.07L127.6,887.86Z"/><path d=" M127.01,886.37L127.6,887.86L127.01,889.19Z"/><path d=" M127.59,885.07L127.69,883.58L127.71,886.33Z"/><path d=" M127.59,885.07L127.71,886.33L127.6,887.86Z"/><path d=" M127.69,883.58L127.05,882.65L127.05,885.38Z"/><path d=" M127.69,883.58L127.05,885.38L127.71,886.33Z"/><path d=" M127.05,885.38L126.38,886.33L126.39,889.05Z"/><path d=" M127.05,885.38L126.39,889.05L127.05,888.11Z"/><path d=" M126.38,886.33L126.49,887.86L126.5,890.54Z"/><path d=" M126.38,886.33L126.5,890.54L126.39,889.05Z"/><path d=" M126.49,887.86L127.01,889.19L127.01,891.86Z"/><path d=" M126.49,887.86L127.01,891.86L126.5,890.54Z"/><path d=" M127.01,889.19L127.6,887.86L127.59,890.54Z"/><path d=" M127.01,889.19L127.59,890.54L127.01,891.86Z"/><path d=" M127.6,887.86L127.71,886.33L127.7,889.05Z"/><path d=" M127.6,887.86L127.7,889.05L127.59,890.54Z"/><path d=" M127.71,886.33L127.05,885.38L127.05,888.11Z"/><path d=" M127.71,886.33L127.05,888.11L127.7,889.05Z"/><path d=" M127.05,888.11L126.39,889.05L126.41,891.76Z"/><path d=" M127.05,888.11L126.41,891.76L127.05,890.84Z"/><path d=" M126.39,889.05L126.5,890.54L126.51,893.23Z"/><path d=" M126.39,889.05L126.51,893.23L126.41,891.76Z"/><path d=" M126.5,890.54L127.01,891.86L127.01,894.52Z"/><path d=" M126.5,890.54L127.01,894.52L126.51,893.23Z"/><path d=" M127.01,891.86L127.59,890.54L127.58,893.23Z"/><path d=" M127.01,891.86L127.58,893.23L127.01,894.52Z"/><path d=" M127.59,890.54L127.7,889.05L127.69,891.76Z"/><path d=" M127.59,890.54L127.69,891.76L127.58,893.23Z"/><path d=" M127.7,889.05L127.05,888.11L127.05,890.84Z"/><path d=" M127.7,889.05L127.05,890.84L127.69,891.76Z"/><path d=" M127.05,890.84L126.41,891.76L126.42,894.47Z"/><path d=" M127.05,890.84L126.42,894.47L127.05,893.57Z"/><path d=" M126.41,891.76L126.51,893.23L126.52,895.91Z"/><path d=" M126.41,891.76L126.52,895.91L126.42,894.47Z"/><path d=" M126.51,893.23L127.01,894.52L127.01,897.18Z"/><path d=" M126.51,893.23L127.01,897.18L126.52,895.91Z"/><path d=" M127.01,894.52L127.58,893.23L127.57,895.91Z"/><path d=" M127.01,894.52L127.57,895.91L127.01,897.18Z"/><path d=" M127.58,893.23L127.69,891.76L127.67,894.47Z"/><path d=" M127.58,893.23L127.67,894.47L127.57,895.91Z"/><path d=" M127.69,891.76L127.05,890.84L127.05,893.57Z"/><path d=" M127.69,891.76L127.05,893.57L127.67,894.47Z"/><path d=" M127.05,893.57L126.42,894.47L126.43,897.18Z"/><path d=" M127.05,893.57L126.43,897.18L127.05,896.3Z"/><path d=" M126.42,894.47L126.52,895.91L126.53,898.6Z"/><path d=" M126.42,894.47L126.53,898.6L126.43,897.18Z"/><path d=" M126.52,895.91L127.01,897.18L127.01,899.84Z"/><path d=" M126.52,895.91L127.01,899.84L126.53,898.6Z"/><path d=" M127.01,897.18L127.57,895.91L127.56,898.6Z"/><path d=" M127.01,897.18L127.56,898.6L127.01,899.84Z"/><path d=" M127.57,895.91L127.67,894.47L127.66,897.18Z"/><path d=" M127.57,895.91L127.66,897.18L127.56,898.6Z"/><path d=" M127.67,894.47L127.05,893.57L127.05,896.3Z"/><path d=" M127.67,894.47L127.05,896.3L127.66,897.18Z"/><path d=" M127.05,896.3L126.43,897.18L126.44,899.89Z"/><path d=" M127.05,896.3L126.44,899.89L127.05,899.03Z"/><path d=" M126.43,897.18L126.53,898.6L126.54,901.28Z"/><path d=" M126.43,897.18L126.54,901.28L126.44,899.89Z"/><path d=" M126.53,898.6L127.01,899.84L127.01,902.5Z"/><path d=" M126.53,898.6L127.01,902.5L126.54,901.28Z"/><path d=" M127.01,899.84L127.56,898.6L127.55,901.28Z"/><path d=" M127.01,899.84L127.55,901.28L127.01,902.5Z"/><path d=" M127.56,898.6L127.66,897.18L127.65,899.89Z"/><path d=" M127.56,898.6L127.65,899.89L127.55,901.28Z"/><path d=" M127.66,897.18L127.05,896.3L127.05,899.03Z"/><path d=" M127.66,897.18L127.05,899.03L127.65,899.89Z"/><path d=" M127.05,899.03L126.44,899.89L126.45,902.61Z"/><path d=" M127.05,899.03L126.45,902.61L127.05,901.75Z"/><path d=" M126.44,899.89L126.54,901.28L126.55,903.97Z"/><path d=" M126.44,899.89L126.55,903.97L126.45,902.61Z"/><path d=" M126.54,901.28L127.01,902.5L127.01,905.16Z"/><path d=" M126.54,901.28L127.01,905.16L126.55,903.97Z"/><path d=" M127.01,902.5L127.55,901.28L127.54,903.97Z"/><path d=" M127.01,902.5L127.54,903.97L127.01,905.16Z"/><path d=" M127.55,901.28L127.65,899.89L127.64,902.61Z"/><path d=" M127.55,901.28L127.64,902.61L127.54,903.97Z"/><path d=" M127.65,899.89L127.05,899.03L127.05,901.75Z"/><path d=" M127.65,899.89L127.05,901.75L127.64,902.61Z"/><path d=" M127.05,901.75L126.45,902.61L126.47,905.32Z"/><path d=" M127.05,901.75L126.47,905.32L127.05,904.48Z"/><path d=" M126.45,902.61L126.55,903.97L126.56,906.65Z"/><path d=" M126.45,902.61L126.56,906.65L126.47,905.32Z"/><path d=" M126.55,903.97L127.01,905.16L127.01,907.82Z"/><path d=" M126.55,903.97L127.01,907.82L126.56,906.65Z"/><path d=" M127.01,905.16L127.54,903.97L127.53,906.65Z"/><path d=" M127.01,905.16L127.53,906.65L127.01,907.82Z"/><path d=" M127.54,903.97L127.64,902.61L127.63,905.32Z"/><path d=" M127.54,903.97L127.63,905.32L127.53,906.65Z"/><path d=" M127.64,902.61L127.05,901.75L127.05,904.48Z"/><path d=" M127.64,902.61L127.05,904.48L127.63,905.32Z"/><path d=" M127.05,904.48L126.47,905.32L126.48,908.03Z"/><path d=" M127.05,904.48L126.48,908.03L127.05,907.21Z"/><path d=" M126.47,905.32L126.56,906.65L126.57,909.33Z"/><path d=" M126.47,905.32L126.57,909.33L126.48,908.03Z"/><path d=" M126.56,906.65L127.01,907.82L127.01,910.48Z"/><path d=" M126.56,906.65L127.01,910.48L126.57,909.33Z"/><path d=" M127.01,907.82L127.53,906.65L127.52,909.33Z"/><path d=" M127.01,907.82L127.52,909.33L127.01,910.48Z"/><path d=" M127.53,906.65L127.63,905.32L127.61,908.03Z"/><path d=" M127.53,906.65L127.61,908.03L127.52,909.33Z"/><path d=" M127.63,905.32L127.05,904.48L127.05,907.21Z"/><path d=" M127.63,905.32L127.05,907.21L127.61,908.03Z"/><path d=" M127.05,907.21L126.48,908.03L126.49,910.74Z"/><path d=" M127.05,907.21L126.49,910.74L127.05,909.94Z"/><path d=" M126.48,908.03L126.57,909.33L126.58,912.02Z"/><path d=" M126.48,908.03L126.58,912.02L126.49,910.74Z"/><path d=" M126.57,909.33L127.01,910.48L127.01,913.14Z"/><path d=" M126.57,909.33L127.01,913.14L126.58,912.02Z"/><path d=" M127.01,910.48L127.52,909.33L127.51,912.02Z"/><path d=" M127.01,910.48L127.51,912.02L127.01,913.14Z"/><path d=" M127.52,909.33L127.61,908.03L127.6,910.74Z"/><path d=" M127.52,909.33L127.6,910.74L127.51,912.02Z"/><path d=" M127.61,908.03L127.05,907.21L127.05,909.94Z"/><path d=" M127.61,908.03L127.05,909.94L127.6,910.74Z"/><path d=" M127.05,909.94L126.49,910.74L126.5,913.45Z"/><path d=" M127.05,909.94L126.5,913.45L127.05,912.67Z"/><path d=" M126.49,910.74L126.58,912.02L126.59,914.7Z"/><path d=" M126.49,910.74L126.59,914.7L126.5,913.45Z"/><path d=" M126.58,912.02L127.01,913.14L127.01,915.8Z"/><path d=" M126.58,912.02L127.01,915.8L126.59,914.7Z"/><path d=" M127.01,913.14L127.51,912.02L127.5,914.7Z"/><path d=" M127.01,913.14L127.5,914.7L127.01,915.8Z"/><path d=" M127.51,912.02L127.6,910.74L127.59,913.45Z"/><path d=" M127.51,912.02L127.59,913.45L127.5,914.7Z"/><path d=" M127.6,910.74L127.05,909.94L127.05,912.67Z"/><path d=" M127.6,910.74L127.05,912.67L127.59,913.45Z"/><path d=" M127.05,912.67L126.5,913.45L126.51,916.16Z"/><path d=" M127.05,912.67L126.51,916.16L127.05,915.4Z"/><path d=" M126.5,913.45L126.59,914.7L126.6,917.39Z"/><path d=" M126.5,913.45L126.6,917.39L126.51,916.16Z"/><path d=" M126.59,914.7L127.01,915.8L127.01,918.46Z"/><path d=" M126.59,914.7L127.01,918.46L126.6,917.39Z"/><path d=" M127.01,915.8L127.5,914.7L127.49,917.39Z"/><path d=" M127.01,915.8L127.49,917.39L127.01,918.46Z"/><path d=" M127.5,914.7L127.59,913.45L127.58,916.16Z"/><path d=" M127.5,914.7L127.58,916.16L127.49,917.39Z"/><path d=" M127.59,913.45L127.05,912.67L127.05,915.4Z"/><path d=" M127.59,913.45L127.05,915.4L127.58,916.16Z"/><path d=" M127.05,915.4L126.51,916.16L126.53,918.88Z"/><path d=" M127.05,915.4L126.53,918.88L127.05,918.13Z"/><path d=" M126.51,916.16L126.6,917.39L126.61,920.07Z"/><path d=" M126.51,916.16L126.61,920.07L126.53,918.88Z"/><path d=" M126.6,917.39L127.01,918.46L127.01,921.12Z"/><path d=" M126.6,917.39L127.01,921.12L126.61,920.07Z"/><path d=" M127.01,918.46L127.49,917.39L127.48,920.07Z"/><path d=" M127.01,918.46L127.48,920.07L127.01,921.12Z"/><path d=" M127.49,917.39L127.58,916.16L127.57,918.88Z"/><path d=" M127.49,917.39L127.57,918.88L127.48,920.07Z"/><path d=" M127.58,916.16L127.05,915.4L127.05,918.13Z"/><path d=" M127.58,916.16L127.05,918.13L127.57,918.88Z"/><path d=" M127.05,918.13L126.53,918.88L126.54,921.59Z"/><path d=" M127.05,918.13L126.54,921.59L127.05,920.86Z"/><path d=" M126.53,918.88L126.61,920.07L126.62,922.76Z"/><path d=" M126.53,918.88L126.62,922.76L126.54,921.59Z"/><path d=" M126.61,920.07L127.01,921.12L127.02,923.78Z"/><path d=" M126.61,920.07L127.02,923.78L126.62,922.76Z"/><path d=" M127.01,921.12L127.48,920.07L127.47,922.76Z"/><path d=" M127.01,921.12L127.47,922.76L127.02,923.78Z"/><path d=" M127.48,920.07L127.57,918.88L127.55,921.59Z"/><path d=" M127.48,920.07L127.55,921.59L127.47,922.76Z"/><path d=" M127.57,918.88L127.05,918.13L127.05,920.86Z"/><path d=" M127.57,918.88L127.05,920.86L127.55,921.59Z"/><path d=" M127.05,920.86L126.54,921.59L126.55,924.3Z"/><path d=" M127.05,920.86L126.55,924.3L127.05,923.59Z"/><path d=" M126.54,921.59L126.62,922.76L126.63,925.44Z"/><path d=" M126.54,921.59L126.63,925.44L126.55,924.3Z"/><path d=" M126.62,922.76L127.02,923.78L127.02,926.44Z"/><path d=" M126.62,922.76L127.02,926.44L126.63,925.44Z"/><path d=" M127.02,923.78L127.47,922.76L127.46,925.44Z"/><path d=" M127.02,923.78L127.46,925.44L127.02,926.44Z"/><path d=" M127.47,922.76L127.55,921.59L127.54,924.3Z"/><path d=" M127.47,922.76L127.54,924.3L127.46,925.44Z"/><path d=" M127.55,921.59L127.05,920.86L127.05,923.59Z"/><path d=" M127.55,921.59L127.05,923.59L127.54,924.3Z"/><path d=" M127.05,923.59L126.55,924.3L127.01,928.93Z"/><path d=" M127.05,923.59L127.01,928.93L127.05,928.87Z"/><path d=" M126.55,924.3L126.63,925.44L127.01,929.02Z"/><path d=" M126.55,924.3L127.01,929.02L127.01,928.93Z"/><path d=" M126.63,925.44L127.02,926.44L127.04,929.1Z"/><path d=" M126.63,925.44L127.04,929.1L127.01,929.02Z"/><path d=" M127.02,926.44L127.46,925.44L127.08,929.02Z"/><path d=" M127.02,926.44L127.08,929.02L127.04,929.1Z"/><path d=" M127.46,925.44L127.54,924.3L127.09,928.93Z"/><path d=" M127.46,925.44L127.09,928.93L127.08,929.02Z"/><path d=" M127.54,924.3L127.05,923.59L127.05,928.87Z"/><path d=" M127.54,924.3L127.05,928.87L127.09,928.93Z"/><path d=" M127.05,875.14L126.76,876.4L126.71,875.62Z"/><path d=" M127.05,928.87L127.01,928.93L127.01,929.02Z"/><path d=" M127.05,875.14L127.03,877.08L126.76,876.4Z"/><path d=" M127.05,928.87L127.01,929.02L127.04,929.1Z"/><path d=" M127.05,875.14L127.33,876.4L127.03,877.08Z"/><path d=" M127.05,928.87L127.04,929.1L127.08,929.02Z"/><path d=" M127.05,875.14L127.38,875.62L127.33,876.4Z"/><path d=" M127.05,928.87L127.08,929.02L127.09,928.93Z"/><path d=" M127.05,849.5L126.71,849.02L126.54,846.69Z"/><path d=" M127.05,849.5L126.54,846.69L127.05,847.42Z"/><path d=" M126.71,849.02L126.76,848.24L126.62,845.52Z"/><path d=" M126.71,849.02L126.62,845.52L126.54,846.69Z"/><path d=" M126.76,848.24L127.03,847.56L127.02,844.49Z"/><path d=" M126.76,848.24L127.02,844.49L126.62,845.52Z"/><path d=" M127.03,847.56L127.33,848.24L127.47,845.52Z"/><path d=" M127.03,847.56L127.47,845.52L127.02,844.49Z"/><path d=" M127.33,848.24L127.38,849.02L127.55,846.69Z"/><path d=" M127.33,848.24L127.55,846.69L127.47,845.52Z"/><path d=" M127.38,849.02L127.05,849.5L127.05,847.42Z"/><path d=" M127.38,849.02L127.05,847.42L127.55,846.69Z"/><path d=" M127.05,847.42L126.54,846.69L126.47,843.88Z"/><path d=" M127.05,847.42L126.47,843.88L127.05,844.72Z"/><path d=" M126.54,846.69L126.62,845.52L126.56,842.55Z"/><path d=" M126.54,846.69L126.56,842.55L126.47,843.88Z"/><path d=" M126.62,845.52L127.02,844.49L127.01,841.38Z"/><path d=" M126.62,845.52L127.01,841.38L126.56,842.55Z"/><path d=" M127.02,844.49L127.47,845.52L127.53,842.55Z"/><path d=" M127.02,844.49L127.53,842.55L127.01,841.38Z"/><path d=" M127.47,845.52L127.55,846.69L127.63,843.88Z"/><path d=" M127.47,845.52L127.63,843.88L127.53,842.55Z"/><path d=" M127.55,846.69L127.05,847.42L127.05,844.72Z"/><path d=" M127.55,846.69L127.05,844.72L127.63,843.88Z"/><path d=" M127.05,844.72L126.47,843.88L126.4,841.06Z"/><path d=" M127.05,844.72L126.4,841.06L127.05,841.99Z"/><path d=" M126.47,843.88L126.56,842.55L126.5,839.57Z"/><path d=" M126.47,843.88L126.5,839.57L126.4,841.06Z"/><path d=" M126.56,842.55L127.01,841.38L127.01,838.27Z"/><path d=" M126.56,842.55L127.01,838.27L126.5,839.57Z"/><path d=" M127.01,841.38L127.53,842.55L127.59,839.57Z"/><path d=" M127.01,841.38L127.59,839.57L127.01,838.27Z"/><path d=" M127.53,842.55L127.63,843.88L127.69,841.06Z"/><path d=" M127.53,842.55L127.69,841.06L127.59,839.57Z"/><path d=" M127.63,843.88L127.05,844.72L127.05,841.99Z"/><path d=" M127.63,843.88L127.05,841.99L127.69,841.06Z"/><path d=" M127.05,841.99L126.4,841.06L126.38,838.31Z"/><path d=" M127.05,841.99L126.38,838.31L127.05,839.26Z"/><path d=" M126.4,841.06L126.5,839.57L126.49,836.78Z"/><path d=" M126.4,841.06L126.49,836.78L126.38,838.31Z"/><path d=" M126.5,839.57L127.01,838.27L127.01,835.44Z"/><path d=" M126.5,839.57L127.01,835.44L126.49,836.78Z"/><path d=" M127.01,838.27L127.59,839.57L127.6,836.78Z"/><path d=" M127.01,838.27L127.6,836.78L127.01,835.44Z"/><path d=" M127.59,839.57L127.69,841.06L127.71,838.31Z"/><path d=" M127.59,839.57L127.71,838.31L127.6,836.78Z"/><path d=" M127.69,841.06L127.05,841.99L127.05,839.26Z"/><path d=" M127.69,841.06L127.05,839.26L127.71,838.31Z"/><path d=" M127.05,839.26L126.38,838.31L126.39,835.59Z"/><path d=" M127.05,839.26L126.39,835.59L127.05,836.53Z"/><path d=" M126.38,838.31L126.49,836.78L126.5,834.09Z"/><path d=" M126.38,838.31L126.5,834.09L126.39,835.59Z"/><path d=" M126.49,836.78L127.01,835.44L127.01,832.78Z"/><path d=" M126.49,836.78L127.01,832.78L126.5,834.09Z"/><path d=" M127.01,835.44L127.6,836.78L127.59,834.09Z"/><path d=" M127.01,835.44L127.59,834.09L127.01,832.78Z"/><path d=" M127.6,836.78L127.71,838.31L127.7,835.59Z"/><path d=" M127.6,836.78L127.7,835.59L127.59,834.09Z"/><path d=" M127.71,838.31L127.05,839.26L127.05,836.53Z"/><path d=" M127.71,838.31L127.05,836.53L127.7,835.59Z"/><path d=" M127.05,836.53L126.39,835.59L126.41,832.88Z"/><path d=" M127.05,836.53L126.41,832.88L127.05,833.8Z"/><path d=" M126.39,835.59L126.5,834.09L126.51,831.41Z"/><path d=" M126.39,835.59L126.51,831.41L126.41,832.88Z"/><path d=" M126.5,834.09L127.01,832.78L127.01,830.12Z"/><path d=" M126.5,834.09L127.01,830.12L126.51,831.41Z"/><path d=" M127.01,832.78L127.59,834.09L127.58,831.41Z"/><path d=" M127.01,832.78L127.58,831.41L127.01,830.12Z"/><path d=" M127.59,834.09L127.7,835.59L127.69,832.88Z"/><path d=" M127.59,834.09L127.69,832.88L127.58,831.41Z"/><path d=" M127.7,835.59L127.05,836.53L127.05,833.8Z"/><path d=" M127.7,835.59L127.05,833.8L127.69,832.88Z"/><path d=" M127.05,833.8L126.41,832.88L126.42,830.17Z"/><path d=" M127.05,833.8L126.42,830.17L127.05,831.07Z"/><path d=" M126.41,832.88L126.51,831.41L126.52,828.73Z"/><path d=" M126.41,832.88L126.52,828.73L126.42,830.17Z"/><path d=" M126.51,831.41L127.01,830.12L127.01,827.46Z"/><path d=" M126.51,831.41L127.01,827.46L126.52,828.73Z"/><path d=" M127.01,830.12L127.58,831.41L127.57,828.73Z"/><path d=" M127.01,830.12L127.57,828.73L127.01,827.46Z"/><path d=" M127.58,831.41L127.69,832.88L127.67,830.17Z"/><path d=" M127.58,831.41L127.67,830.17L127.57,828.73Z"/><path d=" M127.69,832.88L127.05,833.8L127.05,831.07Z"/><path d=" M127.69,832.88L127.05,831.07L127.67,830.17Z"/><path d=" M127.05,831.07L126.42,830.17L126.43,827.46Z"/><path d=" M127.05,831.07L126.43,827.46L127.05,828.34Z"/><path d=" M126.42,830.17L126.52,828.73L126.53,826.04Z"/><path d=" M126.42,830.17L126.53,826.04L126.43,827.46Z"/><path d=" M126.52,828.73L127.01,827.46L127.01,824.8Z"/><path d=" M126.52,828.73L127.01,824.8L126.53,826.04Z"/><path d=" M127.01,827.46L127.57,828.73L127.56,826.04Z"/><path d=" M127.01,827.46L127.56,826.04L127.01,824.8Z"/><path d=" M127.57,828.73L127.67,830.17L127.66,827.46Z"/><path d=" M127.57,828.73L127.66,827.46L127.56,826.04Z"/><path d=" M127.67,830.17L127.05,831.07L127.05,828.34Z"/><path d=" M127.67,830.17L127.05,828.34L127.66,827.46Z"/><path d=" M127.05,828.34L126.43,827.46L126.44,824.75Z"/><path d=" M127.05,828.34L126.44,824.75L127.05,825.61Z"/><path d=" M126.43,827.46L126.53,826.04L126.54,823.36Z"/><path d=" M126.43,827.46L126.54,823.36L126.44,824.75Z"/><path d=" M126.53,826.04L127.01,824.8L127.01,822.14Z"/><path d=" M126.53,826.04L127.01,822.14L126.54,823.36Z"/><path d=" M127.01,824.8L127.56,826.04L127.55,823.36Z"/><path d=" M127.01,824.8L127.55,823.36L127.01,822.14Z"/><path d=" M127.56,826.04L127.66,827.46L127.65,824.75Z"/><path d=" M127.56,826.04L127.65,824.75L127.55,823.36Z"/><path d=" M127.66,827.46L127.05,828.34L127.05,825.61Z"/><path d=" M127.66,827.46L127.05,825.61L127.65,824.75Z"/><path d=" M127.05,825.61L126.44,824.75L126.45,822.03Z"/><path d=" M127.05,825.61L126.45,822.03L127.05,822.88Z"/><path d=" M126.44,824.75L126.54,823.36L126.55,820.67Z"/><path d=" M126.44,824.75L126.55,820.67L126.45,822.03Z"/><path d=" M126.54,823.36L127.01,822.14L127.01,819.48Z"/><path d=" M126.54,823.36L127.01,819.48L126.55,820.67Z"/><path d=" M127.01,822.14L127.55,823.36L127.54,820.67Z"/><path d=" M127.01,822.14L127.54,820.67L127.01,819.48Z"/><path d=" M127.55,823.36L127.65,824.75L127.64,822.03Z"/><path d=" M127.55,823.36L127.64,822.03L127.54,820.67Z"/><path d=" M127.65,824.75L127.05,825.61L127.05,822.88Z"/><path d=" M127.65,824.75L127.05,822.88L127.64,822.03Z"/><path d=" M127.05,822.88L126.45,822.03L126.47,819.32Z"/><path d=" M127.05,822.88L126.47,819.32L127.05,820.16Z"/><path d=" M126.45,822.03L126.55,820.67L126.56,817.99Z"/><path d=" M126.45,822.03L126.56,817.99L126.47,819.32Z"/><path d=" M126.55,820.67L127.01,819.48L127.01,816.82Z"/><path d=" M126.55,820.67L127.01,816.82L126.56,817.99Z"/><path d=" M127.01,819.48L127.54,820.67L127.53,817.99Z"/><path d=" M127.01,819.48L127.53,817.99L127.01,816.82Z"/><path d=" M127.54,820.67L127.64,822.03L127.63,819.32Z"/><path d=" M127.54,820.67L127.63,819.32L127.53,817.99Z"/><path d=" M127.64,822.03L127.05,822.88L127.05,820.16Z"/><path d=" M127.64,822.03L127.05,820.16L127.63,819.32Z"/><path d=" M127.05,820.16L126.47,819.32L126.48,816.61Z"/><path d=" M127.05,820.16L126.48,816.61L127.05,817.43Z"/><path d=" M126.47,819.32L126.56,817.99L126.57,815.3Z"/><path d=" M126.47,819.32L126.57,815.3L126.48,816.61Z"/><path d=" M126.56,817.99L127.01,816.82L127.01,814.16Z"/><path d=" M126.56,817.99L127.01,814.16L126.57,815.3Z"/><path d=" M127.01,816.82L127.53,817.99L127.52,815.3Z"/><path d=" M127.01,816.82L127.52,815.3L127.01,814.16Z"/><path d=" M127.53,817.99L127.63,819.32L127.61,816.61Z"/><path d=" M127.53,817.99L127.61,816.61L127.52,815.3Z"/><path d=" M127.63,819.32L127.05,820.16L127.05,817.43Z"/><path d=" M127.63,819.32L127.05,817.43L127.61,816.61Z"/><path d=" M127.05,817.43L126.48,816.61L126.49,813.9Z"/><path d=" M127.05,817.43L126.49,813.9L127.05,814.7Z"/><path d=" M126.48,816.61L126.57,815.3L126.58,812.62Z"/><path d=" M126.48,816.61L126.58,812.62L126.49,813.9Z"/><path d=" M126.57,815.3L127.01,814.16L127.01,811.5Z"/><path d=" M126.57,815.3L127.01,811.5L126.58,812.62Z"/><path d=" M127.01,814.16L127.52,815.3L127.51,812.62Z"/><path d=" M127.01,814.16L127.51,812.62L127.01,811.5Z"/><path d=" M127.52,815.3L127.61,816.61L127.6,813.9Z"/><path d=" M127.52,815.3L127.6,813.9L127.51,812.62Z"/><path d=" M127.61,816.61L127.05,817.43L127.05,814.7Z"/><path d=" M127.61,816.61L127.05,814.7L127.6,813.9Z"/><path d=" M127.05,814.7L126.49,813.9L126.5,811.19Z"/><path d=" M127.05,814.7L126.5,811.19L127.05,811.97Z"/><path d=" M126.49,813.9L126.58,812.62L126.59,809.94Z"/><path d=" M126.49,813.9L126.59,809.94L126.5,811.19Z"/><path d=" M126.58,812.62L127.01,811.5L127.01,808.84Z"/><path d=" M126.58,812.62L127.01,808.84L126.59,809.94Z"/><path d=" M127.01,811.5L127.51,812.62L127.5,809.94Z"/><path d=" M127.01,811.5L127.5,809.94L127.01,808.84Z"/><path d=" M127.51,812.62L127.6,813.9L127.59,811.19Z"/><path d=" M127.51,812.62L127.59,811.19L127.5,809.94Z"/><path d=" M127.6,813.9L127.05,814.7L127.05,811.97Z"/><path d=" M127.6,813.9L127.05,811.97L127.59,811.19Z"/><path d=" M127.05,811.97L126.5,811.19L126.51,808.47Z"/><path d=" M127.05,811.97L126.51,808.47L127.05,809.24Z"/><path d=" M126.5,811.19L126.59,809.94L126.6,807.25Z"/><path d=" M126.5,811.19L126.6,807.25L126.51,808.47Z"/><path d=" M126.59,809.94L127.01,808.84L127.01,806.18Z"/><path d=" M126.59,809.94L127.01,806.18L126.6,807.25Z"/><path d=" M127.01,808.84L127.5,809.94L127.49,807.25Z"/><path d=" M127.01,808.84L127.49,807.25L127.01,806.18Z"/><path d=" M127.5,809.94L127.59,811.19L127.58,808.47Z"/><path d=" M127.5,809.94L127.58,808.47L127.49,807.25Z"/><path d=" M127.59,811.19L127.05,811.97L127.05,809.24Z"/><path d=" M127.59,811.19L127.05,809.24L127.58,808.47Z"/><path d=" M127.05,809.24L126.51,808.47L126.53,805.76Z"/><path d=" M127.05,809.24L126.53,805.76L127.05,806.51Z"/><path d=" M126.51,808.47L126.6,807.25L126.61,804.57Z"/><path d=" M126.51,808.47L126.61,804.57L126.53,805.76Z"/><path d=" M126.6,807.25L127.01,806.18L127.01,803.52Z"/><path d=" M126.6,807.25L127.01,803.52L126.61,804.57Z"/><path d=" M127.01,806.18L127.49,807.25L127.48,804.57Z"/><path d=" M127.01,806.18L127.48,804.57L127.01,803.52Z"/><path d=" M127.49,807.25L127.58,808.47L127.57,805.76Z"/><path d=" M127.49,807.25L127.57,805.76L127.48,804.57Z"/><path d=" M127.58,808.47L127.05,809.24L127.05,806.51Z"/><path d=" M127.58,808.47L127.05,806.51L127.57,805.76Z"/><path d=" M127.05,806.51L126.53,805.76L126.54,803.05Z"/><path d=" M127.05,806.51L126.54,803.05L127.05,803.78Z"/><path d=" M126.53,805.76L126.61,804.57L126.62,801.88Z"/><path d=" M126.53,805.76L126.62,801.88L126.54,803.05Z"/><path d=" M126.61,804.57L127.01,803.52L127.02,800.86Z"/><path d=" M126.61,804.57L127.02,800.86L126.62,801.88Z"/><path d=" M127.01,803.52L127.48,804.57L127.47,801.88Z"/><path d=" M127.01,803.52L127.47,801.88L127.02,800.86Z"/><path d=" M127.48,804.57L127.57,805.76L127.55,803.05Z"/><path d=" M127.48,804.57L127.55,803.05L127.47,801.88Z"/><path d=" M127.57,805.76L127.05,806.51L127.05,803.78Z"/><path d=" M127.57,805.76L127.05,803.78L127.55,803.05Z"/><path d=" M127.05,803.78L126.54,803.05L126.55,800.34Z"/><path d=" M127.05,803.78L126.55,800.34L127.05,801.05Z"/><path d=" M126.54,803.05L126.62,801.88L126.63,799.2Z"/><path d=" M126.54,803.05L126.63,799.2L126.55,800.34Z"/><path d=" M126.62,801.88L127.02,800.86L127.02,798.2Z"/><path d=" M126.62,801.88L127.02,798.2L126.63,799.2Z"/><path d=" M127.02,800.86L127.47,801.88L127.46,799.2Z"/><path d=" M127.02,800.86L127.46,799.2L127.02,798.2Z"/><path d=" M127.47,801.88L127.55,803.05L127.54,800.34Z"/><path d=" M127.47,801.88L127.54,800.34L127.46,799.2Z"/><path d=" M127.55,803.05L127.05,803.78L127.05,801.05Z"/><path d=" M127.55,803.05L127.05,801.05L127.54,800.34Z"/><path d=" M127.05,801.05L126.55,800.34L127.01,795.71Z"/><path d=" M127.05,801.05L127.01,795.71L127.05,795.76Z"/><path d=" M126.55,800.34L126.63,799.2L127.01,795.62Z"/><path d=" M126.55,800.34L127.01,795.62L127.01,795.71Z"/><path d=" M126.63,799.2L127.02,798.2L127.04,795.54Z"/><path d=" M126.63,799.2L127.04,795.54L127.01,795.62Z"/><path d=" M127.02,798.2L127.46,799.2L127.08,795.62Z"/><path d=" M127.02,798.2L127.08,795.62L127.04,795.54Z"/><path d=" M127.46,799.2L127.54,800.34L127.09,795.71Z"/><path d=" M127.46,799.2L127.09,795.71L127.08,795.62Z"/><path d=" M127.54,800.34L127.05,801.05L127.05,795.76Z"/><path d=" M127.54,800.34L127.05,795.76L127.09,795.71Z"/><path d=" M127.05,849.5L126.76,848.24L126.71,849.02Z"/><path d=" M127.05,795.76L127.01,795.71L127.01,795.62Z"/><path d=" M127.05,849.5L127.03,847.56L126.76,848.24Z"/><path d=" M127.05,795.76L127.01,795.62L127.04,795.54Z"/><path d=" M127.05,849.5L127.33,848.24L127.03,847.56Z"/><path d=" M127.05,795.76L127.04,795.54L127.08,795.62Z"/><path d=" M127.05,849.5L127.38,849.02L127.33,848.24Z"/><path d=" M127.05,795.76L127.08,795.62L127.09,795.71Z"/><path d=" M207,142L208,142L208,151L209,151L209,167L210,167L209,259L208,259L208,268L207,268L207,279L206,279L205,307L204,307L202,332L201,332L201,342L200,342L192,404L191,404L191,407L190,407L190,417L189,417L189,425L188,425L188,430L187,430L187,438L186,438L186,441L185,441L185,447L184,447L182,463L181,463L180,467L178,468L178,470L174,474L172,474L171,476L168,477L168,483L167,483L151,909L150,908L137,909L137,908L135,908L135,906L132,906L132,909L122,479L119,476L117,476L110,469L110,467L108,466L107,461L106,461L106,456L105,456L105,453L104,453L104,446L103,446L103,442L102,442L102,437L101,437L99,417L98,417L98,413L97,413L97,405L96,405L95,391L94,391L88,343L87,343L87,335L86,335L86,329L85,329L83,302L82,302L82,291L81,291L80,271L79,271L79,256L78,256L78,246L77,246L76,182L77,182L77,164L78,164L80,132L81,132L81,129L82,129L82,122L83,122L83,119L84,119L85,111L86,111L87,105L89,103L90,97L92,96L92,93L93,93L96,85L99,83L99,81L102,79L102,77L111,68L113,68L117,64L119,64L120,62L122,62L124,60L129,60L131,58L139,58L139,57L154,58L154,59L163,61L163,62L169,64L174,69L176,69L176,71L178,71L182,75L182,77L184,77L184,79L191,86L191,88L194,91L194,94L195,94L197,100L198,100L198,103L205.17,119.53Z"/><path d=" M142,267L148,267L149,269L151,269L154,272L155,278L156,278L156,281L157,281L157,295L158,295L144.43,351.91L132.94,295.95L135,274Z"/><path d=" M146.21,267L140.21,267L139.21,269L137.21,269L134.21,272L133.21,278L132.21,278L132.21,281L131.21,281L131.21,295L130.21,295L143.78,351.91L155.27,295.95L153.21,274Z"/><path d=" M240,214L241,213L241,126L245,121L250,121L251,124L252,124L254,402L241.05,401.12L240,373L239,372L181.39,378.15L181.09,357.08L241.79,354.38L241.93,232.21L191.08,235.34L190.92,216.11Z"/><path d=" M48.21,214L47.21,213L47.21,126L43.21,121L38.21,121L37.21,124L36.21,124L34.21,402L47.16,401.12L48.21,373L49.21,372L106.82,378.15L107.12,357.08L46.42,354.38L46.28,232.21L97.13,235.34L97.29,216.11Z"/><path d=" M136.54,740.03L144.43,814.24L157.34,868.35L160.17,885.02L158.9,911.1L156.33,942.3L140.29,977.1L147.77,975.45L162.84,944.11L167.65,910.41L169.24,881.76L165.59,866.86L152.24,811.72L149.41,739.64Z"/><path d=" M148.31,877.89L264.27,889.49L265.53,915.09L152.53,933.26Z"/></svg>